<?xml version="1.0" encoding="UTF-8"?>
<svg id="g-big_stumps_bubble-full-interative-img" xmlns="http://www.w3.org/2000/svg" baseProfile="tiny" version="1.2" viewBox="0 0 700 203">
  <!-- Generator: Adobe Illustrator 29.3.1, SVG Export Plug-In . SVG Version: 2.1.0 Build 151)  -->
  <g>
    <circle cx="102.599" cy="105.461" r="5.25" fill="#0928ab"/>
    <circle cx="445.394" cy="66.909" r="5.25" fill="#0928ab"/>
    <circle cx="108.742" cy="40.131" r="5.25" fill="#0928ab"/>
    <circle cx="183.597" cy="97.143" r="5.25" fill="#0928ab"/>
    <circle cx="72.379" cy="64.546" r="5.25" fill="#0928ab"/>
    <circle cx="126.25" cy="88.839" r="5.25" fill="#0928ab"/>
    <circle cx="121.163" cy="32.214" r="5.25" fill="#0928ab"/>
    <circle cx="77.611" cy="107.668" r="5.25" fill="#0928ab"/>
    <circle cx="97.333" cy="62.344" r="5.25" fill="#0928ab"/>
    <circle cx="200.38" cy="78.476" r="5.25" fill="#0928ab"/>
    <circle cx="299.771" cy="64.911" r="5.25" fill="#0928ab"/>
    <circle cx="511.729" cy="66.485" r="5.25" fill="#0928ab"/>
    <circle cx="251.281" cy="69.042" r="5.25" fill="#0928ab"/>
    <circle cx="127.644" cy="103.271" r="5.25" fill="#0928ab"/>
    <circle cx="431.392" cy="70.678" r="5.25" fill="#0928ab"/>
    <circle cx="194.56" cy="65.195" r="5.25" fill="#0928ab"/>
    <circle cx="167.04" cy="74.154" r="5.25" fill="#0928ab"/>
    <circle cx="115.751" cy="111.565" r="5.25" fill="#0928ab"/>
    <circle cx="226.38" cy="65.794" r="5.25" fill="#0928ab"/>
    <circle cx="299.89" cy="50.413" r="5.25" fill="#0928ab"/>
    <circle cx="121.699" cy="46.686" r="5.25" fill="#0928ab"/>
    <circle cx="88.158" cy="84.895" r="5.25" fill="#0928ab"/>
    <circle cx="287.152" cy="72.056" r="5.25" fill="#0928ab"/>
    <circle cx="504.733" cy="79.186" r="5.25" fill="#0928ab"/>
    <circle cx="234.895" cy="104.902" r="5.25" fill="#0928ab"/>
    <circle cx="127.625" cy="59.925" r="5.25" fill="#0928ab"/>
    <circle cx="287.273" cy="57.557" r="5.25" fill="#0928ab"/>
    <circle cx="109.554" cy="54.608" r="5.25" fill="#0928ab"/>
    <circle cx="172.822" cy="87.451" r="5.25" fill="#0928ab"/>
    <circle cx="84.222" cy="56.196" r="5.25" fill="#0928ab"/>
    <circle cx="177.193" cy="30.389" r="5.25" fill="#0928ab"/>
    <circle cx="159.136" cy="50.234" r="5.25" fill="#0928ab"/>
    <circle cx="149.614" cy="39.299" r="5.25" fill="#0928ab"/>
    <circle cx="239.769" cy="60.228" r="5.25" fill="#0928ab"/>
    <circle cx="59.225" cy="58.452" r="5.25" fill="#0928ab"/>
    <circle cx="299.649" cy="79.409" r="5.25" fill="#0928ab"/>
    <circle cx="1116.403" cy="95.578" r="5.25" fill="#0928ab"/>
    <circle cx="1380.181" cy="79.964" r="5.25" fill="#0928ab"/>
    <circle cx="1149.12" cy="76.277" r="5.25" fill="#0928ab"/>
    <circle cx="1206.26" cy="85.086" r="5.25" fill="#0928ab"/>
    <circle cx="1157.963" cy="64.857" r="5.25" fill="#0928ab"/>
    <circle cx="1181.936" cy="43.431" r="5.25" fill="#0928ab"/>
    <circle cx="1192.624" cy="33.629" r="5.25" fill="#0928ab"/>
    <circle cx="1149.889" cy="114.704" r="5.25" fill="#0928ab"/>
    <circle cx="1139.943" cy="87.462" r="5.25" fill="#0928ab"/>
    <circle cx="1217.426" cy="111.776" r="5.25" fill="#0928ab"/>
    <circle cx="1284.729" cy="100.741" r="5.25" fill="#0928ab"/>
    <circle cx="1426.179" cy="73.614" r="5.25" fill="#0928ab"/>
    <circle cx="1267.309" cy="35.868" r="5.25" fill="#0928ab"/>
    <circle cx="1142.809" cy="47.416" r="5.25" fill="#0928ab"/>
    <circle cx="1383.95" cy="93.966" r="5.25" fill="#0928ab"/>
    <circle cx="1231.925" cy="111.603" r="5.25" fill="#0928ab"/>
    <circle cx="1236.439" cy="33.741" r="5.25" fill="#0928ab"/>
    <circle cx="1130.59" cy="98.542" r="5.25" fill="#0928ab"/>
    <circle cx="1278.564" cy="87.622" r="5.25" fill="#0928ab"/>
    <circle cx="1307.384" cy="52.762" r="5.25" fill="#0928ab"/>
    <circle cx="1156.998" cy="50.405" r="5.25" fill="#0928ab"/>
    <circle cx="1159.285" cy="103.678" r="5.25" fill="#0928ab"/>
    <circle cx="1300.084" cy="69.423" r="5.25" fill="#0928ab"/>
    <circle cx="1419.184" cy="86.315" r="5.25" transform="translate(1106.655 1473.348) rotate(-80.783)" fill="#0928ab"/>
    <circle cx="1290.492" cy="114.037" r="5.25" fill="#0928ab"/>
    <circle cx="1177.445" cy="29.641" r="5.25" fill="#0928ab"/>
    <circle cx="1293.39" cy="56.562" r="5.25" fill="#0928ab"/>
    <circle cx="1168.489" cy="92.468" r="5.25" fill="#0928ab"/>
    <circle cx="1207.465" cy="58.966" r="5.25" fill="#0928ab"/>
    <circle cx="1173.776" cy="105.97" r="5.25" fill="#0928ab"/>
    <circle cx="1207.45" cy="33.352" r="5.25" fill="#0928ab"/>
    <circle cx="1229.428" cy="71.432" r="5.25" fill="#0928ab"/>
    <circle cx="1221.942" cy="33.822" r="5.25" fill="#0928ab"/>
    <circle cx="1265.499" cy="60.881" r="5.25" fill="#0928ab"/>
    <circle cx="1172.207" cy="67.55" r="5.25" fill="#0928ab"/>
    <circle cx="1314.077" cy="65.625" r="5.25" fill="#0928ab"/>
    <circle cx="2017.15" cy="22.402" r="5.25" fill="#0928ab"/>
    <circle cx="2032.764" cy="286.181" r="5.25" fill="#0928ab"/>
    <circle cx="2036.451" cy="55.119" r="5.25" fill="#0928ab"/>
    <circle cx="2027.642" cy="112.259" r="5.25" fill="#0928ab"/>
    <circle cx="2047.871" cy="63.962" r="5.25" fill="#0928ab"/>
    <circle cx="2069.297" cy="87.936" r="5.25" fill="#0928ab"/>
    <circle cx="2079.099" cy="98.624" r="5.25" fill="#0928ab"/>
    <circle cx="1998.024" cy="55.889" r="5.25" fill="#0928ab"/>
    <circle cx="2025.266" cy="45.942" r="5.25" fill="#0928ab"/>
    <circle cx="2000.952" cy="123.425" r="5.25" fill="#0928ab"/>
    <circle cx="2011.987" cy="190.728" r="5.25" fill="#0928ab"/>
    <circle cx="2039.114" cy="332.179" r="5.25" fill="#0928ab"/>
    <circle cx="2076.86" cy="173.308" r="5.25" fill="#0928ab"/>
    <circle cx="2065.312" cy="48.809" r="5.25" fill="#0928ab"/>
    <circle cx="2018.762" cy="289.949" r="5.25" fill="#0928ab"/>
    <circle cx="2001.125" cy="137.924" r="5.25" fill="#0928ab"/>
    <circle cx="2078.987" cy="142.438" r="5.25" fill="#0928ab"/>
    <circle cx="2014.186" cy="36.589" r="5.25" fill="#0928ab"/>
    <circle cx="2025.106" cy="184.564" r="5.25" fill="#0928ab"/>
    <circle cx="2059.966" cy="213.383" r="5.25" fill="#0928ab"/>
    <circle cx="2062.323" cy="62.997" r="5.25" fill="#0928ab"/>
    <circle cx="2009.051" cy="65.284" r="5.25" fill="#0928ab"/>
    <circle cx="2043.305" cy="206.084" r="5.25" fill="#0928ab"/>
    <circle cx="2026.413" cy="325.183" r="5.25" transform="translate(1380.833 2273.341) rotate(-80.783)" fill="#0928ab"/>
    <circle cx="1998.691" cy="196.491" r="5.25" fill="#0928ab"/>
    <circle cx="2083.087" cy="83.445" r="5.25" fill="#0928ab"/>
    <circle cx="2056.166" cy="199.39" r="5.25" fill="#0928ab"/>
    <circle cx="2020.26" cy="74.489" r="5.25" fill="#0928ab"/>
    <circle cx="2053.762" cy="113.464" r="5.25" fill="#0928ab"/>
    <circle cx="2006.758" cy="79.775" r="5.25" fill="#0928ab"/>
    <circle cx="2079.376" cy="113.45" r="5.25" fill="#0928ab"/>
    <circle cx="2041.296" cy="135.428" r="5.25" fill="#0928ab"/>
    <circle cx="2078.906" cy="127.942" r="5.25" fill="#0928ab"/>
    <circle cx="2051.847" cy="171.498" r="5.25" fill="#0928ab"/>
    <circle cx="2045.178" cy="78.206" r="5.25" fill="#0928ab"/>
    <circle cx="2047.103" cy="220.077" r="5.25" fill="#0928ab"/>
  </g>
  <g id="older-stump">
    <circle cx="156.01" cy="106.093" r="5.25" fill="#e0e0e0"/>
    <circle cx="70.195" cy="35.628" r="5.25" fill="#e0e0e0"/>
    <circle cx="65.786" cy="116.037" r="5.25" fill="#e0e0e0"/>
    <circle cx="50.013" cy="95.694" r="5.25" fill="#e0e0e0"/>
    <circle cx="48.685" cy="81.25" r="5.25" fill="#e0e0e0"/>
    <circle cx="73.681" cy="78.986" r="5.25" fill="#e0e0e0"/>
    <circle cx="652.694" cy="74.857" r="5.25" fill="#e0e0e0"/>
    <circle cx="299.528" cy="93.908" r="5.25" fill="#e0e0e0"/>
    <circle cx="166.784" cy="115.797" r="5.25" fill="#e0e0e0"/>
    <circle cx="47.375" cy="66.809" r="5.25" fill="#e0e0e0"/>
    <circle cx="145.242" cy="96.384" r="5.25" fill="#e0e0e0"/>
    <circle cx="103.893" cy="119.9" r="5.25" fill="#e0e0e0"/>
    <circle cx="216.746" cy="42.602" r="5.25" fill="#e0e0e0"/>
    <circle cx="264.669" cy="63.477" r="5.25" fill="#e0e0e0"/>
    <circle cx="180.796" cy="69.688" r="5.25" fill="#e0e0e0"/>
    <circle cx="156.09" cy="64.399" r="5.25" fill="#e0e0e0"/>
    <circle cx="52.628" cy="109.955" r="5.25" fill="#e0e0e0"/>
    <circle cx="212.995" cy="71.354" r="5.25" fill="#e0e0e0"/>
    <circle cx="324.762" cy="79.615" r="5.25" fill="#e0e0e0"/>
    <circle cx="153.28" cy="78.608" r="5.25" fill="#e0e0e0"/>
    <circle cx="61.842" cy="87.328" r="5.25" fill="#e0e0e0"/>
    <circle cx="197.384" cy="92.663" r="5.25" fill="#e0e0e0"/>
    <circle cx="64.456" cy="101.587" r="5.25" fill="#e0e0e0"/>
    <circle cx="100.004" cy="76.554" r="5.25" fill="#e0e0e0"/>
    <circle cx="135.846" cy="43.726" r="5.25" fill="#e0e0e0"/>
    <circle cx="211.873" cy="87.285" r="5.25" fill="#e0e0e0"/>
    <circle cx="312.388" cy="57.765" r="5.25" fill="#e0e0e0"/>
    <circle cx="312.145" cy="86.763" r="5.25" fill="#e0e0e0"/>
    <circle cx="101.307" cy="90.974" r="5.25" fill="#e0e0e0"/>
    <circle cx="114.417" cy="97.132" r="5.25" fill="#e0e0e0"/>
    <circle cx="83.345" cy="41.73" r="5.25" fill="#e0e0e0"/>
    <circle cx="142.288" cy="68.844" r="5.25" fill="#e0e0e0"/>
    <circle cx="159.029" cy="91.915" r="5.25" fill="#e0e0e0"/>
    <circle cx="379.433" cy="87.129" r="5.25" fill="#e0e0e0"/>
    <circle cx="46.072" cy="52.367" r="5.25" fill="#e0e0e0"/>
    <circle cx="169.802" cy="101.623" r="5.25" fill="#e0e0e0"/>
    <circle cx="78.919" cy="122.179" r="5.25" fill="#e0e0e0"/>
    <circle cx="89.47" cy="99.323" r="5.25" fill="#e0e0e0"/>
    <circle cx="108.238" cy="25.649" r="5.25" fill="#e0e0e0"/>
    <circle cx="186.602" cy="82.961" r="5.25" fill="#e0e0e0"/>
    <circle cx="95.911" cy="33.39" r="5.25" fill="#e0e0e0"/>
    <circle cx="169.891" cy="59.952" r="5.25" fill="#e0e0e0"/>
    <circle cx="172.922" cy="45.783" r="5.25" fill="#e0e0e0"/>
    <circle cx="60.532" cy="72.897" r="5.25" fill="#e0e0e0"/>
    <circle cx="114.545" cy="68.209" r="5.25" fill="#e0e0e0"/>
    <circle cx="241.645" cy="45.849" r="5.25" fill="#e0e0e0"/>
    <circle cx="139.539" cy="83.055" r="5.25" fill="#e0e0e0"/>
    <circle cx="186.705" cy="41.316" r="5.25" fill="#e0e0e0"/>
    <circle cx="183.685" cy="55.495" r="5.25" fill="#e0e0e0"/>
    <circle cx="96.481" cy="47.863" r="5.25" fill="#e0e0e0"/>
    <circle cx="145.332" cy="54.677" r="5.25" fill="#e0e0e0"/>
    <circle cx="262.792" cy="77.853" r="5.25" fill="#e0e0e0"/>
    <circle cx="113.147" cy="82.632" r="5.25" fill="#e0e0e0"/>
    <circle cx="76.303" cy="93.234" r="5.25" fill="#e0e0e0"/>
    <circle cx="224.501" cy="80.17" r="5.25" fill="#e0e0e0"/>
    <circle cx="366.365" cy="65.68" r="5.25" fill="#e0e0e0"/>
    <circle cx="236.014" cy="88.983" r="5.25" fill="#e0e0e0"/>
    <circle cx="253.157" cy="54.664" r="5.25" fill="#e0e0e0"/>
    <circle cx="180.578" cy="111.325" r="5.25" fill="#e0e0e0"/>
    <circle cx="379.091" cy="72.633" r="5.25" fill="#e0e0e0"/>
    <circle cx="312.267" cy="72.264" r="5.25" fill="#e0e0e0"/>
    <circle cx="95.404" cy="18.907" r="5.25" fill="#e0e0e0"/>
    <circle cx="197.488" cy="51.004" r="5.25" fill="#e0e0e0"/>
    <circle cx="57.924" cy="44.011" r="5.25" fill="#e0e0e0"/>
    <circle cx="287.031" cy="86.555" r="5.25" fill="#e0e0e0"/>
    <circle cx="71.078" cy="50.099" r="5.25" fill="#e0e0e0"/>
    <circle cx="90.743" cy="113.802" r="5.25" fill="#e0e0e0"/>
    <circle cx="247.529" cy="97.796" r="5.25" fill="#e0e0e0"/>
    <circle cx="249.405" cy="83.42" r="5.25" fill="#e0e0e0"/>
    <circle cx="237.892" cy="74.61" r="5.25" fill="#e0e0e0"/>
    <circle cx="638.769" cy="70.814" r="5.25" fill="#e0e0e0"/>
    <circle cx="223.379" cy="96.091" r="5.25" fill="#e0e0e0"/>
    <circle cx="82.781" cy="27.247" r="5.25" fill="#e0e0e0"/>
    <circle cx="378.749" cy="58.138" r="5.25" fill="#e0e0e0"/>
    <circle cx="127.645" cy="74.417" r="5.25" fill="#e0e0e0"/>
    <circle cx="163.408" cy="34.847" r="5.25" fill="#e0e0e0"/>
    <circle cx="441.657" cy="80.92" r="5.25" fill="#e0e0e0"/>
    <circle cx="200.494" cy="36.829" r="5.25" fill="#e0e0e0"/>
    <circle cx="214.867" cy="56.979" r="5.25" fill="#e0e0e0"/>
    <circle cx="260.917" cy="92.23" r="5.25" fill="#e0e0e0"/>
    <circle cx="366.709" cy="80.177" r="5.25" fill="#e0e0e0"/>
    <circle cx="353.984" cy="73.225" r="5.25" fill="#e0e0e0"/>
    <circle cx="85.501" cy="70.659" r="5.25" fill="#e0e0e0"/>
    <circle cx="128.884" cy="117.714" r="5.25" fill="#e0e0e0"/>
    <circle cx="228.257" cy="51.414" r="5.25" fill="#e0e0e0"/>
    <circle cx="1179.086" cy="119.447" r="5.25" fill="#e0e0e0"/>
    <circle cx="1207.752" cy="123.802" r="5.25" fill="#e0e0e0"/>
    <circle cx="1125.765" cy="84.519" r="5.25" fill="#e0e0e0"/>
    <circle cx="1128.627" cy="44.416" r="5.25" fill="#e0e0e0"/>
    <circle cx="1138.32" cy="33.636" r="5.25" fill="#e0e0e0"/>
    <circle cx="1184.157" cy="133.025" r="5.25" fill="#e0e0e0"/>
    <circle cx="1514.644" cy="81.986" r="5.25" fill="#e0e0e0"/>
    <circle cx="1315.022" cy="107.394" r="5.25" fill="#e0e0e0"/>
    <circle cx="1202.977" cy="110.118" r="5.25" fill="#e0e0e0"/>
    <circle cx="1171.22" cy="53.158" r="5.25" fill="#e0e0e0"/>
    <circle cx="1189.594" cy="55.719" r="5.25" fill="#e0e0e0"/>
    <circle cx="1106.777" cy="66.559" r="5.25" fill="#e0e0e0"/>
    <circle cx="1247.098" cy="111.114" r="5.25" fill="#e0e0e0"/>
    <circle cx="1252.728" cy="34.87" r="5.25" fill="#e0e0e0"/>
    <circle cx="1239.219" cy="124.122" r="5.25" fill="#e0e0e0"/>
    <circle cx="1243.76" cy="46.254" r="5.25" fill="#e0e0e0"/>
    <circle cx="1144.847" cy="101.122" r="5.25" fill="#e0e0e0"/>
    <circle cx="1253.706" cy="124.133" r="5.25" fill="#e0e0e0"/>
    <circle cx="1303.187" cy="99.035" r="5.25" fill="#e0e0e0"/>
    <circle cx="1269.632" cy="99.913" r="5.25" fill="#e0e0e0"/>
    <circle cx="1162.928" cy="25.417" r="5.25" fill="#e0e0e0"/>
    <circle cx="1211.654" cy="98.506" r="5.25" fill="#e0e0e0"/>
    <circle cx="1163.317" cy="78.924" r="5.25" fill="#e0e0e0"/>
    <circle cx="1169.852" cy="130.673" r="5.25" fill="#e0e0e0"/>
    <circle cx="1120.765" cy="70.307" r="5.25" fill="#e0e0e0"/>
    <circle cx="1261.571" cy="111.966" r="5.25" fill="#e0e0e0"/>
    <circle cx="1292.996" cy="88.743" r="5.25" fill="#e0e0e0"/>
    <circle cx="1316.323" cy="92.903" r="5.25" fill="#e0e0e0"/>
    <circle cx="1191.901" cy="83.326" r="5.25" fill="#e0e0e0"/>
    <circle cx="1152.499" cy="36.637" r="5.25" fill="#e0e0e0"/>
    <circle cx="1155.171" cy="128.207" r="5.25" fill="#e0e0e0"/>
    <circle cx="1235.223" cy="84.701" r="5.25" fill="#e0e0e0"/>
    <circle cx="1177.566" cy="81.224" r="5.25" fill="#e0e0e0"/>
    <circle cx="1332.21" cy="92.857" r="5.25" fill="#e0e0e0"/>
    <circle cx="1200.269" cy="45.951" r="5.25" fill="#e0e0e0"/>
    <circle cx="1193.405" cy="121.714" r="5.25" fill="#e0e0e0"/>
    <circle cx="1115.691" cy="55.124" r="5.25" fill="#e0e0e0"/>
    <circle cx="1140.539" cy="125.774" r="5.25" fill="#e0e0e0"/>
    <circle cx="1188.217" cy="108.182" r="5.25" fill="#e0e0e0"/>
    <circle cx="1215.891" cy="135.794" r="5.25" fill="#e0e0e0"/>
    <circle cx="1154.188" cy="90.116" r="5.25" fill="#e0e0e0"/>
    <circle cx="1200.628" cy="71.753" r="5.25" fill="#e0e0e0"/>
    <circle cx="1226.149" cy="98.316" r="5.25" fill="#e0e0e0"/>
    <circle cx="1197.233" cy="96.807" r="5.25" fill="#e0e0e0"/>
    <circle cx="1121.231" cy="109.602" r="5.25" fill="#e0e0e0"/>
    <circle cx="1249.654" cy="85.567" r="5.25" fill="#e0e0e0"/>
    <circle cx="1224.729" cy="124.303" r="5.25" fill="#e0e0e0"/>
    <circle cx="1236.587" cy="58.839" r="5.25" fill="#e0e0e0"/>
    <circle cx="1240.647" cy="98.138" r="5.25" fill="#e0e0e0"/>
    <circle cx="1166.73" cy="39.414" r="5.25" fill="#e0e0e0"/>
    <circle cx="1220.764" cy="84.891" r="5.25" fill="#e0e0e0"/>
    <circle cx="1251.037" cy="59.851" r="5.25" fill="#e0e0e0"/>
    <circle cx="1182.89" cy="94.692" r="5.25" fill="#e0e0e0"/>
    <circle cx="1135.511" cy="112.166" r="5.25" fill="#e0e0e0"/>
    <circle cx="1286.972" cy="75.556" r="5.25" fill="#e0e0e0"/>
    <circle cx="1346.584" cy="90.953" r="5.25" fill="#e0e0e0"/>
    <circle cx="1273.654" cy="48.905" r="5.25" fill="#e0e0e0"/>
    <circle cx="1243.749" cy="72.364" r="5.25" fill="#e0e0e0"/>
    <circle cx="1214.921" cy="71.583" r="5.25" fill="#e0e0e0"/>
    <circle cx="1352.109" cy="77.547" r="5.25" fill="#e0e0e0"/>
    <circle cx="1306.111" cy="82.609" r="5.25" fill="#e0e0e0"/>
    <circle cx="1129.672" cy="58.87" r="5.25" fill="#e0e0e0"/>
    <circle cx="1222.086" cy="58.939" r="5.25" fill="#e0e0e0"/>
    <circle cx="1134.924" cy="73.299" r="5.25" fill="#e0e0e0"/>
    <circle cx="1320.109" cy="78.834" r="5.25" fill="#e0e0e0"/>
    <circle cx="1164.575" cy="117.178" r="5.25" fill="#e0e0e0"/>
    <circle cx="1143.824" cy="61.87" r="5.25" fill="#e0e0e0"/>
    <circle cx="1276.033" cy="112.91" r="5.25" fill="#e0e0e0"/>
    <circle cx="1259.159" cy="47.858" r="5.25" fill="#e0e0e0"/>
    <circle cx="1258.088" cy="73.347" r="5.25" fill="#e0e0e0"/>
    <circle cx="1500.719" cy="77.944" r="5.25" fill="#e0e0e0"/>
    <circle cx="1279.955" cy="61.966" r="5.25" fill="#e0e0e0"/>
    <circle cx="1126.155" cy="123.244" r="5.25" fill="#e0e0e0"/>
    <circle cx="1343.644" cy="65.776" r="5.25" fill="#e0e0e0"/>
    <circle cx="1186.467" cy="69.827" r="5.25" fill="#e0e0e0"/>
    <circle cx="1214.759" cy="46.422" r="5.25" fill="#e0e0e0"/>
    <circle cx="1376.413" cy="65.964" r="5.25" fill="#e0e0e0"/>
    <circle cx="1229.259" cy="46.341" r="5.25" fill="#e0e0e0"/>
    <circle cx="1272.555" cy="74.425" r="5.25" fill="#e0e0e0"/>
    <circle cx="1264.109" cy="86.537" r="5.25" fill="#e0e0e0"/>
    <circle cx="1337.734" cy="79.45" r="5.25" fill="#e0e0e0"/>
    <circle cx="1329.258" cy="67.587" r="5.25" fill="#e0e0e0"/>
    <circle cx="1111.59" cy="81.516" r="5.25" fill="#e0e0e0"/>
    <circle cx="1148.692" cy="22.662" r="5.25" fill="#e0e0e0"/>
    <circle cx="1255.156" cy="98.977" r="5.25" fill="#e0e0e0"/>
    <circle cx="1993.281" cy="85.086" r="5.25" fill="#e0e0e0"/>
    <circle cx="1988.926" cy="113.751" r="5.25" fill="#e0e0e0"/>
    <circle cx="2028.209" cy="31.764" r="5.25" fill="#e0e0e0"/>
    <circle cx="2068.312" cy="34.626" r="5.25" fill="#e0e0e0"/>
    <circle cx="2079.092" cy="44.319" r="5.25" fill="#e0e0e0"/>
    <circle cx="1979.703" cy="90.156" r="5.25" fill="#e0e0e0"/>
    <circle cx="2030.742" cy="420.643" r="5.25" fill="#e0e0e0"/>
    <circle cx="2005.334" cy="221.021" r="5.25" fill="#e0e0e0"/>
    <circle cx="2002.61" cy="108.976" r="5.25" fill="#e0e0e0"/>
    <circle cx="2059.57" cy="77.219" r="5.25" fill="#e0e0e0"/>
    <circle cx="2057.009" cy="95.593" r="5.25" fill="#e0e0e0"/>
    <circle cx="2046.169" cy="12.776" r="5.25" fill="#e0e0e0"/>
    <circle cx="2001.614" cy="153.097" r="5.25" fill="#e0e0e0"/>
    <circle cx="2077.858" cy="158.728" r="5.25" fill="#e0e0e0"/>
    <circle cx="1988.606" cy="145.218" r="5.25" fill="#e0e0e0"/>
    <circle cx="2066.474" cy="149.76" r="5.25" fill="#e0e0e0"/>
    <circle cx="2011.606" cy="50.846" r="5.25" fill="#e0e0e0"/>
    <circle cx="1988.595" cy="159.705" r="5.25" fill="#e0e0e0"/>
    <circle cx="2013.693" cy="209.187" r="5.25" fill="#e0e0e0"/>
    <circle cx="2012.815" cy="175.632" r="5.25" fill="#e0e0e0"/>
    <circle cx="2087.311" cy="68.927" r="5.25" fill="#e0e0e0"/>
    <circle cx="2014.222" cy="117.654" r="5.25" fill="#e0e0e0"/>
    <circle cx="2033.804" cy="69.317" r="5.25" fill="#e0e0e0"/>
    <circle cx="1982.055" cy="75.852" r="5.25" fill="#e0e0e0"/>
    <circle cx="2042.421" cy="26.765" r="5.25" fill="#e0e0e0"/>
    <circle cx="2000.762" cy="167.57" r="5.25" fill="#e0e0e0"/>
    <circle cx="2023.985" cy="198.995" r="5.25" fill="#e0e0e0"/>
    <circle cx="2019.825" cy="222.323" r="5.25" fill="#e0e0e0"/>
    <circle cx="2029.402" cy="97.901" r="5.25" fill="#e0e0e0"/>
    <circle cx="2076.091" cy="58.499" r="5.25" fill="#e0e0e0"/>
    <circle cx="1984.521" cy="61.17" r="5.25" fill="#e0e0e0"/>
    <circle cx="2028.027" cy="141.222" r="5.25" fill="#e0e0e0"/>
    <circle cx="2031.504" cy="83.566" r="5.25" fill="#e0e0e0"/>
    <circle cx="2019.871" cy="238.209" r="5.25" fill="#e0e0e0"/>
    <circle cx="2066.777" cy="106.269" r="5.25" fill="#e0e0e0"/>
    <circle cx="1991.014" cy="99.404" r="5.25" fill="#e0e0e0"/>
    <circle cx="2057.604" cy="21.69" r="5.25" fill="#e0e0e0"/>
    <circle cx="1986.954" cy="46.538" r="5.25" fill="#e0e0e0"/>
    <circle cx="2004.546" cy="94.216" r="5.25" fill="#e0e0e0"/>
    <circle cx="1976.934" cy="121.891" r="5.25" fill="#e0e0e0"/>
    <circle cx="2022.612" cy="60.188" r="5.25" fill="#e0e0e0"/>
    <circle cx="2040.975" cy="106.627" r="5.25" fill="#e0e0e0"/>
    <circle cx="2014.412" cy="132.149" r="5.25" fill="#e0e0e0"/>
    <circle cx="2015.921" cy="103.233" r="5.25" fill="#e0e0e0"/>
    <circle cx="2003.126" cy="27.23" r="5.25" fill="#e0e0e0"/>
    <circle cx="2027.161" cy="155.654" r="5.25" fill="#e0e0e0"/>
    <circle cx="1988.425" cy="130.728" r="5.25" fill="#e0e0e0"/>
    <circle cx="2053.889" cy="142.587" r="5.25" fill="#e0e0e0"/>
    <circle cx="2014.59" cy="146.647" r="5.25" fill="#e0e0e0"/>
    <circle cx="2073.314" cy="72.729" r="5.25" fill="#e0e0e0"/>
    <circle cx="2027.837" cy="126.764" r="5.25" fill="#e0e0e0"/>
    <circle cx="2052.877" cy="157.036" r="5.25" fill="#e0e0e0"/>
    <circle cx="2018.036" cy="88.89" r="5.25" fill="#e0e0e0"/>
    <circle cx="2000.562" cy="41.511" r="5.25" fill="#e0e0e0"/>
    <circle cx="2037.172" cy="192.972" r="5.25" fill="#e0e0e0"/>
    <circle cx="2021.775" cy="252.583" r="5.25" fill="#e0e0e0"/>
    <circle cx="2063.823" cy="179.654" r="5.25" fill="#e0e0e0"/>
    <circle cx="2040.364" cy="149.748" r="5.25" fill="#e0e0e0"/>
    <circle cx="2041.145" cy="120.92" r="5.25" fill="#e0e0e0"/>
    <circle cx="2035.181" cy="258.108" r="5.25" fill="#e0e0e0"/>
    <circle cx="2030.119" cy="212.111" r="5.25" fill="#e0e0e0"/>
    <circle cx="2053.858" cy="35.671" r="5.25" fill="#e0e0e0"/>
    <circle cx="2053.789" cy="128.086" r="5.25" fill="#e0e0e0"/>
    <circle cx="2039.429" cy="40.923" r="5.25" fill="#e0e0e0"/>
    <circle cx="2033.894" cy="226.108" r="5.25" fill="#e0e0e0"/>
    <circle cx="1995.55" cy="70.575" r="5.25" fill="#e0e0e0"/>
    <circle cx="2050.858" cy="49.823" r="5.25" fill="#e0e0e0"/>
    <circle cx="1999.818" cy="182.033" r="5.25" fill="#e0e0e0"/>
    <circle cx="2064.87" cy="165.159" r="5.25" fill="#e0e0e0"/>
    <circle cx="2039.381" cy="164.087" r="5.25" fill="#e0e0e0"/>
    <circle cx="2034.784" cy="406.718" r="5.25" fill="#e0e0e0"/>
    <circle cx="2050.762" cy="185.954" r="5.25" fill="#e0e0e0"/>
    <circle cx="1989.484" cy="32.155" r="5.25" fill="#e0e0e0"/>
    <circle cx="2046.952" cy="249.644" r="5.25" fill="#e0e0e0"/>
    <circle cx="2042.901" cy="92.467" r="5.25" fill="#e0e0e0"/>
    <circle cx="2066.306" cy="120.758" r="5.25" fill="#e0e0e0"/>
    <circle cx="2046.764" cy="282.412" r="5.25" fill="#e0e0e0"/>
    <circle cx="2066.387" cy="135.258" r="5.25" fill="#e0e0e0"/>
    <circle cx="2038.303" cy="178.554" r="5.25" fill="#e0e0e0"/>
    <circle cx="2026.191" cy="170.109" r="5.25" fill="#e0e0e0"/>
    <circle cx="2033.278" cy="243.733" r="5.25" fill="#e0e0e0"/>
    <circle cx="2045.141" cy="235.257" r="5.25" fill="#e0e0e0"/>
    <circle cx="2031.212" cy="17.589" r="5.25" fill="#e0e0e0"/>
    <circle cx="2090.066" cy="54.692" r="5.25" fill="#e0e0e0"/>
    <circle cx="2013.751" cy="161.155" r="5.25" fill="#e0e0e0"/>
  </g>
<style>
#g-big_stumps_bubble-full-interative-img rect, #g-big_stumps_bubble-full-interative-img circle, #g-big_stumps_bubble-full-interative-img path, #g-big_stumps_bubble-full-interative-img line, #g-big_stumps_bubble-full-interative-img polyline, #g-big_stumps_bubble-full-interative-img polygon { vector-effect: non-scaling-stroke; }
</style>
</svg>
