<?xml version="1.0" encoding="UTF-8"?>
<svg id="g-big_stumps_bubble-medium-interative-img" xmlns="http://www.w3.org/2000/svg" baseProfile="tiny" version="1.2" viewBox="0 0 490 214">
  <!-- Generator: Adobe Illustrator 29.3.1, SVG Export Plug-In . SVG Version: 2.1.0 Build 151)  -->
  <g id="recent-stump">
    <circle cx="-954.901" cy="105.961" r="5.25" fill="#0928ab"/>
    <circle cx="-612.106" cy="67.409" r="5.25" fill="#0928ab"/>
    <circle cx="-948.758" cy="40.631" r="5.25" fill="#0928ab"/>
    <circle cx="-873.903" cy="97.643" r="5.25" fill="#0928ab"/>
    <circle cx="-985.121" cy="65.046" r="5.25" fill="#0928ab"/>
    <circle cx="-931.25" cy="89.339" r="5.25" fill="#0928ab"/>
    <circle cx="-936.337" cy="32.714" r="5.25" fill="#0928ab"/>
    <circle cx="-979.889" cy="108.168" r="5.25" fill="#0928ab"/>
    <circle cx="-960.167" cy="62.844" r="5.25" fill="#0928ab"/>
    <circle cx="-857.12" cy="78.976" r="5.25" fill="#0928ab"/>
    <circle cx="-757.729" cy="65.411" r="5.25" fill="#0928ab"/>
    <circle cx="-545.771" cy="66.985" r="5.25" fill="#0928ab"/>
    <circle cx="-806.219" cy="69.542" r="5.25" fill="#0928ab"/>
    <circle cx="-929.856" cy="103.771" r="5.25" fill="#0928ab"/>
    <circle cx="-626.108" cy="71.178" r="5.25" fill="#0928ab"/>
    <circle cx="-862.94" cy="65.695" r="5.25" fill="#0928ab"/>
    <circle cx="-890.46" cy="74.654" r="5.25" fill="#0928ab"/>
    <circle cx="-941.749" cy="112.065" r="5.25" fill="#0928ab"/>
    <circle cx="-831.12" cy="66.294" r="5.25" fill="#0928ab"/>
    <circle cx="-757.61" cy="50.913" r="5.25" fill="#0928ab"/>
    <circle cx="-935.801" cy="47.186" r="5.25" fill="#0928ab"/>
    <circle cx="-969.342" cy="85.395" r="5.25" fill="#0928ab"/>
    <circle cx="-770.348" cy="72.556" r="5.25" fill="#0928ab"/>
    <circle cx="-552.767" cy="79.686" r="5.25" fill="#0928ab"/>
    <circle cx="-822.605" cy="105.402" r="5.25" fill="#0928ab"/>
    <circle cx="-929.875" cy="60.425" r="5.25" fill="#0928ab"/>
    <circle cx="-770.227" cy="58.057" r="5.25" fill="#0928ab"/>
    <circle cx="-947.946" cy="55.108" r="5.25" fill="#0928ab"/>
    <circle cx="-884.678" cy="87.951" r="5.25" fill="#0928ab"/>
    <circle cx="-973.278" cy="56.696" r="5.25" fill="#0928ab"/>
    <circle cx="-880.307" cy="30.889" r="5.25" fill="#0928ab"/>
    <circle cx="-898.364" cy="50.734" r="5.25" fill="#0928ab"/>
    <circle cx="-907.886" cy="39.799" r="5.25" fill="#0928ab"/>
    <circle cx="-817.731" cy="60.728" r="5.25" fill="#0928ab"/>
    <circle cx="-998.275" cy="58.952" r="5.25" fill="#0928ab"/>
    <circle cx="-757.851" cy="79.909" r="5.25" fill="#0928ab"/>
    <circle cx="58.903" cy="96.078" r="5.25" fill="#0928ab"/>
    <circle cx="322.681" cy="80.464" r="5.25" fill="#0928ab"/>
    <circle cx="91.62" cy="76.777" r="5.25" fill="#0928ab"/>
    <circle cx="148.76" cy="85.586" r="5.25" fill="#0928ab"/>
    <circle cx="100.463" cy="65.357" r="5.25" fill="#0928ab"/>
    <circle cx="124.436" cy="43.931" r="5.25" fill="#0928ab"/>
    <circle cx="135.124" cy="34.129" r="5.25" fill="#0928ab"/>
    <circle cx="92.389" cy="115.204" r="5.25" fill="#0928ab"/>
    <circle cx="82.443" cy="87.962" r="5.25" fill="#0928ab"/>
    <circle cx="159.926" cy="112.276" r="5.25" fill="#0928ab"/>
    <circle cx="227.229" cy="101.241" r="5.25" fill="#0928ab"/>
    <circle cx="368.679" cy="74.114" r="5.25" fill="#0928ab"/>
    <circle cx="209.809" cy="36.368" r="5.25" fill="#0928ab"/>
    <circle cx="85.309" cy="47.916" r="5.25" fill="#0928ab"/>
    <circle cx="326.45" cy="94.466" r="5.25" fill="#0928ab"/>
    <circle cx="174.425" cy="112.103" r="5.25" fill="#0928ab"/>
    <circle cx="178.939" cy="34.241" r="5.25" fill="#0928ab"/>
    <circle cx="73.09" cy="99.042" r="5.25" fill="#0928ab"/>
    <circle cx="221.064" cy="88.122" r="5.25" fill="#0928ab"/>
    <circle cx="249.884" cy="53.262" r="5.25" fill="#0928ab"/>
    <circle cx="99.498" cy="50.905" r="5.25" fill="#0928ab"/>
    <circle cx="101.785" cy="104.178" r="5.25" fill="#0928ab"/>
    <circle cx="242.584" cy="69.923" r="5.25" fill="#0928ab"/>
    <circle cx="361.684" cy="86.815" r="5.25" transform="translate(218.054 429.923) rotate(-80.783)" fill="#0928ab"/>
    <circle cx="232.992" cy="114.537" r="5.25" fill="#0928ab"/>
    <circle cx="119.945" cy="30.141" r="5.25" fill="#0928ab"/>
    <circle cx="235.89" cy="57.062" r="5.25" fill="#0928ab"/>
    <circle cx="110.989" cy="92.968" r="5.25" fill="#0928ab"/>
    <circle cx="149.965" cy="59.466" r="5.25" fill="#0928ab"/>
    <circle cx="116.276" cy="106.47" r="5.25" fill="#0928ab"/>
    <circle cx="149.95" cy="33.852" r="5.25" fill="#0928ab"/>
    <circle cx="171.928" cy="71.932" r="5.25" fill="#0928ab"/>
    <circle cx="164.442" cy="34.322" r="5.25" fill="#0928ab"/>
    <circle cx="207.999" cy="61.381" r="5.25" fill="#0928ab"/>
    <circle cx="114.707" cy="68.05" r="5.25" fill="#0928ab"/>
    <circle cx="256.577" cy="66.125" r="5.25" fill="#0928ab"/>
    <circle cx="952.506" cy="78.887" r="5.25" fill="#0928ab"/>
    <circle cx="991.059" cy="421.682" r="5.25" fill="#0928ab"/>
    <circle cx="1017.836" cy="85.031" r="5.25" fill="#0928ab"/>
    <circle cx="960.824" cy="159.885" r="5.25" fill="#0928ab"/>
    <circle cx="993.422" cy="48.667" r="5.25" fill="#0928ab"/>
    <circle cx="969.129" cy="102.538" r="5.25" fill="#0928ab"/>
    <circle cx="1025.754" cy="97.451" r="5.25" fill="#0928ab"/>
    <circle cx="950.299" cy="53.899" r="5.25" fill="#0928ab"/>
    <circle cx="995.624" cy="73.622" r="5.25" fill="#0928ab"/>
    <circle cx="979.492" cy="176.668" r="5.25" fill="#0928ab"/>
    <circle cx="993.056" cy="276.059" r="5.25" fill="#0928ab"/>
    <circle cx="991.483" cy="488.017" r="5.25" fill="#0928ab"/>
    <circle cx="988.926" cy="227.569" r="5.25" fill="#0928ab"/>
    <circle cx="954.696" cy="103.933" r="5.25" fill="#0928ab"/>
    <circle cx="987.29" cy="407.68" r="5.25" fill="#0928ab"/>
    <circle cx="992.772" cy="170.848" r="5.25" fill="#0928ab"/>
    <circle cx="983.814" cy="143.329" r="5.25" fill="#0928ab"/>
    <circle cx="946.402" cy="92.039" r="5.25" fill="#0928ab"/>
    <circle cx="992.173" cy="202.669" r="5.25" fill="#0928ab"/>
    <circle cx="1007.554" cy="276.178" r="5.25" fill="#0928ab"/>
    <circle cx="1011.282" cy="97.987" r="5.25" fill="#0928ab"/>
    <circle cx="973.073" cy="64.446" r="5.25" fill="#0928ab"/>
    <circle cx="985.911" cy="263.44" r="5.25" fill="#0928ab"/>
    <circle cx="978.782" cy="481.022" r="5.25" fill="#0928ab"/>
    <circle cx="953.066" cy="211.183" r="5.25" fill="#0928ab"/>
    <circle cx="998.043" cy="103.913" r="5.25" fill="#0928ab"/>
    <circle cx="1000.41" cy="263.561" r="5.25" fill="#0928ab"/>
    <circle cx="1003.36" cy="85.842" r="5.25" fill="#0928ab"/>
    <circle cx="970.516" cy="149.11" r="5.25" fill="#0928ab"/>
    <circle cx="1001.771" cy="60.511" r="5.25" fill="#0928ab"/>
    <circle cx="1027.579" cy="153.481" r="5.25" fill="#0928ab"/>
    <circle cx="1007.733" cy="135.425" r="5.25" fill="#0928ab"/>
    <circle cx="1018.669" cy="125.902" r="5.25" fill="#0928ab"/>
    <circle cx="997.74" cy="216.058" r="5.25" fill="#0928ab"/>
    <circle cx="999.516" cy="35.513" r="5.25" fill="#0928ab"/>
    <circle cx="978.558" cy="275.937" r="5.25" fill="#0928ab"/>
  </g>
  <g id="old">
    <circle cx="-901.49" cy="106.593" r="5.25" fill="#e0e0e0"/>
    <circle cx="-987.305" cy="36.128" r="5.25" fill="#e0e0e0"/>
    <circle cx="-991.714" cy="116.537" r="5.25" fill="#e0e0e0"/>
    <circle cx="-1007.487" cy="96.194" r="5.25" fill="#e0e0e0"/>
    <circle cx="-1008.815" cy="81.75" r="5.25" fill="#e0e0e0"/>
    <circle cx="-983.819" cy="79.486" r="5.25" fill="#e0e0e0"/>
    <circle cx="-404.806" cy="75.357" r="5.25" fill="#e0e0e0"/>
    <circle cx="-757.972" cy="94.408" r="5.25" fill="#e0e0e0"/>
    <circle cx="-890.716" cy="116.297" r="5.25" fill="#e0e0e0"/>
    <circle cx="-1010.125" cy="67.309" r="5.25" fill="#e0e0e0"/>
    <circle cx="-912.258" cy="96.884" r="5.25" fill="#e0e0e0"/>
    <circle cx="-953.607" cy="120.4" r="5.25" fill="#e0e0e0"/>
    <circle cx="-840.754" cy="43.102" r="5.25" fill="#e0e0e0"/>
    <circle cx="-792.831" cy="63.977" r="5.25" fill="#e0e0e0"/>
    <circle cx="-876.704" cy="70.188" r="5.25" fill="#e0e0e0"/>
    <circle cx="-901.41" cy="64.899" r="5.25" fill="#e0e0e0"/>
    <circle cx="-1004.872" cy="110.455" r="5.25" fill="#e0e0e0"/>
    <circle cx="-844.505" cy="71.854" r="5.25" fill="#e0e0e0"/>
    <circle cx="-732.738" cy="80.115" r="5.25" fill="#e0e0e0"/>
    <circle cx="-904.22" cy="79.108" r="5.25" fill="#e0e0e0"/>
    <circle cx="-995.658" cy="87.828" r="5.25" fill="#e0e0e0"/>
    <circle cx="-860.116" cy="93.163" r="5.25" fill="#e0e0e0"/>
    <circle cx="-993.044" cy="102.087" r="5.25" fill="#e0e0e0"/>
    <circle cx="-957.496" cy="77.054" r="5.25" fill="#e0e0e0"/>
    <circle cx="-921.654" cy="44.226" r="5.25" fill="#e0e0e0"/>
    <circle cx="-845.627" cy="87.785" r="5.25" fill="#e0e0e0"/>
    <circle cx="-745.112" cy="58.265" r="5.25" fill="#e0e0e0"/>
    <circle cx="-745.355" cy="87.263" r="5.25" fill="#e0e0e0"/>
    <circle cx="-956.193" cy="91.474" r="5.25" fill="#e0e0e0"/>
    <circle cx="-943.083" cy="97.632" r="5.25" fill="#e0e0e0"/>
    <circle cx="-974.155" cy="42.23" r="5.25" fill="#e0e0e0"/>
    <circle cx="-915.212" cy="69.344" r="5.25" fill="#e0e0e0"/>
    <circle cx="-898.471" cy="92.415" r="5.25" fill="#e0e0e0"/>
    <circle cx="-678.067" cy="87.629" r="5.25" fill="#e0e0e0"/>
    <circle cx="-1011.428" cy="52.867" r="5.25" fill="#e0e0e0"/>
    <circle cx="-887.698" cy="102.123" r="5.25" fill="#e0e0e0"/>
    <circle cx="-978.581" cy="122.679" r="5.25" fill="#e0e0e0"/>
    <circle cx="-968.03" cy="99.823" r="5.25" fill="#e0e0e0"/>
    <circle cx="-949.262" cy="26.149" r="5.25" fill="#e0e0e0"/>
    <circle cx="-870.898" cy="83.461" r="5.25" fill="#e0e0e0"/>
    <circle cx="-961.589" cy="33.89" r="5.25" fill="#e0e0e0"/>
    <circle cx="-887.609" cy="60.452" r="5.25" fill="#e0e0e0"/>
    <circle cx="-884.578" cy="46.283" r="5.25" fill="#e0e0e0"/>
    <circle cx="-996.968" cy="73.397" r="5.25" fill="#e0e0e0"/>
    <circle cx="-942.955" cy="68.709" r="5.25" fill="#e0e0e0"/>
    <circle cx="-815.855" cy="46.349" r="5.25" fill="#e0e0e0"/>
    <circle cx="-917.961" cy="83.555" r="5.25" fill="#e0e0e0"/>
    <circle cx="-870.795" cy="41.816" r="5.25" fill="#e0e0e0"/>
    <circle cx="-873.815" cy="55.995" r="5.25" fill="#e0e0e0"/>
    <circle cx="-961.019" cy="48.363" r="5.25" fill="#e0e0e0"/>
    <circle cx="-912.168" cy="55.177" r="5.25" fill="#e0e0e0"/>
    <circle cx="-794.708" cy="78.353" r="5.25" fill="#e0e0e0"/>
    <circle cx="-944.353" cy="83.132" r="5.25" fill="#e0e0e0"/>
    <circle cx="-981.197" cy="93.734" r="5.25" fill="#e0e0e0"/>
    <circle cx="-832.999" cy="80.67" r="5.25" fill="#e0e0e0"/>
    <circle cx="-691.135" cy="66.18" r="5.25" fill="#e0e0e0"/>
    <circle cx="-821.486" cy="89.483" r="5.25" fill="#e0e0e0"/>
    <circle cx="-804.343" cy="55.164" r="5.25" fill="#e0e0e0"/>
    <circle cx="-876.922" cy="111.825" r="5.25" fill="#e0e0e0"/>
    <circle cx="-678.409" cy="73.133" r="5.25" fill="#e0e0e0"/>
    <circle cx="-745.233" cy="72.764" r="5.25" fill="#e0e0e0"/>
    <circle cx="-962.096" cy="19.407" r="5.25" fill="#e0e0e0"/>
    <circle cx="-860.012" cy="51.504" r="5.25" fill="#e0e0e0"/>
    <circle cx="-999.576" cy="44.511" r="5.25" fill="#e0e0e0"/>
    <circle cx="-770.469" cy="87.055" r="5.25" fill="#e0e0e0"/>
    <circle cx="-986.422" cy="50.599" r="5.25" fill="#e0e0e0"/>
    <circle cx="-966.757" cy="114.302" r="5.25" fill="#e0e0e0"/>
    <circle cx="-809.971" cy="98.296" r="5.25" fill="#e0e0e0"/>
    <circle cx="-808.095" cy="83.92" r="5.25" fill="#e0e0e0"/>
    <circle cx="-819.608" cy="75.11" r="5.25" fill="#e0e0e0"/>
    <circle cx="-418.731" cy="71.314" r="5.25" fill="#e0e0e0"/>
    <circle cx="-834.121" cy="96.591" r="5.25" fill="#e0e0e0"/>
    <circle cx="-974.719" cy="27.747" r="5.25" fill="#e0e0e0"/>
    <circle cx="-678.751" cy="58.638" r="5.25" fill="#e0e0e0"/>
    <circle cx="-929.855" cy="74.917" r="5.25" fill="#e0e0e0"/>
    <circle cx="-894.092" cy="35.347" r="5.25" fill="#e0e0e0"/>
    <circle cx="-615.843" cy="81.42" r="5.25" fill="#e0e0e0"/>
    <circle cx="-857.006" cy="37.329" r="5.25" fill="#e0e0e0"/>
    <circle cx="-842.633" cy="57.479" r="5.25" fill="#e0e0e0"/>
    <circle cx="-796.583" cy="92.73" r="5.25" fill="#e0e0e0"/>
    <circle cx="-690.791" cy="80.677" r="5.25" fill="#e0e0e0"/>
    <circle cx="-703.516" cy="73.725" r="5.25" fill="#e0e0e0"/>
    <circle cx="-971.999" cy="71.159" r="5.25" fill="#e0e0e0"/>
    <circle cx="-928.616" cy="118.214" r="5.25" fill="#e0e0e0"/>
    <circle cx="-829.243" cy="51.914" r="5.25" fill="#e0e0e0"/>
    <circle cx="121.586" cy="119.947" r="5.25" fill="#e0e0e0"/>
    <circle cx="150.252" cy="124.302" r="5.25" fill="#e0e0e0"/>
    <circle cx="68.265" cy="85.019" r="5.25" fill="#e0e0e0"/>
    <circle cx="71.127" cy="44.916" r="5.25" fill="#e0e0e0"/>
    <circle cx="80.82" cy="34.136" r="5.25" fill="#e0e0e0"/>
    <circle cx="126.657" cy="133.525" r="5.25" fill="#e0e0e0"/>
    <circle cx="457.144" cy="82.486" r="5.25" fill="#e0e0e0"/>
    <circle cx="257.522" cy="107.894" r="5.25" fill="#e0e0e0"/>
    <circle cx="145.477" cy="110.618" r="5.25" fill="#e0e0e0"/>
    <circle cx="113.72" cy="53.658" r="5.25" fill="#e0e0e0"/>
    <circle cx="132.094" cy="56.219" r="5.25" fill="#e0e0e0"/>
    <circle cx="49.277" cy="67.059" r="5.25" fill="#e0e0e0"/>
    <circle cx="189.598" cy="111.614" r="5.25" fill="#e0e0e0"/>
    <circle cx="195.228" cy="35.37" r="5.25" fill="#e0e0e0"/>
    <circle cx="181.719" cy="124.622" r="5.25" fill="#e0e0e0"/>
    <circle cx="186.26" cy="46.754" r="5.25" fill="#e0e0e0"/>
    <circle cx="87.347" cy="101.622" r="5.25" fill="#e0e0e0"/>
    <circle cx="196.206" cy="124.633" r="5.25" fill="#e0e0e0"/>
    <circle cx="245.687" cy="99.535" r="5.25" fill="#e0e0e0"/>
    <circle cx="212.132" cy="100.413" r="5.25" fill="#e0e0e0"/>
    <circle cx="105.428" cy="25.917" r="5.25" fill="#e0e0e0"/>
    <circle cx="154.154" cy="99.006" r="5.25" fill="#e0e0e0"/>
    <circle cx="105.817" cy="79.424" r="5.25" fill="#e0e0e0"/>
    <circle cx="112.352" cy="131.173" r="5.25" fill="#e0e0e0"/>
    <circle cx="63.265" cy="70.807" r="5.25" fill="#e0e0e0"/>
    <circle cx="204.071" cy="112.466" r="5.25" fill="#e0e0e0"/>
    <circle cx="235.496" cy="89.243" r="5.25" fill="#e0e0e0"/>
    <circle cx="258.823" cy="93.403" r="5.25" fill="#e0e0e0"/>
    <circle cx="134.401" cy="83.826" r="5.25" fill="#e0e0e0"/>
    <circle cx="94.999" cy="37.137" r="5.25" fill="#e0e0e0"/>
    <circle cx="97.671" cy="128.707" r="5.25" fill="#e0e0e0"/>
    <circle cx="177.723" cy="85.201" r="5.25" fill="#e0e0e0"/>
    <circle cx="120.066" cy="81.724" r="5.25" fill="#e0e0e0"/>
    <circle cx="274.71" cy="93.357" r="5.25" fill="#e0e0e0"/>
    <circle cx="142.769" cy="46.451" r="5.25" fill="#e0e0e0"/>
    <circle cx="135.905" cy="122.214" r="5.25" fill="#e0e0e0"/>
    <circle cx="58.191" cy="55.624" r="5.25" fill="#e0e0e0"/>
    <circle cx="83.039" cy="126.274" r="5.25" fill="#e0e0e0"/>
    <circle cx="130.717" cy="108.682" r="5.25" fill="#e0e0e0"/>
    <circle cx="158.391" cy="136.294" r="5.25" fill="#e0e0e0"/>
    <circle cx="96.688" cy="90.616" r="5.25" fill="#e0e0e0"/>
    <circle cx="143.128" cy="72.253" r="5.25" fill="#e0e0e0"/>
    <circle cx="168.649" cy="98.816" r="5.25" fill="#e0e0e0"/>
    <circle cx="139.733" cy="97.307" r="5.25" fill="#e0e0e0"/>
    <circle cx="63.731" cy="110.102" r="5.25" fill="#e0e0e0"/>
    <circle cx="192.154" cy="86.067" r="5.25" fill="#e0e0e0"/>
    <circle cx="167.229" cy="124.803" r="5.25" fill="#e0e0e0"/>
    <circle cx="179.087" cy="59.339" r="5.25" fill="#e0e0e0"/>
    <circle cx="183.147" cy="98.638" r="5.25" fill="#e0e0e0"/>
    <circle cx="109.23" cy="39.914" r="5.25" fill="#e0e0e0"/>
    <circle cx="163.264" cy="85.391" r="5.25" fill="#e0e0e0"/>
    <circle cx="193.537" cy="60.351" r="5.25" fill="#e0e0e0"/>
    <circle cx="125.39" cy="95.192" r="5.25" fill="#e0e0e0"/>
    <circle cx="78.011" cy="112.666" r="5.25" fill="#e0e0e0"/>
    <circle cx="229.472" cy="76.056" r="5.25" fill="#e0e0e0"/>
    <circle cx="289.084" cy="91.453" r="5.25" fill="#e0e0e0"/>
    <circle cx="216.154" cy="49.405" r="5.25" fill="#e0e0e0"/>
    <circle cx="186.249" cy="72.864" r="5.25" fill="#e0e0e0"/>
    <circle cx="157.421" cy="72.083" r="5.25" fill="#e0e0e0"/>
    <circle cx="294.609" cy="78.047" r="5.25" fill="#e0e0e0"/>
    <circle cx="248.611" cy="83.109" r="5.25" fill="#e0e0e0"/>
    <circle cx="72.172" cy="59.37" r="5.25" fill="#e0e0e0"/>
    <circle cx="164.586" cy="59.439" r="5.25" fill="#e0e0e0"/>
    <circle cx="77.424" cy="73.799" r="5.25" fill="#e0e0e0"/>
    <circle cx="262.609" cy="79.334" r="5.25" fill="#e0e0e0"/>
    <circle cx="107.075" cy="117.678" r="5.25" fill="#e0e0e0"/>
    <circle cx="86.324" cy="62.37" r="5.25" fill="#e0e0e0"/>
    <circle cx="218.533" cy="113.41" r="5.25" fill="#e0e0e0"/>
    <circle cx="201.659" cy="48.358" r="5.25" fill="#e0e0e0"/>
    <circle cx="200.588" cy="73.847" r="5.25" fill="#e0e0e0"/>
    <circle cx="443.219" cy="78.444" r="5.25" fill="#e0e0e0"/>
    <circle cx="222.455" cy="62.466" r="5.25" fill="#e0e0e0"/>
    <circle cx="68.655" cy="123.744" r="5.25" fill="#e0e0e0"/>
    <circle cx="286.144" cy="66.276" r="5.25" fill="#e0e0e0"/>
    <circle cx="128.967" cy="70.327" r="5.25" fill="#e0e0e0"/>
    <circle cx="157.259" cy="46.922" r="5.25" fill="#e0e0e0"/>
    <circle cx="318.913" cy="66.464" r="5.25" fill="#e0e0e0"/>
    <circle cx="171.759" cy="46.841" r="5.25" fill="#e0e0e0"/>
    <circle cx="215.055" cy="74.925" r="5.25" fill="#e0e0e0"/>
    <circle cx="206.609" cy="87.037" r="5.25" fill="#e0e0e0"/>
    <circle cx="280.234" cy="79.95" r="5.25" fill="#e0e0e0"/>
    <circle cx="271.758" cy="68.087" r="5.25" fill="#e0e0e0"/>
    <circle cx="54.09" cy="82.016" r="5.25" fill="#e0e0e0"/>
    <circle cx="91.192" cy="23.162" r="5.25" fill="#e0e0e0"/>
    <circle cx="197.656" cy="99.477" r="5.25" fill="#e0e0e0"/>
    <circle cx="951.875" cy="132.298" r="5.25" fill="#e0e0e0"/>
    <circle cx="1022.339" cy="46.483" r="5.25" fill="#e0e0e0"/>
    <circle cx="941.931" cy="42.075" r="5.25" fill="#e0e0e0"/>
    <circle cx="962.274" cy="26.301" r="5.25" fill="#e0e0e0"/>
    <circle cx="976.717" cy="24.973" r="5.25" fill="#e0e0e0"/>
    <circle cx="978.981" cy="49.969" r="5.25" fill="#e0e0e0"/>
    <circle cx="983.111" cy="628.982" r="5.25" fill="#e0e0e0"/>
    <circle cx="964.06" cy="275.816" r="5.25" fill="#e0e0e0"/>
    <circle cx="942.17" cy="143.072" r="5.25" fill="#e0e0e0"/>
    <circle cx="991.159" cy="23.663" r="5.25" fill="#e0e0e0"/>
    <circle cx="961.584" cy="121.53" r="5.25" fill="#e0e0e0"/>
    <circle cx="938.067" cy="80.182" r="5.25" fill="#e0e0e0"/>
    <circle cx="1015.365" cy="193.034" r="5.25" fill="#e0e0e0"/>
    <circle cx="994.491" cy="240.957" r="5.25" fill="#e0e0e0"/>
    <circle cx="988.279" cy="157.084" r="5.25" fill="#e0e0e0"/>
    <circle cx="993.569" cy="132.378" r="5.25" fill="#e0e0e0"/>
    <circle cx="948.012" cy="28.916" r="5.25" fill="#e0e0e0"/>
    <circle cx="986.614" cy="189.283" r="5.25" fill="#e0e0e0"/>
    <circle cx="978.352" cy="301.05" r="5.25" fill="#e0e0e0"/>
    <circle cx="979.359" cy="129.568" r="5.25" fill="#e0e0e0"/>
    <circle cx="970.64" cy="38.13" r="5.25" fill="#e0e0e0"/>
    <circle cx="965.304" cy="173.672" r="5.25" fill="#e0e0e0"/>
    <circle cx="956.38" cy="40.744" r="5.25" fill="#e0e0e0"/>
    <circle cx="981.414" cy="76.292" r="5.25" fill="#e0e0e0"/>
    <circle cx="1014.241" cy="112.134" r="5.25" fill="#e0e0e0"/>
    <circle cx="970.683" cy="188.161" r="5.25" fill="#e0e0e0"/>
    <circle cx="1000.202" cy="288.676" r="5.25" fill="#e0e0e0"/>
    <circle cx="971.205" cy="288.433" r="5.25" fill="#e0e0e0"/>
    <circle cx="966.993" cy="77.595" r="5.25" fill="#e0e0e0"/>
    <circle cx="960.836" cy="90.706" r="5.25" fill="#e0e0e0"/>
    <circle cx="1016.237" cy="59.633" r="5.25" fill="#e0e0e0"/>
    <circle cx="989.123" cy="118.576" r="5.25" fill="#e0e0e0"/>
    <circle cx="966.053" cy="135.317" r="5.25" fill="#e0e0e0"/>
    <circle cx="970.839" cy="355.721" r="5.25" fill="#e0e0e0"/>
    <circle cx="1005.601" cy="22.36" r="5.25" fill="#e0e0e0"/>
    <circle cx="956.344" cy="146.09" r="5.25" fill="#e0e0e0"/>
    <circle cx="935.789" cy="55.207" r="5.25" fill="#e0e0e0"/>
    <circle cx="958.645" cy="65.758" r="5.25" fill="#e0e0e0"/>
    <circle cx="1032.319" cy="84.526" r="5.25" fill="#e0e0e0"/>
    <circle cx="975.007" cy="162.89" r="5.25" fill="#e0e0e0"/>
    <circle cx="1024.578" cy="72.199" r="5.25" fill="#e0e0e0"/>
    <circle cx="998.016" cy="146.179" r="5.25" fill="#e0e0e0"/>
    <circle cx="1012.185" cy="149.21" r="5.25" fill="#e0e0e0"/>
    <circle cx="985.071" cy="36.821" r="5.25" fill="#e0e0e0"/>
    <circle cx="989.759" cy="90.833" r="5.25" fill="#e0e0e0"/>
    <circle cx="1012.118" cy="217.933" r="5.25" fill="#e0e0e0"/>
    <circle cx="974.912" cy="115.828" r="5.25" fill="#e0e0e0"/>
    <circle cx="1016.651" cy="162.994" r="5.25" fill="#e0e0e0"/>
    <circle cx="1002.472" cy="159.973" r="5.25" fill="#e0e0e0"/>
    <circle cx="1010.105" cy="72.769" r="5.25" fill="#e0e0e0"/>
    <circle cx="1003.29" cy="121.62" r="5.25" fill="#e0e0e0"/>
    <circle cx="980.115" cy="239.08" r="5.25" fill="#e0e0e0"/>
    <circle cx="975.336" cy="89.436" r="5.25" fill="#e0e0e0"/>
    <circle cx="964.734" cy="52.591" r="5.25" fill="#e0e0e0"/>
    <circle cx="977.798" cy="200.789" r="5.25" fill="#e0e0e0"/>
    <circle cx="992.287" cy="342.654" r="5.25" fill="#e0e0e0"/>
    <circle cx="968.985" cy="212.303" r="5.25" fill="#e0e0e0"/>
    <circle cx="1003.303" cy="229.445" r="5.25" fill="#e0e0e0"/>
    <circle cx="946.643" cy="156.867" r="5.25" fill="#e0e0e0"/>
    <circle cx="985.334" cy="355.379" r="5.25" fill="#e0e0e0"/>
    <circle cx="985.704" cy="288.555" r="5.25" fill="#e0e0e0"/>
    <circle cx="1039.061" cy="71.692" r="5.25" fill="#e0e0e0"/>
    <circle cx="1006.963" cy="173.777" r="5.25" fill="#e0e0e0"/>
    <circle cx="1013.956" cy="34.212" r="5.25" fill="#e0e0e0"/>
    <circle cx="971.413" cy="263.32" r="5.25" fill="#e0e0e0"/>
    <circle cx="1007.869" cy="47.366" r="5.25" fill="#e0e0e0"/>
    <circle cx="944.165" cy="67.031" r="5.25" fill="#e0e0e0"/>
    <circle cx="960.172" cy="223.817" r="5.25" fill="#e0e0e0"/>
    <circle cx="974.547" cy="225.693" r="5.25" fill="#e0e0e0"/>
    <circle cx="983.358" cy="214.18" r="5.25" fill="#e0e0e0"/>
    <circle cx="987.153" cy="615.057" r="5.25" fill="#e0e0e0"/>
    <circle cx="961.877" cy="199.668" r="5.25" fill="#e0e0e0"/>
    <circle cx="1030.72" cy="59.069" r="5.25" fill="#e0e0e0"/>
    <circle cx="999.83" cy="355.037" r="5.25" fill="#e0e0e0"/>
    <circle cx="983.551" cy="103.933" r="5.25" fill="#e0e0e0"/>
    <circle cx="1023.121" cy="139.696" r="5.25" fill="#e0e0e0"/>
    <circle cx="977.048" cy="417.945" r="5.25" fill="#e0e0e0"/>
    <circle cx="1021.138" cy="176.782" r="5.25" fill="#e0e0e0"/>
    <circle cx="1000.989" cy="191.156" r="5.25" fill="#e0e0e0"/>
    <circle cx="965.737" cy="237.205" r="5.25" fill="#e0e0e0"/>
    <circle cx="977.791" cy="342.997" r="5.25" fill="#e0e0e0"/>
    <circle cx="984.742" cy="330.272" r="5.25" fill="#e0e0e0"/>
    <circle cx="987.309" cy="61.789" r="5.25" fill="#e0e0e0"/>
    <circle cx="940.254" cy="105.172" r="5.25" fill="#e0e0e0"/>
    <circle cx="1006.554" cy="204.545" r="5.25" fill="#e0e0e0"/>
  </g>
<style>
#g-big_stumps_bubble-medium-interative-img rect, #g-big_stumps_bubble-medium-interative-img circle, #g-big_stumps_bubble-medium-interative-img path, #g-big_stumps_bubble-medium-interative-img line, #g-big_stumps_bubble-medium-interative-img polyline, #g-big_stumps_bubble-medium-interative-img polygon { vector-effect: non-scaling-stroke; }
</style>
</svg>
