<?xml version="1.0" encoding="UTF-8"?>
<svg id="g-big_stumps_bubble-medium-interative-img" xmlns="http://www.w3.org/2000/svg" baseProfile="tiny" version="1.2" viewBox="0 0 490 214">
  <!-- Generator: Adobe Illustrator 29.3.1, SVG Export Plug-In . SVG Version: 2.1.0 Build 151)  -->
  <g>
    <circle cx="-954.901" cy="105.961" r="5.25" fill="#0928ab"/>
    <circle cx="-612.106" cy="67.409" r="5.25" fill="#0928ab"/>
    <circle cx="-948.758" cy="40.631" r="5.25" fill="#0928ab"/>
    <circle cx="-873.903" cy="97.643" r="5.25" fill="#0928ab"/>
    <circle cx="-985.121" cy="65.046" r="5.25" fill="#0928ab"/>
    <circle cx="-931.25" cy="89.339" r="5.25" fill="#0928ab"/>
    <circle cx="-936.337" cy="32.714" r="5.25" fill="#0928ab"/>
    <circle cx="-979.889" cy="108.168" r="5.25" fill="#0928ab"/>
    <circle cx="-960.167" cy="62.844" r="5.25" fill="#0928ab"/>
    <circle cx="-857.12" cy="78.976" r="5.25" fill="#0928ab"/>
    <circle cx="-757.729" cy="65.411" r="5.25" fill="#0928ab"/>
    <circle cx="-545.771" cy="66.985" r="5.25" fill="#0928ab"/>
    <circle cx="-806.219" cy="69.542" r="5.25" fill="#0928ab"/>
    <circle cx="-929.856" cy="103.771" r="5.25" fill="#0928ab"/>
    <circle cx="-626.108" cy="71.178" r="5.25" fill="#0928ab"/>
    <circle cx="-862.94" cy="65.695" r="5.25" fill="#0928ab"/>
    <circle cx="-890.46" cy="74.654" r="5.25" fill="#0928ab"/>
    <circle cx="-941.749" cy="112.065" r="5.25" fill="#0928ab"/>
    <circle cx="-831.12" cy="66.294" r="5.25" fill="#0928ab"/>
    <circle cx="-757.61" cy="50.913" r="5.25" fill="#0928ab"/>
    <circle cx="-935.801" cy="47.186" r="5.25" fill="#0928ab"/>
    <circle cx="-969.342" cy="85.395" r="5.25" fill="#0928ab"/>
    <circle cx="-770.348" cy="72.556" r="5.25" fill="#0928ab"/>
    <circle cx="-552.767" cy="79.686" r="5.25" fill="#0928ab"/>
    <circle cx="-822.605" cy="105.402" r="5.25" fill="#0928ab"/>
    <circle cx="-929.875" cy="60.425" r="5.25" fill="#0928ab"/>
    <circle cx="-770.227" cy="58.057" r="5.25" fill="#0928ab"/>
    <circle cx="-947.946" cy="55.108" r="5.25" fill="#0928ab"/>
    <circle cx="-884.678" cy="87.951" r="5.25" fill="#0928ab"/>
    <circle cx="-973.278" cy="56.696" r="5.25" fill="#0928ab"/>
    <circle cx="-880.307" cy="30.889" r="5.25" fill="#0928ab"/>
    <circle cx="-898.364" cy="50.734" r="5.25" fill="#0928ab"/>
    <circle cx="-907.886" cy="39.799" r="5.25" fill="#0928ab"/>
    <circle cx="-817.731" cy="60.728" r="5.25" fill="#0928ab"/>
    <circle cx="-998.275" cy="58.952" r="5.25" fill="#0928ab"/>
    <circle cx="-757.851" cy="79.909" r="5.25" fill="#0928ab"/>
    <circle cx="58.903" cy="96.078" r="5.25" fill="#0928ab"/>
    <circle cx="322.681" cy="80.464" r="5.25" fill="#0928ab"/>
    <circle cx="91.62" cy="76.777" r="5.25" fill="#0928ab"/>
    <circle cx="148.76" cy="85.586" r="5.25" fill="#0928ab"/>
    <circle cx="100.463" cy="65.357" r="5.25" fill="#0928ab"/>
    <circle cx="124.436" cy="43.931" r="5.25" fill="#0928ab"/>
    <circle cx="135.124" cy="34.129" r="5.25" fill="#0928ab"/>
    <circle cx="92.389" cy="115.204" r="5.25" fill="#0928ab"/>
    <circle cx="82.443" cy="87.962" r="5.25" fill="#0928ab"/>
    <circle cx="159.926" cy="112.276" r="5.25" fill="#0928ab"/>
    <circle cx="227.229" cy="101.241" r="5.25" fill="#0928ab"/>
    <circle cx="368.679" cy="74.114" r="5.25" fill="#0928ab"/>
    <circle cx="209.809" cy="36.368" r="5.25" fill="#0928ab"/>
    <circle cx="85.309" cy="47.916" r="5.25" fill="#0928ab"/>
    <circle cx="326.45" cy="94.466" r="5.25" fill="#0928ab"/>
    <circle cx="174.425" cy="112.103" r="5.25" fill="#0928ab"/>
    <circle cx="178.939" cy="34.241" r="5.25" fill="#0928ab"/>
    <circle cx="73.09" cy="99.042" r="5.25" fill="#0928ab"/>
    <circle cx="221.064" cy="88.122" r="5.25" fill="#0928ab"/>
    <circle cx="249.884" cy="53.262" r="5.25" fill="#0928ab"/>
    <circle cx="99.498" cy="50.905" r="5.25" fill="#0928ab"/>
    <circle cx="101.785" cy="104.178" r="5.25" fill="#0928ab"/>
    <circle cx="242.584" cy="69.923" r="5.25" fill="#0928ab"/>
    <circle cx="361.684" cy="86.815" r="5.25" transform="translate(218.054 429.923) rotate(-80.783)" fill="#0928ab"/>
    <circle cx="232.992" cy="114.537" r="5.25" fill="#0928ab"/>
    <circle cx="119.945" cy="30.141" r="5.25" fill="#0928ab"/>
    <circle cx="235.89" cy="57.062" r="5.25" fill="#0928ab"/>
    <circle cx="110.989" cy="92.968" r="5.25" fill="#0928ab"/>
    <circle cx="149.965" cy="59.466" r="5.25" fill="#0928ab"/>
    <circle cx="116.276" cy="106.47" r="5.25" fill="#0928ab"/>
    <circle cx="149.95" cy="33.852" r="5.25" fill="#0928ab"/>
    <circle cx="171.928" cy="71.932" r="5.25" fill="#0928ab"/>
    <circle cx="164.442" cy="34.322" r="5.25" fill="#0928ab"/>
    <circle cx="207.999" cy="61.381" r="5.25" fill="#0928ab"/>
    <circle cx="114.707" cy="68.05" r="5.25" fill="#0928ab"/>
    <circle cx="256.577" cy="66.125" r="5.25" fill="#0928ab"/>
    <circle cx="959.65" cy="22.902" r="5.25" fill="#0928ab"/>
    <circle cx="975.264" cy="286.681" r="5.25" fill="#0928ab"/>
    <circle cx="978.951" cy="55.619" r="5.25" fill="#0928ab"/>
    <circle cx="970.142" cy="112.759" r="5.25" fill="#0928ab"/>
    <circle cx="990.371" cy="64.462" r="5.25" fill="#0928ab"/>
    <circle cx="1011.797" cy="88.436" r="5.25" fill="#0928ab"/>
    <circle cx="1021.599" cy="99.124" r="5.25" fill="#0928ab"/>
    <circle cx="940.524" cy="56.389" r="5.25" fill="#0928ab"/>
    <circle cx="967.766" cy="46.442" r="5.25" fill="#0928ab"/>
    <circle cx="943.452" cy="123.925" r="5.25" fill="#0928ab"/>
    <circle cx="954.487" cy="191.228" r="5.25" fill="#0928ab"/>
    <circle cx="981.614" cy="332.679" r="5.25" fill="#0928ab"/>
    <circle cx="1019.36" cy="173.808" r="5.25" fill="#0928ab"/>
    <circle cx="1007.812" cy="49.309" r="5.25" fill="#0928ab"/>
    <circle cx="961.262" cy="290.449" r="5.25" fill="#0928ab"/>
    <circle cx="943.625" cy="138.424" r="5.25" fill="#0928ab"/>
    <circle cx="1021.487" cy="142.938" r="5.25" fill="#0928ab"/>
    <circle cx="956.686" cy="37.089" r="5.25" fill="#0928ab"/>
    <circle cx="967.606" cy="185.064" r="5.25" fill="#0928ab"/>
    <circle cx="1002.466" cy="213.883" r="5.25" fill="#0928ab"/>
    <circle cx="1004.823" cy="63.497" r="5.25" fill="#0928ab"/>
    <circle cx="951.551" cy="65.784" r="5.25" fill="#0928ab"/>
    <circle cx="985.805" cy="206.584" r="5.25" fill="#0928ab"/>
    <circle cx="968.913" cy="325.683" r="5.25" transform="translate(492.232 1229.916) rotate(-80.783)" fill="#0928ab"/>
    <circle cx="941.191" cy="196.991" r="5.25" fill="#0928ab"/>
    <circle cx="1025.587" cy="83.945" r="5.25" fill="#0928ab"/>
    <circle cx="998.666" cy="199.89" r="5.25" fill="#0928ab"/>
    <circle cx="962.76" cy="74.989" r="5.25" fill="#0928ab"/>
    <circle cx="996.262" cy="113.964" r="5.25" fill="#0928ab"/>
    <circle cx="949.258" cy="80.275" r="5.25" fill="#0928ab"/>
    <circle cx="1021.876" cy="113.95" r="5.25" fill="#0928ab"/>
    <circle cx="983.796" cy="135.928" r="5.25" fill="#0928ab"/>
    <circle cx="1021.406" cy="128.442" r="5.25" fill="#0928ab"/>
    <circle cx="994.347" cy="171.998" r="5.25" fill="#0928ab"/>
    <circle cx="987.678" cy="78.706" r="5.25" fill="#0928ab"/>
    <circle cx="989.603" cy="220.577" r="5.25" fill="#0928ab"/>
  </g>
  <g id="older-stump">
    <circle cx="-901.49" cy="106.593" r="5.25" fill="#e0e0e0"/>
    <circle cx="-987.305" cy="36.128" r="5.25" fill="#e0e0e0"/>
    <circle cx="-991.714" cy="116.537" r="5.25" fill="#e0e0e0"/>
    <circle cx="-1007.487" cy="96.194" r="5.25" fill="#e0e0e0"/>
    <circle cx="-1008.815" cy="81.75" r="5.25" fill="#e0e0e0"/>
    <circle cx="-983.819" cy="79.486" r="5.25" fill="#e0e0e0"/>
    <circle cx="-404.806" cy="75.357" r="5.25" fill="#e0e0e0"/>
    <circle cx="-757.972" cy="94.408" r="5.25" fill="#e0e0e0"/>
    <circle cx="-890.716" cy="116.297" r="5.25" fill="#e0e0e0"/>
    <circle cx="-1010.125" cy="67.309" r="5.25" fill="#e0e0e0"/>
    <circle cx="-912.258" cy="96.884" r="5.25" fill="#e0e0e0"/>
    <circle cx="-953.607" cy="120.4" r="5.25" fill="#e0e0e0"/>
    <circle cx="-840.754" cy="43.102" r="5.25" fill="#e0e0e0"/>
    <circle cx="-792.831" cy="63.977" r="5.25" fill="#e0e0e0"/>
    <circle cx="-876.704" cy="70.188" r="5.25" fill="#e0e0e0"/>
    <circle cx="-901.41" cy="64.899" r="5.25" fill="#e0e0e0"/>
    <circle cx="-1004.872" cy="110.455" r="5.25" fill="#e0e0e0"/>
    <circle cx="-844.505" cy="71.854" r="5.25" fill="#e0e0e0"/>
    <circle cx="-732.738" cy="80.115" r="5.25" fill="#e0e0e0"/>
    <circle cx="-904.22" cy="79.108" r="5.25" fill="#e0e0e0"/>
    <circle cx="-995.658" cy="87.828" r="5.25" fill="#e0e0e0"/>
    <circle cx="-860.116" cy="93.163" r="5.25" fill="#e0e0e0"/>
    <circle cx="-993.044" cy="102.087" r="5.25" fill="#e0e0e0"/>
    <circle cx="-957.496" cy="77.054" r="5.25" fill="#e0e0e0"/>
    <circle cx="-921.654" cy="44.226" r="5.25" fill="#e0e0e0"/>
    <circle cx="-845.627" cy="87.785" r="5.25" fill="#e0e0e0"/>
    <circle cx="-745.112" cy="58.265" r="5.25" fill="#e0e0e0"/>
    <circle cx="-745.355" cy="87.263" r="5.25" fill="#e0e0e0"/>
    <circle cx="-956.193" cy="91.474" r="5.25" fill="#e0e0e0"/>
    <circle cx="-943.083" cy="97.632" r="5.25" fill="#e0e0e0"/>
    <circle cx="-974.155" cy="42.23" r="5.25" fill="#e0e0e0"/>
    <circle cx="-915.212" cy="69.344" r="5.25" fill="#e0e0e0"/>
    <circle cx="-898.471" cy="92.415" r="5.25" fill="#e0e0e0"/>
    <circle cx="-678.067" cy="87.629" r="5.25" fill="#e0e0e0"/>
    <circle cx="-1011.428" cy="52.867" r="5.25" fill="#e0e0e0"/>
    <circle cx="-887.698" cy="102.123" r="5.25" fill="#e0e0e0"/>
    <circle cx="-978.581" cy="122.679" r="5.25" fill="#e0e0e0"/>
    <circle cx="-968.03" cy="99.823" r="5.25" fill="#e0e0e0"/>
    <circle cx="-949.262" cy="26.149" r="5.25" fill="#e0e0e0"/>
    <circle cx="-870.898" cy="83.461" r="5.25" fill="#e0e0e0"/>
    <circle cx="-961.589" cy="33.89" r="5.25" fill="#e0e0e0"/>
    <circle cx="-887.609" cy="60.452" r="5.25" fill="#e0e0e0"/>
    <circle cx="-884.578" cy="46.283" r="5.25" fill="#e0e0e0"/>
    <circle cx="-996.968" cy="73.397" r="5.25" fill="#e0e0e0"/>
    <circle cx="-942.955" cy="68.709" r="5.25" fill="#e0e0e0"/>
    <circle cx="-815.855" cy="46.349" r="5.25" fill="#e0e0e0"/>
    <circle cx="-917.961" cy="83.555" r="5.25" fill="#e0e0e0"/>
    <circle cx="-870.795" cy="41.816" r="5.25" fill="#e0e0e0"/>
    <circle cx="-873.815" cy="55.995" r="5.25" fill="#e0e0e0"/>
    <circle cx="-961.019" cy="48.363" r="5.25" fill="#e0e0e0"/>
    <circle cx="-912.168" cy="55.177" r="5.25" fill="#e0e0e0"/>
    <circle cx="-794.708" cy="78.353" r="5.25" fill="#e0e0e0"/>
    <circle cx="-944.353" cy="83.132" r="5.25" fill="#e0e0e0"/>
    <circle cx="-981.197" cy="93.734" r="5.25" fill="#e0e0e0"/>
    <circle cx="-832.999" cy="80.67" r="5.25" fill="#e0e0e0"/>
    <circle cx="-691.135" cy="66.18" r="5.25" fill="#e0e0e0"/>
    <circle cx="-821.486" cy="89.483" r="5.25" fill="#e0e0e0"/>
    <circle cx="-804.343" cy="55.164" r="5.25" fill="#e0e0e0"/>
    <circle cx="-876.922" cy="111.825" r="5.25" fill="#e0e0e0"/>
    <circle cx="-678.409" cy="73.133" r="5.25" fill="#e0e0e0"/>
    <circle cx="-745.233" cy="72.764" r="5.25" fill="#e0e0e0"/>
    <circle cx="-962.096" cy="19.407" r="5.25" fill="#e0e0e0"/>
    <circle cx="-860.012" cy="51.504" r="5.25" fill="#e0e0e0"/>
    <circle cx="-999.576" cy="44.511" r="5.25" fill="#e0e0e0"/>
    <circle cx="-770.469" cy="87.055" r="5.25" fill="#e0e0e0"/>
    <circle cx="-986.422" cy="50.599" r="5.25" fill="#e0e0e0"/>
    <circle cx="-966.757" cy="114.302" r="5.25" fill="#e0e0e0"/>
    <circle cx="-809.971" cy="98.296" r="5.25" fill="#e0e0e0"/>
    <circle cx="-808.095" cy="83.92" r="5.25" fill="#e0e0e0"/>
    <circle cx="-819.608" cy="75.11" r="5.25" fill="#e0e0e0"/>
    <circle cx="-418.731" cy="71.314" r="5.25" fill="#e0e0e0"/>
    <circle cx="-834.121" cy="96.591" r="5.25" fill="#e0e0e0"/>
    <circle cx="-974.719" cy="27.747" r="5.25" fill="#e0e0e0"/>
    <circle cx="-678.751" cy="58.638" r="5.25" fill="#e0e0e0"/>
    <circle cx="-929.855" cy="74.917" r="5.25" fill="#e0e0e0"/>
    <circle cx="-894.092" cy="35.347" r="5.25" fill="#e0e0e0"/>
    <circle cx="-615.843" cy="81.42" r="5.25" fill="#e0e0e0"/>
    <circle cx="-857.006" cy="37.329" r="5.25" fill="#e0e0e0"/>
    <circle cx="-842.633" cy="57.479" r="5.25" fill="#e0e0e0"/>
    <circle cx="-796.583" cy="92.73" r="5.25" fill="#e0e0e0"/>
    <circle cx="-690.791" cy="80.677" r="5.25" fill="#e0e0e0"/>
    <circle cx="-703.516" cy="73.725" r="5.25" fill="#e0e0e0"/>
    <circle cx="-971.999" cy="71.159" r="5.25" fill="#e0e0e0"/>
    <circle cx="-928.616" cy="118.214" r="5.25" fill="#e0e0e0"/>
    <circle cx="-829.243" cy="51.914" r="5.25" fill="#e0e0e0"/>
    <circle cx="121.586" cy="119.947" r="5.25" fill="#e0e0e0"/>
    <circle cx="150.252" cy="124.302" r="5.25" fill="#e0e0e0"/>
    <circle cx="68.265" cy="85.019" r="5.25" fill="#e0e0e0"/>
    <circle cx="71.127" cy="44.916" r="5.25" fill="#e0e0e0"/>
    <circle cx="80.82" cy="34.136" r="5.25" fill="#e0e0e0"/>
    <circle cx="126.657" cy="133.525" r="5.25" fill="#e0e0e0"/>
    <circle cx="457.144" cy="82.486" r="5.25" fill="#e0e0e0"/>
    <circle cx="257.522" cy="107.894" r="5.25" fill="#e0e0e0"/>
    <circle cx="145.477" cy="110.618" r="5.25" fill="#e0e0e0"/>
    <circle cx="113.72" cy="53.658" r="5.25" fill="#e0e0e0"/>
    <circle cx="132.094" cy="56.219" r="5.25" fill="#e0e0e0"/>
    <circle cx="49.277" cy="67.059" r="5.25" fill="#e0e0e0"/>
    <circle cx="189.598" cy="111.614" r="5.25" fill="#e0e0e0"/>
    <circle cx="195.228" cy="35.37" r="5.25" fill="#e0e0e0"/>
    <circle cx="181.719" cy="124.622" r="5.25" fill="#e0e0e0"/>
    <circle cx="186.26" cy="46.754" r="5.25" fill="#e0e0e0"/>
    <circle cx="87.347" cy="101.622" r="5.25" fill="#e0e0e0"/>
    <circle cx="196.206" cy="124.633" r="5.25" fill="#e0e0e0"/>
    <circle cx="245.687" cy="99.535" r="5.25" fill="#e0e0e0"/>
    <circle cx="212.132" cy="100.413" r="5.25" fill="#e0e0e0"/>
    <circle cx="105.428" cy="25.917" r="5.25" fill="#e0e0e0"/>
    <circle cx="154.154" cy="99.006" r="5.25" fill="#e0e0e0"/>
    <circle cx="105.817" cy="79.424" r="5.25" fill="#e0e0e0"/>
    <circle cx="112.352" cy="131.173" r="5.25" fill="#e0e0e0"/>
    <circle cx="63.265" cy="70.807" r="5.25" fill="#e0e0e0"/>
    <circle cx="204.071" cy="112.466" r="5.25" fill="#e0e0e0"/>
    <circle cx="235.496" cy="89.243" r="5.25" fill="#e0e0e0"/>
    <circle cx="258.823" cy="93.403" r="5.25" fill="#e0e0e0"/>
    <circle cx="134.401" cy="83.826" r="5.25" fill="#e0e0e0"/>
    <circle cx="94.999" cy="37.137" r="5.25" fill="#e0e0e0"/>
    <circle cx="97.671" cy="128.707" r="5.25" fill="#e0e0e0"/>
    <circle cx="177.723" cy="85.201" r="5.25" fill="#e0e0e0"/>
    <circle cx="120.066" cy="81.724" r="5.25" fill="#e0e0e0"/>
    <circle cx="274.71" cy="93.357" r="5.25" fill="#e0e0e0"/>
    <circle cx="142.769" cy="46.451" r="5.25" fill="#e0e0e0"/>
    <circle cx="135.905" cy="122.214" r="5.25" fill="#e0e0e0"/>
    <circle cx="58.191" cy="55.624" r="5.25" fill="#e0e0e0"/>
    <circle cx="83.039" cy="126.274" r="5.25" fill="#e0e0e0"/>
    <circle cx="130.717" cy="108.682" r="5.25" fill="#e0e0e0"/>
    <circle cx="158.391" cy="136.294" r="5.25" fill="#e0e0e0"/>
    <circle cx="96.688" cy="90.616" r="5.25" fill="#e0e0e0"/>
    <circle cx="143.128" cy="72.253" r="5.25" fill="#e0e0e0"/>
    <circle cx="168.649" cy="98.816" r="5.25" fill="#e0e0e0"/>
    <circle cx="139.733" cy="97.307" r="5.25" fill="#e0e0e0"/>
    <circle cx="63.731" cy="110.102" r="5.25" fill="#e0e0e0"/>
    <circle cx="192.154" cy="86.067" r="5.25" fill="#e0e0e0"/>
    <circle cx="167.229" cy="124.803" r="5.25" fill="#e0e0e0"/>
    <circle cx="179.087" cy="59.339" r="5.25" fill="#e0e0e0"/>
    <circle cx="183.147" cy="98.638" r="5.25" fill="#e0e0e0"/>
    <circle cx="109.23" cy="39.914" r="5.25" fill="#e0e0e0"/>
    <circle cx="163.264" cy="85.391" r="5.25" fill="#e0e0e0"/>
    <circle cx="193.537" cy="60.351" r="5.25" fill="#e0e0e0"/>
    <circle cx="125.39" cy="95.192" r="5.25" fill="#e0e0e0"/>
    <circle cx="78.011" cy="112.666" r="5.25" fill="#e0e0e0"/>
    <circle cx="229.472" cy="76.056" r="5.25" fill="#e0e0e0"/>
    <circle cx="289.084" cy="91.453" r="5.25" fill="#e0e0e0"/>
    <circle cx="216.154" cy="49.405" r="5.25" fill="#e0e0e0"/>
    <circle cx="186.249" cy="72.864" r="5.25" fill="#e0e0e0"/>
    <circle cx="157.421" cy="72.083" r="5.25" fill="#e0e0e0"/>
    <circle cx="294.609" cy="78.047" r="5.25" fill="#e0e0e0"/>
    <circle cx="248.611" cy="83.109" r="5.25" fill="#e0e0e0"/>
    <circle cx="72.172" cy="59.37" r="5.25" fill="#e0e0e0"/>
    <circle cx="164.586" cy="59.439" r="5.25" fill="#e0e0e0"/>
    <circle cx="77.424" cy="73.799" r="5.25" fill="#e0e0e0"/>
    <circle cx="262.609" cy="79.334" r="5.25" fill="#e0e0e0"/>
    <circle cx="107.075" cy="117.678" r="5.25" fill="#e0e0e0"/>
    <circle cx="86.324" cy="62.37" r="5.25" fill="#e0e0e0"/>
    <circle cx="218.533" cy="113.41" r="5.25" fill="#e0e0e0"/>
    <circle cx="201.659" cy="48.358" r="5.25" fill="#e0e0e0"/>
    <circle cx="200.588" cy="73.847" r="5.25" fill="#e0e0e0"/>
    <circle cx="443.219" cy="78.444" r="5.25" fill="#e0e0e0"/>
    <circle cx="222.455" cy="62.466" r="5.25" fill="#e0e0e0"/>
    <circle cx="68.655" cy="123.744" r="5.25" fill="#e0e0e0"/>
    <circle cx="286.144" cy="66.276" r="5.25" fill="#e0e0e0"/>
    <circle cx="128.967" cy="70.327" r="5.25" fill="#e0e0e0"/>
    <circle cx="157.259" cy="46.922" r="5.25" fill="#e0e0e0"/>
    <circle cx="318.913" cy="66.464" r="5.25" fill="#e0e0e0"/>
    <circle cx="171.759" cy="46.841" r="5.25" fill="#e0e0e0"/>
    <circle cx="215.055" cy="74.925" r="5.25" fill="#e0e0e0"/>
    <circle cx="206.609" cy="87.037" r="5.25" fill="#e0e0e0"/>
    <circle cx="280.234" cy="79.95" r="5.25" fill="#e0e0e0"/>
    <circle cx="271.758" cy="68.087" r="5.25" fill="#e0e0e0"/>
    <circle cx="54.09" cy="82.016" r="5.25" fill="#e0e0e0"/>
    <circle cx="91.192" cy="23.162" r="5.25" fill="#e0e0e0"/>
    <circle cx="197.656" cy="99.477" r="5.25" fill="#e0e0e0"/>
    <circle cx="935.781" cy="85.586" r="5.25" fill="#e0e0e0"/>
    <circle cx="931.426" cy="114.251" r="5.25" fill="#e0e0e0"/>
    <circle cx="970.709" cy="32.264" r="5.25" fill="#e0e0e0"/>
    <circle cx="1010.812" cy="35.126" r="5.25" fill="#e0e0e0"/>
    <circle cx="1021.592" cy="44.819" r="5.25" fill="#e0e0e0"/>
    <circle cx="922.203" cy="90.656" r="5.25" fill="#e0e0e0"/>
    <circle cx="973.242" cy="421.143" r="5.25" fill="#e0e0e0"/>
    <circle cx="947.834" cy="221.521" r="5.25" fill="#e0e0e0"/>
    <circle cx="945.11" cy="109.476" r="5.25" fill="#e0e0e0"/>
    <circle cx="1002.07" cy="77.719" r="5.25" fill="#e0e0e0"/>
    <circle cx="999.509" cy="96.093" r="5.25" fill="#e0e0e0"/>
    <circle cx="988.669" cy="13.276" r="5.25" fill="#e0e0e0"/>
    <circle cx="944.114" cy="153.597" r="5.25" fill="#e0e0e0"/>
    <circle cx="1020.358" cy="159.228" r="5.25" fill="#e0e0e0"/>
    <circle cx="931.106" cy="145.718" r="5.25" fill="#e0e0e0"/>
    <circle cx="1008.974" cy="150.26" r="5.25" fill="#e0e0e0"/>
    <circle cx="954.106" cy="51.346" r="5.25" fill="#e0e0e0"/>
    <circle cx="931.095" cy="160.205" r="5.25" fill="#e0e0e0"/>
    <circle cx="956.193" cy="209.687" r="5.25" fill="#e0e0e0"/>
    <circle cx="955.315" cy="176.132" r="5.25" fill="#e0e0e0"/>
    <circle cx="1029.811" cy="69.427" r="5.25" fill="#e0e0e0"/>
    <circle cx="956.722" cy="118.154" r="5.25" fill="#e0e0e0"/>
    <circle cx="976.304" cy="69.817" r="5.25" fill="#e0e0e0"/>
    <circle cx="924.555" cy="76.352" r="5.25" fill="#e0e0e0"/>
    <circle cx="984.921" cy="27.265" r="5.25" fill="#e0e0e0"/>
    <circle cx="943.262" cy="168.07" r="5.25" fill="#e0e0e0"/>
    <circle cx="966.485" cy="199.495" r="5.25" fill="#e0e0e0"/>
    <circle cx="962.325" cy="222.823" r="5.25" fill="#e0e0e0"/>
    <circle cx="971.902" cy="98.401" r="5.25" fill="#e0e0e0"/>
    <circle cx="1018.591" cy="58.999" r="5.25" fill="#e0e0e0"/>
    <circle cx="927.021" cy="61.67" r="5.25" fill="#e0e0e0"/>
    <circle cx="970.527" cy="141.722" r="5.25" fill="#e0e0e0"/>
    <circle cx="974.004" cy="84.066" r="5.25" fill="#e0e0e0"/>
    <circle cx="962.371" cy="238.709" r="5.25" fill="#e0e0e0"/>
    <circle cx="1009.277" cy="106.769" r="5.25" fill="#e0e0e0"/>
    <circle cx="933.514" cy="99.904" r="5.25" fill="#e0e0e0"/>
    <circle cx="1000.104" cy="22.19" r="5.25" fill="#e0e0e0"/>
    <circle cx="929.454" cy="47.038" r="5.25" fill="#e0e0e0"/>
    <circle cx="947.046" cy="94.716" r="5.25" fill="#e0e0e0"/>
    <circle cx="919.434" cy="122.391" r="5.25" fill="#e0e0e0"/>
    <circle cx="965.112" cy="60.688" r="5.25" fill="#e0e0e0"/>
    <circle cx="983.475" cy="107.127" r="5.25" fill="#e0e0e0"/>
    <circle cx="956.912" cy="132.649" r="5.25" fill="#e0e0e0"/>
    <circle cx="958.421" cy="103.733" r="5.25" fill="#e0e0e0"/>
    <circle cx="945.626" cy="27.73" r="5.25" fill="#e0e0e0"/>
    <circle cx="969.661" cy="156.154" r="5.25" fill="#e0e0e0"/>
    <circle cx="930.925" cy="131.228" r="5.25" fill="#e0e0e0"/>
    <circle cx="996.389" cy="143.087" r="5.25" fill="#e0e0e0"/>
    <circle cx="957.09" cy="147.147" r="5.25" fill="#e0e0e0"/>
    <circle cx="1015.814" cy="73.229" r="5.25" fill="#e0e0e0"/>
    <circle cx="970.337" cy="127.264" r="5.25" fill="#e0e0e0"/>
    <circle cx="995.377" cy="157.536" r="5.25" fill="#e0e0e0"/>
    <circle cx="960.536" cy="89.39" r="5.25" fill="#e0e0e0"/>
    <circle cx="943.062" cy="42.011" r="5.25" fill="#e0e0e0"/>
    <circle cx="979.672" cy="193.472" r="5.25" fill="#e0e0e0"/>
    <circle cx="964.275" cy="253.083" r="5.25" fill="#e0e0e0"/>
    <circle cx="1006.323" cy="180.154" r="5.25" fill="#e0e0e0"/>
    <circle cx="982.864" cy="150.248" r="5.25" fill="#e0e0e0"/>
    <circle cx="983.645" cy="121.42" r="5.25" fill="#e0e0e0"/>
    <circle cx="977.681" cy="258.608" r="5.25" fill="#e0e0e0"/>
    <circle cx="972.619" cy="212.611" r="5.25" fill="#e0e0e0"/>
    <circle cx="996.358" cy="36.171" r="5.25" fill="#e0e0e0"/>
    <circle cx="996.289" cy="128.586" r="5.25" fill="#e0e0e0"/>
    <circle cx="981.929" cy="41.423" r="5.25" fill="#e0e0e0"/>
    <circle cx="976.394" cy="226.608" r="5.25" fill="#e0e0e0"/>
    <circle cx="938.05" cy="71.075" r="5.25" fill="#e0e0e0"/>
    <circle cx="993.358" cy="50.323" r="5.25" fill="#e0e0e0"/>
    <circle cx="942.318" cy="182.533" r="5.25" fill="#e0e0e0"/>
    <circle cx="1007.37" cy="165.659" r="5.25" fill="#e0e0e0"/>
    <circle cx="981.881" cy="164.587" r="5.25" fill="#e0e0e0"/>
    <circle cx="977.284" cy="407.218" r="5.25" fill="#e0e0e0"/>
    <circle cx="993.262" cy="186.454" r="5.25" fill="#e0e0e0"/>
    <circle cx="931.984" cy="32.655" r="5.25" fill="#e0e0e0"/>
    <circle cx="989.452" cy="250.144" r="5.25" fill="#e0e0e0"/>
    <circle cx="985.401" cy="92.967" r="5.25" fill="#e0e0e0"/>
    <circle cx="1008.806" cy="121.258" r="5.25" fill="#e0e0e0"/>
    <circle cx="989.264" cy="282.912" r="5.25" fill="#e0e0e0"/>
    <circle cx="1008.887" cy="135.758" r="5.25" fill="#e0e0e0"/>
    <circle cx="980.803" cy="179.054" r="5.25" fill="#e0e0e0"/>
    <circle cx="968.691" cy="170.609" r="5.25" fill="#e0e0e0"/>
    <circle cx="975.778" cy="244.233" r="5.25" fill="#e0e0e0"/>
    <circle cx="987.641" cy="235.757" r="5.25" fill="#e0e0e0"/>
    <circle cx="973.712" cy="18.089" r="5.25" fill="#e0e0e0"/>
    <circle cx="1032.566" cy="55.192" r="5.25" fill="#e0e0e0"/>
    <circle cx="956.251" cy="161.655" r="5.25" fill="#e0e0e0"/>
  </g>
<style>
#g-big_stumps_bubble-medium-interative-img rect, #g-big_stumps_bubble-medium-interative-img circle, #g-big_stumps_bubble-medium-interative-img path, #g-big_stumps_bubble-medium-interative-img line, #g-big_stumps_bubble-medium-interative-img polyline, #g-big_stumps_bubble-medium-interative-img polygon { vector-effect: non-scaling-stroke; }
</style>
</svg>
