<?xml version="1.0" encoding="UTF-8"?>
<svg id="g-big_stumps_bubble-full-interative-img" xmlns="http://www.w3.org/2000/svg" baseProfile="tiny" version="1.2" viewBox="0 0 700 203">
  <!-- Generator: Adobe Illustrator 29.3.1, SVG Export Plug-In . SVG Version: 2.1.0 Build 151)  -->
  <g id="recent-stump">
    <circle cx="102.599" cy="105.461" r="5.25" fill="#0928ab"/>
    <circle cx="445.394" cy="66.909" r="5.25" fill="#0928ab"/>
    <circle cx="108.742" cy="40.131" r="5.25" fill="#0928ab"/>
    <circle cx="183.597" cy="97.143" r="5.25" fill="#0928ab"/>
    <circle cx="72.379" cy="64.546" r="5.25" fill="#0928ab"/>
    <circle cx="126.25" cy="88.839" r="5.25" fill="#0928ab"/>
    <circle cx="121.163" cy="32.214" r="5.25" fill="#0928ab"/>
    <circle cx="77.611" cy="107.668" r="5.25" fill="#0928ab"/>
    <circle cx="97.333" cy="62.344" r="5.25" fill="#0928ab"/>
    <circle cx="200.38" cy="78.476" r="5.25" fill="#0928ab"/>
    <circle cx="299.771" cy="64.911" r="5.25" fill="#0928ab"/>
    <circle cx="511.729" cy="66.485" r="5.25" fill="#0928ab"/>
    <circle cx="251.281" cy="69.042" r="5.25" fill="#0928ab"/>
    <circle cx="127.644" cy="103.271" r="5.25" fill="#0928ab"/>
    <circle cx="431.392" cy="70.678" r="5.25" fill="#0928ab"/>
    <circle cx="194.56" cy="65.195" r="5.25" fill="#0928ab"/>
    <circle cx="167.04" cy="74.154" r="5.25" fill="#0928ab"/>
    <circle cx="115.751" cy="111.565" r="5.25" fill="#0928ab"/>
    <circle cx="226.38" cy="65.794" r="5.25" fill="#0928ab"/>
    <circle cx="299.89" cy="50.413" r="5.25" fill="#0928ab"/>
    <circle cx="121.699" cy="46.686" r="5.25" fill="#0928ab"/>
    <circle cx="88.158" cy="84.895" r="5.25" fill="#0928ab"/>
    <circle cx="287.152" cy="72.056" r="5.25" fill="#0928ab"/>
    <circle cx="504.733" cy="79.186" r="5.25" fill="#0928ab"/>
    <circle cx="234.895" cy="104.902" r="5.25" fill="#0928ab"/>
    <circle cx="127.625" cy="59.925" r="5.25" fill="#0928ab"/>
    <circle cx="287.273" cy="57.557" r="5.25" fill="#0928ab"/>
    <circle cx="109.554" cy="54.608" r="5.25" fill="#0928ab"/>
    <circle cx="172.822" cy="87.451" r="5.25" fill="#0928ab"/>
    <circle cx="84.222" cy="56.196" r="5.25" fill="#0928ab"/>
    <circle cx="177.193" cy="30.389" r="5.25" fill="#0928ab"/>
    <circle cx="159.136" cy="50.234" r="5.25" fill="#0928ab"/>
    <circle cx="149.614" cy="39.299" r="5.25" fill="#0928ab"/>
    <circle cx="239.769" cy="60.228" r="5.25" fill="#0928ab"/>
    <circle cx="59.225" cy="58.452" r="5.25" fill="#0928ab"/>
    <circle cx="299.649" cy="79.409" r="5.25" fill="#0928ab"/>
    <circle cx="1116.403" cy="95.578" r="5.25" fill="#0928ab"/>
    <circle cx="1380.181" cy="79.964" r="5.25" fill="#0928ab"/>
    <circle cx="1149.12" cy="76.277" r="5.25" fill="#0928ab"/>
    <circle cx="1206.26" cy="85.086" r="5.25" fill="#0928ab"/>
    <circle cx="1157.963" cy="64.857" r="5.25" fill="#0928ab"/>
    <circle cx="1181.936" cy="43.431" r="5.25" fill="#0928ab"/>
    <circle cx="1192.624" cy="33.629" r="5.25" fill="#0928ab"/>
    <circle cx="1149.889" cy="114.704" r="5.25" fill="#0928ab"/>
    <circle cx="1139.943" cy="87.462" r="5.25" fill="#0928ab"/>
    <circle cx="1217.426" cy="111.776" r="5.25" fill="#0928ab"/>
    <circle cx="1284.729" cy="100.741" r="5.25" fill="#0928ab"/>
    <circle cx="1426.179" cy="73.614" r="5.25" fill="#0928ab"/>
    <circle cx="1267.309" cy="35.868" r="5.25" fill="#0928ab"/>
    <circle cx="1142.809" cy="47.416" r="5.25" fill="#0928ab"/>
    <circle cx="1383.95" cy="93.966" r="5.25" fill="#0928ab"/>
    <circle cx="1231.925" cy="111.603" r="5.25" fill="#0928ab"/>
    <circle cx="1236.439" cy="33.741" r="5.25" fill="#0928ab"/>
    <circle cx="1130.59" cy="98.542" r="5.25" fill="#0928ab"/>
    <circle cx="1278.564" cy="87.622" r="5.25" fill="#0928ab"/>
    <circle cx="1307.384" cy="52.762" r="5.25" fill="#0928ab"/>
    <circle cx="1156.998" cy="50.405" r="5.25" fill="#0928ab"/>
    <circle cx="1159.285" cy="103.678" r="5.25" fill="#0928ab"/>
    <circle cx="1300.084" cy="69.423" r="5.25" fill="#0928ab"/>
    <circle cx="1419.184" cy="86.315" r="5.25" transform="translate(1106.655 1473.348) rotate(-80.783)" fill="#0928ab"/>
    <circle cx="1290.492" cy="114.037" r="5.25" fill="#0928ab"/>
    <circle cx="1177.445" cy="29.641" r="5.25" fill="#0928ab"/>
    <circle cx="1293.39" cy="56.562" r="5.25" fill="#0928ab"/>
    <circle cx="1168.489" cy="92.468" r="5.25" fill="#0928ab"/>
    <circle cx="1207.465" cy="58.966" r="5.25" fill="#0928ab"/>
    <circle cx="1173.776" cy="105.97" r="5.25" fill="#0928ab"/>
    <circle cx="1207.45" cy="33.352" r="5.25" fill="#0928ab"/>
    <circle cx="1229.428" cy="71.432" r="5.25" fill="#0928ab"/>
    <circle cx="1221.942" cy="33.822" r="5.25" fill="#0928ab"/>
    <circle cx="1265.499" cy="60.881" r="5.25" fill="#0928ab"/>
    <circle cx="1172.207" cy="67.55" r="5.25" fill="#0928ab"/>
    <circle cx="1314.077" cy="65.625" r="5.25" fill="#0928ab"/>
    <circle cx="2010.006" cy="78.387" r="5.25" fill="#0928ab"/>
    <circle cx="2048.559" cy="421.182" r="5.25" fill="#0928ab"/>
    <circle cx="2075.336" cy="84.531" r="5.25" fill="#0928ab"/>
    <circle cx="2018.324" cy="159.385" r="5.25" fill="#0928ab"/>
    <circle cx="2050.922" cy="48.167" r="5.25" fill="#0928ab"/>
    <circle cx="2026.629" cy="102.038" r="5.25" fill="#0928ab"/>
    <circle cx="2083.254" cy="96.951" r="5.25" fill="#0928ab"/>
    <circle cx="2007.799" cy="53.399" r="5.25" fill="#0928ab"/>
    <circle cx="2053.124" cy="73.122" r="5.25" fill="#0928ab"/>
    <circle cx="2036.992" cy="176.168" r="5.25" fill="#0928ab"/>
    <circle cx="2050.556" cy="275.559" r="5.25" fill="#0928ab"/>
    <circle cx="2048.983" cy="487.517" r="5.25" fill="#0928ab"/>
    <circle cx="2046.426" cy="227.069" r="5.25" fill="#0928ab"/>
    <circle cx="2012.196" cy="103.433" r="5.25" fill="#0928ab"/>
    <circle cx="2044.79" cy="407.18" r="5.25" fill="#0928ab"/>
    <circle cx="2050.272" cy="170.348" r="5.25" fill="#0928ab"/>
    <circle cx="2041.314" cy="142.829" r="5.25" fill="#0928ab"/>
    <circle cx="2003.902" cy="91.539" r="5.25" fill="#0928ab"/>
    <circle cx="2049.673" cy="202.169" r="5.25" fill="#0928ab"/>
    <circle cx="2065.054" cy="275.678" r="5.25" fill="#0928ab"/>
    <circle cx="2068.782" cy="97.487" r="5.25" fill="#0928ab"/>
    <circle cx="2030.573" cy="63.946" r="5.25" fill="#0928ab"/>
    <circle cx="2043.411" cy="262.94" r="5.25" fill="#0928ab"/>
    <circle cx="2036.282" cy="480.522" r="5.25" fill="#0928ab"/>
    <circle cx="2010.566" cy="210.683" r="5.25" fill="#0928ab"/>
    <circle cx="2055.543" cy="103.413" r="5.25" fill="#0928ab"/>
    <circle cx="2057.91" cy="263.061" r="5.25" fill="#0928ab"/>
    <circle cx="2060.86" cy="85.342" r="5.25" fill="#0928ab"/>
    <circle cx="2028.016" cy="148.61" r="5.25" fill="#0928ab"/>
    <circle cx="2059.271" cy="60.011" r="5.25" fill="#0928ab"/>
    <circle cx="2085.079" cy="152.981" r="5.25" fill="#0928ab"/>
    <circle cx="2065.233" cy="134.925" r="5.25" fill="#0928ab"/>
    <circle cx="2076.169" cy="125.402" r="5.25" fill="#0928ab"/>
    <circle cx="2055.24" cy="215.558" r="5.25" fill="#0928ab"/>
    <circle cx="2057.016" cy="35.013" r="5.25" fill="#0928ab"/>
    <circle cx="2036.058" cy="275.437" r="5.25" fill="#0928ab"/>
  </g>
  <g id="old">
    <circle cx="156.01" cy="106.093" r="5.25" fill="#e0e0e0"/>
    <circle cx="70.195" cy="35.628" r="5.25" fill="#e0e0e0"/>
    <circle cx="65.786" cy="116.037" r="5.25" fill="#e0e0e0"/>
    <circle cx="50.013" cy="95.694" r="5.25" fill="#e0e0e0"/>
    <circle cx="48.685" cy="81.25" r="5.25" fill="#e0e0e0"/>
    <circle cx="73.681" cy="78.986" r="5.25" fill="#e0e0e0"/>
    <circle cx="652.694" cy="74.857" r="5.25" fill="#e0e0e0"/>
    <circle cx="299.528" cy="93.908" r="5.25" fill="#e0e0e0"/>
    <circle cx="166.784" cy="115.797" r="5.25" fill="#e0e0e0"/>
    <circle cx="47.375" cy="66.809" r="5.25" fill="#e0e0e0"/>
    <circle cx="145.242" cy="96.384" r="5.25" fill="#e0e0e0"/>
    <circle cx="103.893" cy="119.9" r="5.25" fill="#e0e0e0"/>
    <circle cx="216.746" cy="42.602" r="5.25" fill="#e0e0e0"/>
    <circle cx="264.669" cy="63.477" r="5.25" fill="#e0e0e0"/>
    <circle cx="180.796" cy="69.688" r="5.25" fill="#e0e0e0"/>
    <circle cx="156.09" cy="64.399" r="5.25" fill="#e0e0e0"/>
    <circle cx="52.628" cy="109.955" r="5.25" fill="#e0e0e0"/>
    <circle cx="212.995" cy="71.354" r="5.25" fill="#e0e0e0"/>
    <circle cx="324.762" cy="79.615" r="5.25" fill="#e0e0e0"/>
    <circle cx="153.28" cy="78.608" r="5.25" fill="#e0e0e0"/>
    <circle cx="61.842" cy="87.328" r="5.25" fill="#e0e0e0"/>
    <circle cx="197.384" cy="92.663" r="5.25" fill="#e0e0e0"/>
    <circle cx="64.456" cy="101.587" r="5.25" fill="#e0e0e0"/>
    <circle cx="100.004" cy="76.554" r="5.25" fill="#e0e0e0"/>
    <circle cx="135.846" cy="43.726" r="5.25" fill="#e0e0e0"/>
    <circle cx="211.873" cy="87.285" r="5.25" fill="#e0e0e0"/>
    <circle cx="312.388" cy="57.765" r="5.25" fill="#e0e0e0"/>
    <circle cx="312.145" cy="86.763" r="5.25" fill="#e0e0e0"/>
    <circle cx="101.307" cy="90.974" r="5.25" fill="#e0e0e0"/>
    <circle cx="114.417" cy="97.132" r="5.25" fill="#e0e0e0"/>
    <circle cx="83.345" cy="41.73" r="5.25" fill="#e0e0e0"/>
    <circle cx="142.288" cy="68.844" r="5.25" fill="#e0e0e0"/>
    <circle cx="159.029" cy="91.915" r="5.25" fill="#e0e0e0"/>
    <circle cx="379.433" cy="87.129" r="5.25" fill="#e0e0e0"/>
    <circle cx="46.072" cy="52.367" r="5.25" fill="#e0e0e0"/>
    <circle cx="169.802" cy="101.623" r="5.25" fill="#e0e0e0"/>
    <circle cx="78.919" cy="122.179" r="5.25" fill="#e0e0e0"/>
    <circle cx="89.47" cy="99.323" r="5.25" fill="#e0e0e0"/>
    <circle cx="108.238" cy="25.649" r="5.25" fill="#e0e0e0"/>
    <circle cx="186.602" cy="82.961" r="5.25" fill="#e0e0e0"/>
    <circle cx="95.911" cy="33.39" r="5.25" fill="#e0e0e0"/>
    <circle cx="169.891" cy="59.952" r="5.25" fill="#e0e0e0"/>
    <circle cx="172.922" cy="45.783" r="5.25" fill="#e0e0e0"/>
    <circle cx="60.532" cy="72.897" r="5.25" fill="#e0e0e0"/>
    <circle cx="114.545" cy="68.209" r="5.25" fill="#e0e0e0"/>
    <circle cx="241.645" cy="45.849" r="5.25" fill="#e0e0e0"/>
    <circle cx="139.539" cy="83.055" r="5.25" fill="#e0e0e0"/>
    <circle cx="186.705" cy="41.316" r="5.25" fill="#e0e0e0"/>
    <circle cx="183.685" cy="55.495" r="5.25" fill="#e0e0e0"/>
    <circle cx="96.481" cy="47.863" r="5.25" fill="#e0e0e0"/>
    <circle cx="145.332" cy="54.677" r="5.25" fill="#e0e0e0"/>
    <circle cx="262.792" cy="77.853" r="5.25" fill="#e0e0e0"/>
    <circle cx="113.147" cy="82.632" r="5.25" fill="#e0e0e0"/>
    <circle cx="76.303" cy="93.234" r="5.25" fill="#e0e0e0"/>
    <circle cx="224.501" cy="80.17" r="5.25" fill="#e0e0e0"/>
    <circle cx="366.365" cy="65.68" r="5.25" fill="#e0e0e0"/>
    <circle cx="236.014" cy="88.983" r="5.25" fill="#e0e0e0"/>
    <circle cx="253.157" cy="54.664" r="5.25" fill="#e0e0e0"/>
    <circle cx="180.578" cy="111.325" r="5.25" fill="#e0e0e0"/>
    <circle cx="379.091" cy="72.633" r="5.25" fill="#e0e0e0"/>
    <circle cx="312.267" cy="72.264" r="5.25" fill="#e0e0e0"/>
    <circle cx="95.404" cy="18.907" r="5.25" fill="#e0e0e0"/>
    <circle cx="197.488" cy="51.004" r="5.25" fill="#e0e0e0"/>
    <circle cx="57.924" cy="44.011" r="5.25" fill="#e0e0e0"/>
    <circle cx="287.031" cy="86.555" r="5.25" fill="#e0e0e0"/>
    <circle cx="71.078" cy="50.099" r="5.25" fill="#e0e0e0"/>
    <circle cx="90.743" cy="113.802" r="5.25" fill="#e0e0e0"/>
    <circle cx="247.529" cy="97.796" r="5.25" fill="#e0e0e0"/>
    <circle cx="249.405" cy="83.42" r="5.25" fill="#e0e0e0"/>
    <circle cx="237.892" cy="74.61" r="5.25" fill="#e0e0e0"/>
    <circle cx="638.769" cy="70.814" r="5.25" fill="#e0e0e0"/>
    <circle cx="223.379" cy="96.091" r="5.25" fill="#e0e0e0"/>
    <circle cx="82.781" cy="27.247" r="5.25" fill="#e0e0e0"/>
    <circle cx="378.749" cy="58.138" r="5.25" fill="#e0e0e0"/>
    <circle cx="127.645" cy="74.417" r="5.25" fill="#e0e0e0"/>
    <circle cx="163.408" cy="34.847" r="5.25" fill="#e0e0e0"/>
    <circle cx="441.657" cy="80.92" r="5.25" fill="#e0e0e0"/>
    <circle cx="200.494" cy="36.829" r="5.25" fill="#e0e0e0"/>
    <circle cx="214.867" cy="56.979" r="5.25" fill="#e0e0e0"/>
    <circle cx="260.917" cy="92.23" r="5.25" fill="#e0e0e0"/>
    <circle cx="366.709" cy="80.177" r="5.25" fill="#e0e0e0"/>
    <circle cx="353.984" cy="73.225" r="5.25" fill="#e0e0e0"/>
    <circle cx="85.501" cy="70.659" r="5.25" fill="#e0e0e0"/>
    <circle cx="128.884" cy="117.714" r="5.25" fill="#e0e0e0"/>
    <circle cx="228.257" cy="51.414" r="5.25" fill="#e0e0e0"/>
    <circle cx="1179.086" cy="119.447" r="5.25" fill="#e0e0e0"/>
    <circle cx="1207.752" cy="123.802" r="5.25" fill="#e0e0e0"/>
    <circle cx="1125.765" cy="84.519" r="5.25" fill="#e0e0e0"/>
    <circle cx="1128.627" cy="44.416" r="5.25" fill="#e0e0e0"/>
    <circle cx="1138.32" cy="33.636" r="5.25" fill="#e0e0e0"/>
    <circle cx="1184.157" cy="133.025" r="5.25" fill="#e0e0e0"/>
    <circle cx="1514.644" cy="81.986" r="5.25" fill="#e0e0e0"/>
    <circle cx="1315.022" cy="107.394" r="5.25" fill="#e0e0e0"/>
    <circle cx="1202.977" cy="110.118" r="5.25" fill="#e0e0e0"/>
    <circle cx="1171.22" cy="53.158" r="5.25" fill="#e0e0e0"/>
    <circle cx="1189.594" cy="55.719" r="5.25" fill="#e0e0e0"/>
    <circle cx="1106.777" cy="66.559" r="5.25" fill="#e0e0e0"/>
    <circle cx="1247.098" cy="111.114" r="5.25" fill="#e0e0e0"/>
    <circle cx="1252.728" cy="34.87" r="5.25" fill="#e0e0e0"/>
    <circle cx="1239.219" cy="124.122" r="5.25" fill="#e0e0e0"/>
    <circle cx="1243.76" cy="46.254" r="5.25" fill="#e0e0e0"/>
    <circle cx="1144.847" cy="101.122" r="5.25" fill="#e0e0e0"/>
    <circle cx="1253.706" cy="124.133" r="5.25" fill="#e0e0e0"/>
    <circle cx="1303.187" cy="99.035" r="5.25" fill="#e0e0e0"/>
    <circle cx="1269.632" cy="99.913" r="5.25" fill="#e0e0e0"/>
    <circle cx="1162.928" cy="25.417" r="5.25" fill="#e0e0e0"/>
    <circle cx="1211.654" cy="98.506" r="5.25" fill="#e0e0e0"/>
    <circle cx="1163.317" cy="78.924" r="5.25" fill="#e0e0e0"/>
    <circle cx="1169.852" cy="130.673" r="5.25" fill="#e0e0e0"/>
    <circle cx="1120.765" cy="70.307" r="5.25" fill="#e0e0e0"/>
    <circle cx="1261.571" cy="111.966" r="5.25" fill="#e0e0e0"/>
    <circle cx="1292.996" cy="88.743" r="5.25" fill="#e0e0e0"/>
    <circle cx="1316.323" cy="92.903" r="5.25" fill="#e0e0e0"/>
    <circle cx="1191.901" cy="83.326" r="5.25" fill="#e0e0e0"/>
    <circle cx="1152.499" cy="36.637" r="5.25" fill="#e0e0e0"/>
    <circle cx="1155.171" cy="128.207" r="5.25" fill="#e0e0e0"/>
    <circle cx="1235.223" cy="84.701" r="5.25" fill="#e0e0e0"/>
    <circle cx="1177.566" cy="81.224" r="5.25" fill="#e0e0e0"/>
    <circle cx="1332.21" cy="92.857" r="5.25" fill="#e0e0e0"/>
    <circle cx="1200.269" cy="45.951" r="5.25" fill="#e0e0e0"/>
    <circle cx="1193.405" cy="121.714" r="5.25" fill="#e0e0e0"/>
    <circle cx="1115.691" cy="55.124" r="5.25" fill="#e0e0e0"/>
    <circle cx="1140.539" cy="125.774" r="5.25" fill="#e0e0e0"/>
    <circle cx="1188.217" cy="108.182" r="5.25" fill="#e0e0e0"/>
    <circle cx="1215.891" cy="135.794" r="5.25" fill="#e0e0e0"/>
    <circle cx="1154.188" cy="90.116" r="5.25" fill="#e0e0e0"/>
    <circle cx="1200.628" cy="71.753" r="5.25" fill="#e0e0e0"/>
    <circle cx="1226.149" cy="98.316" r="5.25" fill="#e0e0e0"/>
    <circle cx="1197.233" cy="96.807" r="5.25" fill="#e0e0e0"/>
    <circle cx="1121.231" cy="109.602" r="5.25" fill="#e0e0e0"/>
    <circle cx="1249.654" cy="85.567" r="5.25" fill="#e0e0e0"/>
    <circle cx="1224.729" cy="124.303" r="5.25" fill="#e0e0e0"/>
    <circle cx="1236.587" cy="58.839" r="5.25" fill="#e0e0e0"/>
    <circle cx="1240.647" cy="98.138" r="5.25" fill="#e0e0e0"/>
    <circle cx="1166.73" cy="39.414" r="5.25" fill="#e0e0e0"/>
    <circle cx="1220.764" cy="84.891" r="5.25" fill="#e0e0e0"/>
    <circle cx="1251.037" cy="59.851" r="5.25" fill="#e0e0e0"/>
    <circle cx="1182.89" cy="94.692" r="5.25" fill="#e0e0e0"/>
    <circle cx="1135.511" cy="112.166" r="5.25" fill="#e0e0e0"/>
    <circle cx="1286.972" cy="75.556" r="5.25" fill="#e0e0e0"/>
    <circle cx="1346.584" cy="90.953" r="5.25" fill="#e0e0e0"/>
    <circle cx="1273.654" cy="48.905" r="5.25" fill="#e0e0e0"/>
    <circle cx="1243.749" cy="72.364" r="5.25" fill="#e0e0e0"/>
    <circle cx="1214.921" cy="71.583" r="5.25" fill="#e0e0e0"/>
    <circle cx="1352.109" cy="77.547" r="5.25" fill="#e0e0e0"/>
    <circle cx="1306.111" cy="82.609" r="5.25" fill="#e0e0e0"/>
    <circle cx="1129.672" cy="58.87" r="5.25" fill="#e0e0e0"/>
    <circle cx="1222.086" cy="58.939" r="5.25" fill="#e0e0e0"/>
    <circle cx="1134.924" cy="73.299" r="5.25" fill="#e0e0e0"/>
    <circle cx="1320.109" cy="78.834" r="5.25" fill="#e0e0e0"/>
    <circle cx="1164.575" cy="117.178" r="5.25" fill="#e0e0e0"/>
    <circle cx="1143.824" cy="61.87" r="5.25" fill="#e0e0e0"/>
    <circle cx="1276.033" cy="112.91" r="5.25" fill="#e0e0e0"/>
    <circle cx="1259.159" cy="47.858" r="5.25" fill="#e0e0e0"/>
    <circle cx="1258.088" cy="73.347" r="5.25" fill="#e0e0e0"/>
    <circle cx="1500.719" cy="77.944" r="5.25" fill="#e0e0e0"/>
    <circle cx="1279.955" cy="61.966" r="5.25" fill="#e0e0e0"/>
    <circle cx="1126.155" cy="123.244" r="5.25" fill="#e0e0e0"/>
    <circle cx="1343.644" cy="65.776" r="5.25" fill="#e0e0e0"/>
    <circle cx="1186.467" cy="69.827" r="5.25" fill="#e0e0e0"/>
    <circle cx="1214.759" cy="46.422" r="5.25" fill="#e0e0e0"/>
    <circle cx="1376.413" cy="65.964" r="5.25" fill="#e0e0e0"/>
    <circle cx="1229.259" cy="46.341" r="5.25" fill="#e0e0e0"/>
    <circle cx="1272.555" cy="74.425" r="5.25" fill="#e0e0e0"/>
    <circle cx="1264.109" cy="86.537" r="5.25" fill="#e0e0e0"/>
    <circle cx="1337.734" cy="79.45" r="5.25" fill="#e0e0e0"/>
    <circle cx="1329.258" cy="67.587" r="5.25" fill="#e0e0e0"/>
    <circle cx="1111.59" cy="81.516" r="5.25" fill="#e0e0e0"/>
    <circle cx="1148.692" cy="22.662" r="5.25" fill="#e0e0e0"/>
    <circle cx="1255.156" cy="98.977" r="5.25" fill="#e0e0e0"/>
    <circle cx="2009.375" cy="131.798" r="5.25" fill="#e0e0e0"/>
    <circle cx="2079.839" cy="45.983" r="5.25" fill="#e0e0e0"/>
    <circle cx="1999.431" cy="41.575" r="5.25" fill="#e0e0e0"/>
    <circle cx="2019.774" cy="25.801" r="5.25" fill="#e0e0e0"/>
    <circle cx="2034.217" cy="24.473" r="5.25" fill="#e0e0e0"/>
    <circle cx="2036.481" cy="49.469" r="5.25" fill="#e0e0e0"/>
    <circle cx="2040.611" cy="628.482" r="5.25" fill="#e0e0e0"/>
    <circle cx="2021.56" cy="275.316" r="5.25" fill="#e0e0e0"/>
    <circle cx="1999.67" cy="142.572" r="5.25" fill="#e0e0e0"/>
    <circle cx="2048.659" cy="23.163" r="5.25" fill="#e0e0e0"/>
    <circle cx="2019.084" cy="121.03" r="5.25" fill="#e0e0e0"/>
    <circle cx="1995.567" cy="79.682" r="5.25" fill="#e0e0e0"/>
    <circle cx="2072.865" cy="192.534" r="5.25" fill="#e0e0e0"/>
    <circle cx="2051.991" cy="240.457" r="5.25" fill="#e0e0e0"/>
    <circle cx="2045.779" cy="156.584" r="5.25" fill="#e0e0e0"/>
    <circle cx="2051.069" cy="131.878" r="5.25" fill="#e0e0e0"/>
    <circle cx="2005.512" cy="28.416" r="5.25" fill="#e0e0e0"/>
    <circle cx="2044.114" cy="188.783" r="5.25" fill="#e0e0e0"/>
    <circle cx="2035.852" cy="300.55" r="5.25" fill="#e0e0e0"/>
    <circle cx="2036.859" cy="129.068" r="5.25" fill="#e0e0e0"/>
    <circle cx="2028.14" cy="37.63" r="5.25" fill="#e0e0e0"/>
    <circle cx="2022.804" cy="173.172" r="5.25" fill="#e0e0e0"/>
    <circle cx="2013.88" cy="40.244" r="5.25" fill="#e0e0e0"/>
    <circle cx="2038.914" cy="75.792" r="5.25" fill="#e0e0e0"/>
    <circle cx="2071.741" cy="111.634" r="5.25" fill="#e0e0e0"/>
    <circle cx="2028.183" cy="187.661" r="5.25" fill="#e0e0e0"/>
    <circle cx="2057.702" cy="288.176" r="5.25" fill="#e0e0e0"/>
    <circle cx="2028.705" cy="287.933" r="5.25" fill="#e0e0e0"/>
    <circle cx="2024.493" cy="77.095" r="5.25" fill="#e0e0e0"/>
    <circle cx="2018.336" cy="90.206" r="5.25" fill="#e0e0e0"/>
    <circle cx="2073.737" cy="59.133" r="5.25" fill="#e0e0e0"/>
    <circle cx="2046.623" cy="118.076" r="5.25" fill="#e0e0e0"/>
    <circle cx="2023.553" cy="134.817" r="5.25" fill="#e0e0e0"/>
    <circle cx="2028.339" cy="355.221" r="5.25" fill="#e0e0e0"/>
    <circle cx="2063.101" cy="21.86" r="5.25" fill="#e0e0e0"/>
    <circle cx="2013.844" cy="145.59" r="5.25" fill="#e0e0e0"/>
    <circle cx="1993.289" cy="54.707" r="5.25" fill="#e0e0e0"/>
    <circle cx="2016.145" cy="65.258" r="5.25" fill="#e0e0e0"/>
    <circle cx="2089.819" cy="84.026" r="5.25" fill="#e0e0e0"/>
    <circle cx="2032.507" cy="162.39" r="5.25" fill="#e0e0e0"/>
    <circle cx="2082.078" cy="71.699" r="5.25" fill="#e0e0e0"/>
    <circle cx="2055.516" cy="145.679" r="5.25" fill="#e0e0e0"/>
    <circle cx="2069.685" cy="148.71" r="5.25" fill="#e0e0e0"/>
    <circle cx="2042.571" cy="36.321" r="5.25" fill="#e0e0e0"/>
    <circle cx="2047.259" cy="90.333" r="5.25" fill="#e0e0e0"/>
    <circle cx="2069.618" cy="217.433" r="5.25" fill="#e0e0e0"/>
    <circle cx="2032.412" cy="115.328" r="5.25" fill="#e0e0e0"/>
    <circle cx="2074.151" cy="162.494" r="5.25" fill="#e0e0e0"/>
    <circle cx="2059.972" cy="159.473" r="5.25" fill="#e0e0e0"/>
    <circle cx="2067.605" cy="72.269" r="5.25" fill="#e0e0e0"/>
    <circle cx="2060.79" cy="121.12" r="5.25" fill="#e0e0e0"/>
    <circle cx="2037.615" cy="238.58" r="5.25" fill="#e0e0e0"/>
    <circle cx="2032.836" cy="88.936" r="5.25" fill="#e0e0e0"/>
    <circle cx="2022.234" cy="52.091" r="5.25" fill="#e0e0e0"/>
    <circle cx="2035.298" cy="200.289" r="5.25" fill="#e0e0e0"/>
    <circle cx="2049.787" cy="342.154" r="5.25" fill="#e0e0e0"/>
    <circle cx="2026.485" cy="211.803" r="5.25" fill="#e0e0e0"/>
    <circle cx="2060.803" cy="228.945" r="5.25" fill="#e0e0e0"/>
    <circle cx="2004.143" cy="156.367" r="5.25" fill="#e0e0e0"/>
    <circle cx="2042.834" cy="354.879" r="5.25" fill="#e0e0e0"/>
    <circle cx="2043.204" cy="288.055" r="5.25" fill="#e0e0e0"/>
    <circle cx="2096.561" cy="71.192" r="5.25" fill="#e0e0e0"/>
    <circle cx="2064.463" cy="173.277" r="5.25" fill="#e0e0e0"/>
    <circle cx="2071.456" cy="33.712" r="5.25" fill="#e0e0e0"/>
    <circle cx="2028.913" cy="262.82" r="5.25" fill="#e0e0e0"/>
    <circle cx="2065.369" cy="46.866" r="5.25" fill="#e0e0e0"/>
    <circle cx="2001.665" cy="66.531" r="5.25" fill="#e0e0e0"/>
    <circle cx="2017.672" cy="223.317" r="5.25" fill="#e0e0e0"/>
    <circle cx="2032.047" cy="225.193" r="5.25" fill="#e0e0e0"/>
    <circle cx="2040.858" cy="213.68" r="5.25" fill="#e0e0e0"/>
    <circle cx="2044.653" cy="614.557" r="5.25" fill="#e0e0e0"/>
    <circle cx="2019.377" cy="199.168" r="5.25" fill="#e0e0e0"/>
    <circle cx="2088.22" cy="58.569" r="5.25" fill="#e0e0e0"/>
    <circle cx="2057.33" cy="354.537" r="5.25" fill="#e0e0e0"/>
    <circle cx="2041.051" cy="103.433" r="5.25" fill="#e0e0e0"/>
    <circle cx="2080.621" cy="139.196" r="5.25" fill="#e0e0e0"/>
    <circle cx="2034.548" cy="417.445" r="5.25" fill="#e0e0e0"/>
    <circle cx="2078.638" cy="176.282" r="5.25" fill="#e0e0e0"/>
    <circle cx="2058.489" cy="190.656" r="5.25" fill="#e0e0e0"/>
    <circle cx="2023.237" cy="236.705" r="5.25" fill="#e0e0e0"/>
    <circle cx="2035.291" cy="342.497" r="5.25" fill="#e0e0e0"/>
    <circle cx="2042.242" cy="329.772" r="5.25" fill="#e0e0e0"/>
    <circle cx="2044.809" cy="61.289" r="5.25" fill="#e0e0e0"/>
    <circle cx="1997.754" cy="104.672" r="5.25" fill="#e0e0e0"/>
    <circle cx="2064.054" cy="204.045" r="5.25" fill="#e0e0e0"/>
  </g>
<style>
#g-big_stumps_bubble-full-interative-img rect, #g-big_stumps_bubble-full-interative-img circle, #g-big_stumps_bubble-full-interative-img path, #g-big_stumps_bubble-full-interative-img line, #g-big_stumps_bubble-full-interative-img polyline, #g-big_stumps_bubble-full-interative-img polygon { vector-effect: non-scaling-stroke; }
</style>
</svg>
