<?xml version="1.0" encoding="UTF-8"?>
<svg id="g-big_stumps_bubble-mobile-interative-img" xmlns="http://www.w3.org/2000/svg" baseProfile="tiny" version="1.2" viewBox="0 0 375 435.3">
  <!-- Generator: Adobe Illustrator 29.3.1, SVG Export Plug-In . SVG Version: 2.1.0 Build 151)  -->
  <path d="M97.845,74.081h6v340h-6" fill="none" stroke="#000"/>
  <line x1="103.845" y1="74.081" x2="97.845" y2="74.081" fill="none" stroke="#000"/>
  <line x1="103.845" y1="116.581" x2="97.845" y2="116.581" fill="none" stroke="#000"/>
  <line x1="103.845" y1="159.081" x2="97.845" y2="159.081" fill="none" stroke="#000"/>
  <line x1="103.845" y1="201.581" x2="97.845" y2="201.581" fill="none" stroke="#000"/>
  <line x1="103.845" y1="244.081" x2="97.845" y2="244.081" fill="none" stroke="#000"/>
  <line x1="103.845" y1="286.581" x2="97.845" y2="286.581" fill="none" stroke="#000"/>
  <line x1="103.845" y1="329.081" x2="97.845" y2="329.081" fill="none" stroke="#000"/>
  <line x1="103.845" y1="371.581" x2="97.845" y2="371.581" fill="none" stroke="#000"/>
  <line x1="103.845" y1="414.081" x2="97.845" y2="414.081" fill="none" stroke="#000"/>
  <line x1="186.263" y1="74.081" x2="186.263" y2="414.081" fill="none" stroke="#ccc"/>
  <g>
    <circle cx="-1743.401" cy="105.861" r="5.25" fill="#0928ab"/>
    <circle cx="-1400.606" cy="67.309" r="5.25" fill="#0928ab"/>
    <circle cx="-1737.258" cy="40.531" r="5.25" fill="#0928ab"/>
    <circle cx="-1662.403" cy="97.543" r="5.25" fill="#0928ab"/>
    <circle cx="-1773.621" cy="64.946" r="5.25" fill="#0928ab"/>
    <circle cx="-1719.75" cy="89.239" r="5.25" fill="#0928ab"/>
    <circle cx="-1724.837" cy="32.614" r="5.25" fill="#0928ab"/>
    <circle cx="-1768.389" cy="108.068" r="5.25" fill="#0928ab"/>
    <circle cx="-1748.667" cy="62.744" r="5.25" fill="#0928ab"/>
    <circle cx="-1645.62" cy="78.876" r="5.25" fill="#0928ab"/>
    <circle cx="-1546.229" cy="65.311" r="5.25" fill="#0928ab"/>
    <circle cx="-1334.271" cy="66.885" r="5.25" fill="#0928ab"/>
    <circle cx="-1594.719" cy="69.442" r="5.25" fill="#0928ab"/>
    <circle cx="-1718.356" cy="103.671" r="5.25" fill="#0928ab"/>
    <circle cx="-1414.608" cy="71.078" r="5.25" fill="#0928ab"/>
    <circle cx="-1651.44" cy="65.595" r="5.25" fill="#0928ab"/>
    <circle cx="-1678.96" cy="74.554" r="5.25" fill="#0928ab"/>
    <circle cx="-1730.249" cy="111.965" r="5.25" fill="#0928ab"/>
    <circle cx="-1619.62" cy="66.194" r="5.25" fill="#0928ab"/>
    <circle cx="-1546.11" cy="50.813" r="5.25" fill="#0928ab"/>
    <circle cx="-1724.301" cy="47.086" r="5.25" fill="#0928ab"/>
    <circle cx="-1757.842" cy="85.295" r="5.25" fill="#0928ab"/>
    <circle cx="-1558.848" cy="72.456" r="5.25" fill="#0928ab"/>
    <circle cx="-1341.267" cy="79.586" r="5.25" fill="#0928ab"/>
    <circle cx="-1611.105" cy="105.302" r="5.25" fill="#0928ab"/>
    <circle cx="-1718.375" cy="60.325" r="5.25" fill="#0928ab"/>
    <circle cx="-1558.727" cy="57.957" r="5.25" fill="#0928ab"/>
    <circle cx="-1736.446" cy="55.008" r="5.25" fill="#0928ab"/>
    <circle cx="-1673.178" cy="87.851" r="5.25" fill="#0928ab"/>
    <circle cx="-1761.778" cy="56.596" r="5.25" fill="#0928ab"/>
    <circle cx="-1668.807" cy="30.789" r="5.25" fill="#0928ab"/>
    <circle cx="-1686.864" cy="50.634" r="5.25" fill="#0928ab"/>
    <circle cx="-1696.386" cy="39.699" r="5.25" fill="#0928ab"/>
    <circle cx="-1606.231" cy="60.628" r="5.25" fill="#0928ab"/>
    <circle cx="-1786.775" cy="58.852" r="5.25" fill="#0928ab"/>
    <circle cx="-1546.351" cy="79.809" r="5.25" fill="#0928ab"/>
    <circle cx="-729.597" cy="95.978" r="5.25" fill="#0928ab"/>
    <circle cx="-465.819" cy="80.364" r="5.25" fill="#0928ab"/>
    <circle cx="-696.88" cy="76.677" r="5.25" fill="#0928ab"/>
    <circle cx="-639.74" cy="85.486" r="5.25" fill="#0928ab"/>
    <circle cx="-688.037" cy="65.257" r="5.25" fill="#0928ab"/>
    <circle cx="-664.064" cy="43.831" r="5.25" fill="#0928ab"/>
    <circle cx="-653.376" cy="34.029" r="5.25" fill="#0928ab"/>
    <circle cx="-696.111" cy="115.104" r="5.25" fill="#0928ab"/>
    <circle cx="-706.057" cy="87.862" r="5.25" fill="#0928ab"/>
    <circle cx="-628.574" cy="112.176" r="5.25" fill="#0928ab"/>
    <circle cx="-561.271" cy="101.141" r="5.25" fill="#0928ab"/>
    <circle cx="-419.821" cy="74.014" r="5.25" fill="#0928ab"/>
    <circle cx="-578.691" cy="36.268" r="5.25" fill="#0928ab"/>
    <circle cx="-703.191" cy="47.816" r="5.25" fill="#0928ab"/>
    <circle cx="-462.05" cy="94.366" r="5.25" fill="#0928ab"/>
    <circle cx="-614.075" cy="112.003" r="5.25" fill="#0928ab"/>
    <circle cx="-609.561" cy="34.141" r="5.25" fill="#0928ab"/>
    <circle cx="-715.41" cy="98.942" r="5.25" fill="#0928ab"/>
    <circle cx="-567.436" cy="88.022" r="5.25" fill="#0928ab"/>
    <circle cx="-538.616" cy="53.162" r="5.25" fill="#0928ab"/>
    <circle cx="-689.002" cy="50.805" r="5.25" fill="#0928ab"/>
    <circle cx="-686.715" cy="104.078" r="5.25" fill="#0928ab"/>
    <circle cx="-545.916" cy="69.823" r="5.25" fill="#0928ab"/>
    <circle cx="-426.816" cy="86.715" r="5.25" transform="translate(-444.044 -348.48) rotate(-80.783)" fill="#0928ab"/>
    <circle cx="-555.508" cy="114.437" r="5.25" fill="#0928ab"/>
    <circle cx="-668.555" cy="30.041" r="5.25" fill="#0928ab"/>
    <circle cx="-552.61" cy="56.962" r="5.25" fill="#0928ab"/>
    <circle cx="-677.511" cy="92.868" r="5.25" fill="#0928ab"/>
    <circle cx="-638.535" cy="59.366" r="5.25" fill="#0928ab"/>
    <circle cx="-672.224" cy="106.37" r="5.25" fill="#0928ab"/>
    <circle cx="-638.55" cy="33.752" r="5.25" fill="#0928ab"/>
    <circle cx="-616.572" cy="71.832" r="5.25" fill="#0928ab"/>
    <circle cx="-624.058" cy="34.222" r="5.25" fill="#0928ab"/>
    <circle cx="-580.501" cy="61.281" r="5.25" fill="#0928ab"/>
    <circle cx="-673.793" cy="67.95" r="5.25" fill="#0928ab"/>
    <circle cx="-531.923" cy="66.025" r="5.25" fill="#0928ab"/>
    <circle cx="171.15" cy="22.802" r="5.25" fill="#0928ab"/>
    <circle cx="186.764" cy="286.581" r="5.25" fill="#0928ab"/>
    <circle cx="190.451" cy="55.519" r="5.25" fill="#0928ab"/>
    <circle cx="181.642" cy="112.659" r="5.25" fill="#0928ab"/>
    <circle cx="201.871" cy="64.362" r="5.25" fill="#0928ab"/>
    <circle cx="223.297" cy="88.336" r="5.25" fill="#0928ab"/>
    <circle cx="233.099" cy="99.024" r="5.25" fill="#0928ab"/>
    <circle cx="152.024" cy="56.289" r="5.25" fill="#0928ab"/>
    <circle cx="179.266" cy="46.342" r="5.25" fill="#0928ab"/>
    <circle cx="154.952" cy="123.825" r="5.25" fill="#0928ab"/>
    <circle cx="165.987" cy="191.128" r="5.25" fill="#0928ab"/>
    <circle cx="193.114" cy="332.579" r="5.25" fill="#0928ab"/>
    <circle cx="230.86" cy="173.708" r="5.25" fill="#0928ab"/>
    <circle cx="219.312" cy="49.209" r="5.25" fill="#0928ab"/>
    <circle cx="172.762" cy="290.349" r="5.25" fill="#0928ab"/>
    <circle cx="155.125" cy="138.324" r="5.25" fill="#0928ab"/>
    <circle cx="232.987" cy="142.838" r="5.25" fill="#0928ab"/>
    <circle cx="168.186" cy="36.989" r="5.25" fill="#0928ab"/>
    <circle cx="179.106" cy="184.964" r="5.25" fill="#0928ab"/>
    <circle cx="213.966" cy="213.783" r="5.25" fill="#0928ab"/>
    <circle cx="216.323" cy="63.397" r="5.25" fill="#0928ab"/>
    <circle cx="163.051" cy="65.684" r="5.25" fill="#0928ab"/>
    <circle cx="197.305" cy="206.484" r="5.25" fill="#0928ab"/>
    <circle cx="180.413" cy="325.583" r="5.25" transform="translate(-169.865 451.514) rotate(-80.783)" fill="#0928ab"/>
    <circle cx="152.691" cy="196.891" r="5.25" fill="#0928ab"/>
    <circle cx="237.087" cy="83.845" r="5.25" fill="#0928ab"/>
    <circle cx="210.166" cy="199.79" r="5.25" fill="#0928ab"/>
    <circle cx="174.26" cy="74.889" r="5.25" fill="#0928ab"/>
    <circle cx="207.762" cy="113.864" r="5.25" fill="#0928ab"/>
    <circle cx="160.758" cy="80.175" r="5.25" fill="#0928ab"/>
    <circle cx="233.376" cy="113.85" r="5.25" fill="#0928ab"/>
    <circle cx="195.296" cy="135.828" r="5.25" fill="#0928ab"/>
    <circle cx="232.906" cy="128.342" r="5.25" fill="#0928ab"/>
    <circle cx="205.847" cy="171.898" r="5.25" fill="#0928ab"/>
    <circle cx="199.178" cy="78.606" r="5.25" fill="#0928ab"/>
    <circle cx="201.103" cy="220.477" r="5.25" fill="#0928ab"/>
  </g>
  <g id="older-stump">
    <circle cx="-1689.99" cy="106.493" r="5.25" fill="#e0e0e0"/>
    <circle cx="-1775.805" cy="36.028" r="5.25" fill="#e0e0e0"/>
    <circle cx="-1780.214" cy="116.437" r="5.25" fill="#e0e0e0"/>
    <circle cx="-1795.987" cy="96.094" r="5.25" fill="#e0e0e0"/>
    <circle cx="-1797.315" cy="81.65" r="5.25" fill="#e0e0e0"/>
    <circle cx="-1772.319" cy="79.386" r="5.25" fill="#e0e0e0"/>
    <circle cx="-1193.306" cy="75.257" r="5.25" fill="#e0e0e0"/>
    <circle cx="-1546.472" cy="94.308" r="5.25" fill="#e0e0e0"/>
    <circle cx="-1679.216" cy="116.197" r="5.25" fill="#e0e0e0"/>
    <circle cx="-1798.625" cy="67.209" r="5.25" fill="#e0e0e0"/>
    <circle cx="-1700.758" cy="96.784" r="5.25" fill="#e0e0e0"/>
    <circle cx="-1742.107" cy="120.3" r="5.25" fill="#e0e0e0"/>
    <circle cx="-1629.254" cy="43.002" r="5.25" fill="#e0e0e0"/>
    <circle cx="-1581.331" cy="63.877" r="5.25" fill="#e0e0e0"/>
    <circle cx="-1665.204" cy="70.088" r="5.25" fill="#e0e0e0"/>
    <circle cx="-1689.91" cy="64.799" r="5.25" fill="#e0e0e0"/>
    <circle cx="-1793.372" cy="110.355" r="5.25" fill="#e0e0e0"/>
    <circle cx="-1633.005" cy="71.754" r="5.25" fill="#e0e0e0"/>
    <circle cx="-1521.238" cy="80.015" r="5.25" fill="#e0e0e0"/>
    <circle cx="-1692.72" cy="79.008" r="5.25" fill="#e0e0e0"/>
    <circle cx="-1784.158" cy="87.728" r="5.25" fill="#e0e0e0"/>
    <circle cx="-1648.616" cy="93.063" r="5.25" fill="#e0e0e0"/>
    <circle cx="-1781.544" cy="101.987" r="5.25" fill="#e0e0e0"/>
    <circle cx="-1745.996" cy="76.954" r="5.25" fill="#e0e0e0"/>
    <circle cx="-1710.154" cy="44.126" r="5.25" fill="#e0e0e0"/>
    <circle cx="-1634.127" cy="87.685" r="5.25" fill="#e0e0e0"/>
    <circle cx="-1533.612" cy="58.165" r="5.25" fill="#e0e0e0"/>
    <circle cx="-1533.855" cy="87.163" r="5.25" fill="#e0e0e0"/>
    <circle cx="-1744.693" cy="91.374" r="5.25" fill="#e0e0e0"/>
    <circle cx="-1731.583" cy="97.532" r="5.25" fill="#e0e0e0"/>
    <circle cx="-1762.655" cy="42.13" r="5.25" fill="#e0e0e0"/>
    <circle cx="-1703.712" cy="69.244" r="5.25" fill="#e0e0e0"/>
    <circle cx="-1686.971" cy="92.315" r="5.25" fill="#e0e0e0"/>
    <circle cx="-1466.567" cy="87.529" r="5.25" fill="#e0e0e0"/>
    <circle cx="-1799.928" cy="52.767" r="5.25" fill="#e0e0e0"/>
    <circle cx="-1676.198" cy="102.023" r="5.25" fill="#e0e0e0"/>
    <circle cx="-1767.081" cy="122.579" r="5.25" fill="#e0e0e0"/>
    <circle cx="-1756.53" cy="99.723" r="5.25" fill="#e0e0e0"/>
    <circle cx="-1737.762" cy="26.049" r="5.25" fill="#e0e0e0"/>
    <circle cx="-1659.398" cy="83.361" r="5.25" fill="#e0e0e0"/>
    <circle cx="-1750.089" cy="33.79" r="5.25" fill="#e0e0e0"/>
    <circle cx="-1676.109" cy="60.352" r="5.25" fill="#e0e0e0"/>
    <circle cx="-1673.078" cy="46.183" r="5.25" fill="#e0e0e0"/>
    <circle cx="-1785.468" cy="73.297" r="5.25" fill="#e0e0e0"/>
    <circle cx="-1731.455" cy="68.609" r="5.25" fill="#e0e0e0"/>
    <circle cx="-1604.355" cy="46.249" r="5.25" fill="#e0e0e0"/>
    <circle cx="-1706.461" cy="83.455" r="5.25" fill="#e0e0e0"/>
    <circle cx="-1659.295" cy="41.716" r="5.25" fill="#e0e0e0"/>
    <circle cx="-1662.315" cy="55.895" r="5.25" fill="#e0e0e0"/>
    <circle cx="-1749.519" cy="48.263" r="5.25" fill="#e0e0e0"/>
    <circle cx="-1700.668" cy="55.077" r="5.25" fill="#e0e0e0"/>
    <circle cx="-1583.208" cy="78.253" r="5.25" fill="#e0e0e0"/>
    <circle cx="-1732.853" cy="83.032" r="5.25" fill="#e0e0e0"/>
    <circle cx="-1769.697" cy="93.634" r="5.25" fill="#e0e0e0"/>
    <circle cx="-1621.499" cy="80.57" r="5.25" fill="#e0e0e0"/>
    <circle cx="-1479.635" cy="66.08" r="5.25" fill="#e0e0e0"/>
    <circle cx="-1609.986" cy="89.383" r="5.25" fill="#e0e0e0"/>
    <circle cx="-1592.843" cy="55.064" r="5.25" fill="#e0e0e0"/>
    <circle cx="-1665.422" cy="111.725" r="5.25" fill="#e0e0e0"/>
    <circle cx="-1466.909" cy="73.033" r="5.25" fill="#e0e0e0"/>
    <circle cx="-1533.733" cy="72.664" r="5.25" fill="#e0e0e0"/>
    <circle cx="-1750.596" cy="19.307" r="5.25" fill="#e0e0e0"/>
    <circle cx="-1648.512" cy="51.404" r="5.25" fill="#e0e0e0"/>
    <circle cx="-1788.076" cy="44.411" r="5.25" fill="#e0e0e0"/>
    <circle cx="-1558.969" cy="86.955" r="5.25" fill="#e0e0e0"/>
    <circle cx="-1774.922" cy="50.499" r="5.25" fill="#e0e0e0"/>
    <circle cx="-1755.257" cy="114.202" r="5.25" fill="#e0e0e0"/>
    <circle cx="-1598.471" cy="98.196" r="5.25" fill="#e0e0e0"/>
    <circle cx="-1596.595" cy="83.82" r="5.25" fill="#e0e0e0"/>
    <circle cx="-1608.108" cy="75.01" r="5.25" fill="#e0e0e0"/>
    <circle cx="-1207.231" cy="71.214" r="5.25" fill="#e0e0e0"/>
    <circle cx="-1622.621" cy="96.491" r="5.25" fill="#e0e0e0"/>
    <circle cx="-1763.219" cy="27.647" r="5.25" fill="#e0e0e0"/>
    <circle cx="-1467.251" cy="58.538" r="5.25" fill="#e0e0e0"/>
    <circle cx="-1718.355" cy="74.817" r="5.25" fill="#e0e0e0"/>
    <circle cx="-1682.592" cy="35.247" r="5.25" fill="#e0e0e0"/>
    <circle cx="-1404.343" cy="81.32" r="5.25" fill="#e0e0e0"/>
    <circle cx="-1645.506" cy="37.229" r="5.25" fill="#e0e0e0"/>
    <circle cx="-1631.133" cy="57.379" r="5.25" fill="#e0e0e0"/>
    <circle cx="-1585.083" cy="92.63" r="5.25" fill="#e0e0e0"/>
    <circle cx="-1479.291" cy="80.577" r="5.25" fill="#e0e0e0"/>
    <circle cx="-1492.016" cy="73.625" r="5.25" fill="#e0e0e0"/>
    <circle cx="-1760.499" cy="71.059" r="5.25" fill="#e0e0e0"/>
    <circle cx="-1717.116" cy="118.114" r="5.25" fill="#e0e0e0"/>
    <circle cx="-1617.743" cy="51.814" r="5.25" fill="#e0e0e0"/>
    <circle cx="-666.914" cy="119.847" r="5.25" fill="#e0e0e0"/>
    <circle cx="-638.248" cy="124.202" r="5.25" fill="#e0e0e0"/>
    <circle cx="-720.235" cy="84.919" r="5.25" fill="#e0e0e0"/>
    <circle cx="-717.373" cy="44.816" r="5.25" fill="#e0e0e0"/>
    <circle cx="-707.68" cy="34.036" r="5.25" fill="#e0e0e0"/>
    <circle cx="-661.843" cy="133.425" r="5.25" fill="#e0e0e0"/>
    <circle cx="-331.356" cy="82.386" r="5.25" fill="#e0e0e0"/>
    <circle cx="-530.978" cy="107.794" r="5.25" fill="#e0e0e0"/>
    <circle cx="-643.023" cy="110.518" r="5.25" fill="#e0e0e0"/>
    <circle cx="-674.78" cy="53.558" r="5.25" fill="#e0e0e0"/>
    <circle cx="-656.406" cy="56.119" r="5.25" fill="#e0e0e0"/>
    <circle cx="-739.223" cy="66.959" r="5.25" fill="#e0e0e0"/>
    <circle cx="-598.902" cy="111.514" r="5.25" fill="#e0e0e0"/>
    <circle cx="-593.272" cy="35.27" r="5.25" fill="#e0e0e0"/>
    <circle cx="-606.781" cy="124.522" r="5.25" fill="#e0e0e0"/>
    <circle cx="-602.24" cy="46.654" r="5.25" fill="#e0e0e0"/>
    <circle cx="-701.153" cy="101.522" r="5.25" fill="#e0e0e0"/>
    <circle cx="-592.294" cy="124.533" r="5.25" fill="#e0e0e0"/>
    <circle cx="-542.813" cy="99.435" r="5.25" fill="#e0e0e0"/>
    <circle cx="-576.368" cy="100.313" r="5.25" fill="#e0e0e0"/>
    <circle cx="-683.072" cy="25.817" r="5.25" fill="#e0e0e0"/>
    <circle cx="-634.346" cy="98.906" r="5.25" fill="#e0e0e0"/>
    <circle cx="-682.683" cy="79.324" r="5.25" fill="#e0e0e0"/>
    <circle cx="-676.148" cy="131.073" r="5.25" fill="#e0e0e0"/>
    <circle cx="-725.235" cy="70.707" r="5.25" fill="#e0e0e0"/>
    <circle cx="-584.429" cy="112.366" r="5.25" fill="#e0e0e0"/>
    <circle cx="-553.004" cy="89.143" r="5.25" fill="#e0e0e0"/>
    <circle cx="-529.677" cy="93.303" r="5.25" fill="#e0e0e0"/>
    <circle cx="-654.099" cy="83.726" r="5.25" fill="#e0e0e0"/>
    <circle cx="-693.501" cy="37.037" r="5.25" fill="#e0e0e0"/>
    <circle cx="-690.829" cy="128.607" r="5.25" fill="#e0e0e0"/>
    <circle cx="-610.777" cy="85.101" r="5.25" fill="#e0e0e0"/>
    <circle cx="-668.434" cy="81.624" r="5.25" fill="#e0e0e0"/>
    <circle cx="-513.79" cy="93.257" r="5.25" fill="#e0e0e0"/>
    <circle cx="-645.731" cy="46.351" r="5.25" fill="#e0e0e0"/>
    <circle cx="-652.595" cy="122.114" r="5.25" fill="#e0e0e0"/>
    <circle cx="-730.309" cy="55.524" r="5.25" fill="#e0e0e0"/>
    <circle cx="-705.461" cy="126.174" r="5.25" fill="#e0e0e0"/>
    <circle cx="-657.783" cy="108.582" r="5.25" fill="#e0e0e0"/>
    <circle cx="-630.109" cy="136.194" r="5.25" fill="#e0e0e0"/>
    <circle cx="-691.812" cy="90.516" r="5.25" fill="#e0e0e0"/>
    <circle cx="-645.372" cy="72.153" r="5.25" fill="#e0e0e0"/>
    <circle cx="-619.851" cy="98.716" r="5.25" fill="#e0e0e0"/>
    <circle cx="-648.767" cy="97.207" r="5.25" fill="#e0e0e0"/>
    <circle cx="-724.769" cy="110.002" r="5.25" fill="#e0e0e0"/>
    <circle cx="-596.346" cy="85.967" r="5.25" fill="#e0e0e0"/>
    <circle cx="-621.271" cy="124.703" r="5.25" fill="#e0e0e0"/>
    <circle cx="-609.413" cy="59.239" r="5.25" fill="#e0e0e0"/>
    <circle cx="-605.353" cy="98.538" r="5.25" fill="#e0e0e0"/>
    <circle cx="-679.27" cy="39.814" r="5.25" fill="#e0e0e0"/>
    <circle cx="-625.236" cy="85.291" r="5.25" fill="#e0e0e0"/>
    <circle cx="-594.963" cy="60.251" r="5.25" fill="#e0e0e0"/>
    <circle cx="-663.11" cy="95.092" r="5.25" fill="#e0e0e0"/>
    <circle cx="-710.489" cy="112.566" r="5.25" fill="#e0e0e0"/>
    <circle cx="-559.028" cy="75.956" r="5.25" fill="#e0e0e0"/>
    <circle cx="-499.416" cy="91.353" r="5.25" fill="#e0e0e0"/>
    <circle cx="-572.346" cy="49.305" r="5.25" fill="#e0e0e0"/>
    <circle cx="-602.251" cy="72.764" r="5.25" fill="#e0e0e0"/>
    <circle cx="-631.079" cy="71.983" r="5.25" fill="#e0e0e0"/>
    <circle cx="-493.891" cy="77.947" r="5.25" fill="#e0e0e0"/>
    <circle cx="-539.889" cy="83.009" r="5.25" fill="#e0e0e0"/>
    <circle cx="-716.328" cy="59.27" r="5.25" fill="#e0e0e0"/>
    <circle cx="-623.914" cy="59.339" r="5.25" fill="#e0e0e0"/>
    <circle cx="-711.076" cy="73.699" r="5.25" fill="#e0e0e0"/>
    <circle cx="-525.891" cy="79.234" r="5.25" fill="#e0e0e0"/>
    <circle cx="-681.425" cy="117.578" r="5.25" fill="#e0e0e0"/>
    <circle cx="-702.176" cy="62.27" r="5.25" fill="#e0e0e0"/>
    <circle cx="-569.967" cy="113.31" r="5.25" fill="#e0e0e0"/>
    <circle cx="-586.841" cy="48.258" r="5.25" fill="#e0e0e0"/>
    <circle cx="-587.912" cy="73.747" r="5.25" fill="#e0e0e0"/>
    <circle cx="-345.281" cy="78.344" r="5.25" fill="#e0e0e0"/>
    <circle cx="-566.045" cy="62.366" r="5.25" fill="#e0e0e0"/>
    <circle cx="-719.845" cy="123.644" r="5.25" fill="#e0e0e0"/>
    <circle cx="-502.356" cy="66.176" r="5.25" fill="#e0e0e0"/>
    <circle cx="-659.533" cy="70.227" r="5.25" fill="#e0e0e0"/>
    <circle cx="-631.241" cy="46.822" r="5.25" fill="#e0e0e0"/>
    <circle cx="-469.587" cy="66.364" r="5.25" fill="#e0e0e0"/>
    <circle cx="-616.741" cy="46.741" r="5.25" fill="#e0e0e0"/>
    <circle cx="-573.445" cy="74.825" r="5.25" fill="#e0e0e0"/>
    <circle cx="-581.891" cy="86.937" r="5.25" fill="#e0e0e0"/>
    <circle cx="-508.266" cy="79.85" r="5.25" fill="#e0e0e0"/>
    <circle cx="-516.742" cy="67.987" r="5.25" fill="#e0e0e0"/>
    <circle cx="-734.41" cy="81.916" r="5.25" fill="#e0e0e0"/>
    <circle cx="-697.308" cy="23.062" r="5.25" fill="#e0e0e0"/>
    <circle cx="-590.844" cy="99.377" r="5.25" fill="#e0e0e0"/>
    <circle cx="147.281" cy="85.486" r="5.25" fill="#e0e0e0"/>
    <circle cx="142.926" cy="114.151" r="5.25" fill="#e0e0e0"/>
    <circle cx="182.209" cy="32.164" r="5.25" fill="#e0e0e0"/>
    <circle cx="222.312" cy="35.026" r="5.25" fill="#e0e0e0"/>
    <circle cx="233.092" cy="44.719" r="5.25" fill="#e0e0e0"/>
    <circle cx="133.703" cy="90.556" r="5.25" fill="#e0e0e0"/>
    <circle cx="184.742" cy="421.043" r="5.25" fill="#e0e0e0"/>
    <circle cx="159.334" cy="221.421" r="5.25" fill="#e0e0e0"/>
    <circle cx="156.61" cy="109.376" r="5.25" fill="#e0e0e0"/>
    <circle cx="213.57" cy="77.619" r="5.25" fill="#e0e0e0"/>
    <circle cx="211.009" cy="95.993" r="5.25" fill="#e0e0e0"/>
    <circle cx="200.169" cy="13.176" r="5.25" fill="#e0e0e0"/>
    <circle cx="155.614" cy="153.497" r="5.25" fill="#e0e0e0"/>
    <circle cx="231.858" cy="159.128" r="5.25" fill="#e0e0e0"/>
    <circle cx="142.606" cy="145.618" r="5.25" fill="#e0e0e0"/>
    <circle cx="220.474" cy="150.16" r="5.25" fill="#e0e0e0"/>
    <circle cx="165.606" cy="51.246" r="5.25" fill="#e0e0e0"/>
    <circle cx="142.595" cy="160.105" r="5.25" fill="#e0e0e0"/>
    <circle cx="167.693" cy="209.587" r="5.25" fill="#e0e0e0"/>
    <circle cx="166.815" cy="176.032" r="5.25" fill="#e0e0e0"/>
    <circle cx="241.311" cy="69.327" r="5.25" fill="#e0e0e0"/>
    <circle cx="168.222" cy="118.054" r="5.25" fill="#e0e0e0"/>
    <circle cx="187.804" cy="69.717" r="5.25" fill="#e0e0e0"/>
    <circle cx="136.055" cy="76.252" r="5.25" fill="#e0e0e0"/>
    <circle cx="196.421" cy="27.165" r="5.25" fill="#e0e0e0"/>
    <circle cx="154.762" cy="167.97" r="5.25" fill="#e0e0e0"/>
    <circle cx="177.985" cy="199.395" r="5.25" fill="#e0e0e0"/>
    <circle cx="173.825" cy="222.723" r="5.25" fill="#e0e0e0"/>
    <circle cx="183.402" cy="98.301" r="5.25" fill="#e0e0e0"/>
    <circle cx="230.091" cy="58.899" r="5.25" fill="#e0e0e0"/>
    <circle cx="138.521" cy="61.57" r="5.25" fill="#e0e0e0"/>
    <circle cx="182.027" cy="141.622" r="5.25" fill="#e0e0e0"/>
    <circle cx="185.504" cy="83.966" r="5.25" fill="#e0e0e0"/>
    <circle cx="173.871" cy="238.609" r="5.25" fill="#e0e0e0"/>
    <circle cx="220.777" cy="106.669" r="5.25" fill="#e0e0e0"/>
    <circle cx="145.014" cy="99.804" r="5.25" fill="#e0e0e0"/>
    <circle cx="211.604" cy="22.09" r="5.25" fill="#e0e0e0"/>
    <circle cx="140.954" cy="46.938" r="5.25" fill="#e0e0e0"/>
    <circle cx="158.546" cy="94.616" r="5.25" fill="#e0e0e0"/>
    <circle cx="130.934" cy="122.291" r="5.25" fill="#e0e0e0"/>
    <circle cx="176.612" cy="60.588" r="5.25" fill="#e0e0e0"/>
    <circle cx="194.975" cy="107.027" r="5.25" fill="#e0e0e0"/>
    <circle cx="168.412" cy="132.549" r="5.25" fill="#e0e0e0"/>
    <circle cx="169.921" cy="103.633" r="5.25" fill="#e0e0e0"/>
    <circle cx="157.126" cy="27.63" r="5.25" fill="#e0e0e0"/>
    <circle cx="181.161" cy="156.054" r="5.25" fill="#e0e0e0"/>
    <circle cx="142.425" cy="131.128" r="5.25" fill="#e0e0e0"/>
    <circle cx="207.889" cy="142.987" r="5.25" fill="#e0e0e0"/>
    <circle cx="168.59" cy="147.047" r="5.25" fill="#e0e0e0"/>
    <circle cx="227.314" cy="73.129" r="5.25" fill="#e0e0e0"/>
    <circle cx="181.837" cy="127.164" r="5.25" fill="#e0e0e0"/>
    <circle cx="206.877" cy="157.436" r="5.25" fill="#e0e0e0"/>
    <circle cx="172.036" cy="89.29" r="5.25" fill="#e0e0e0"/>
    <circle cx="154.562" cy="41.911" r="5.25" fill="#e0e0e0"/>
    <circle cx="191.172" cy="193.372" r="5.25" fill="#e0e0e0"/>
    <circle cx="175.775" cy="252.983" r="5.25" fill="#e0e0e0"/>
    <circle cx="217.823" cy="180.054" r="5.25" fill="#e0e0e0"/>
    <circle cx="194.364" cy="150.148" r="5.25" fill="#e0e0e0"/>
    <circle cx="195.145" cy="121.32" r="5.25" fill="#e0e0e0"/>
    <circle cx="189.181" cy="258.508" r="5.25" fill="#e0e0e0"/>
    <circle cx="184.119" cy="212.511" r="5.25" fill="#e0e0e0"/>
    <circle cx="207.858" cy="36.071" r="5.25" fill="#e0e0e0"/>
    <circle cx="207.789" cy="128.486" r="5.25" fill="#e0e0e0"/>
    <circle cx="193.429" cy="41.323" r="5.25" fill="#e0e0e0"/>
    <circle cx="187.894" cy="226.508" r="5.25" fill="#e0e0e0"/>
    <circle cx="149.55" cy="70.975" r="5.25" fill="#e0e0e0"/>
    <circle cx="204.858" cy="50.223" r="5.25" fill="#e0e0e0"/>
    <circle cx="153.818" cy="182.433" r="5.25" fill="#e0e0e0"/>
    <circle cx="218.87" cy="165.559" r="5.25" fill="#e0e0e0"/>
    <circle cx="193.381" cy="164.487" r="5.25" fill="#e0e0e0"/>
    <circle cx="188.784" cy="407.118" r="5.25" fill="#e0e0e0"/>
    <circle cx="204.762" cy="186.354" r="5.25" fill="#e0e0e0"/>
    <circle cx="143.484" cy="32.555" r="5.25" fill="#e0e0e0"/>
    <circle cx="200.952" cy="250.044" r="5.25" fill="#e0e0e0"/>
    <circle cx="196.901" cy="92.867" r="5.25" fill="#e0e0e0"/>
    <circle cx="220.306" cy="121.158" r="5.25" fill="#e0e0e0"/>
    <circle cx="200.764" cy="282.812" r="5.25" fill="#e0e0e0"/>
    <circle cx="220.387" cy="135.658" r="5.25" fill="#e0e0e0"/>
    <circle cx="192.303" cy="178.954" r="5.25" fill="#e0e0e0"/>
    <circle cx="180.191" cy="170.509" r="5.25" fill="#e0e0e0"/>
    <circle cx="187.278" cy="244.133" r="5.25" fill="#e0e0e0"/>
    <circle cx="199.141" cy="235.657" r="5.25" fill="#e0e0e0"/>
    <circle cx="185.212" cy="17.989" r="5.25" fill="#e0e0e0"/>
    <circle cx="244.066" cy="55.092" r="5.25" fill="#e0e0e0"/>
    <circle cx="167.751" cy="161.555" r="5.25" fill="#e0e0e0"/>
  </g>
<style>
#g-big_stumps_bubble-mobile-interative-img rect, #g-big_stumps_bubble-mobile-interative-img circle, #g-big_stumps_bubble-mobile-interative-img path, #g-big_stumps_bubble-mobile-interative-img line, #g-big_stumps_bubble-mobile-interative-img polyline, #g-big_stumps_bubble-mobile-interative-img polygon { vector-effect: non-scaling-stroke; }
</style>
</svg>
