<svg xmlns="http://www.w3.org/2000/svg" width="700" height="397"><rect width="700" height="397" x="0" y="0" fill="#FFFFFF" id="background"/><g transform="translate(100,10)" id="viz"><g id="axis"><g transform="translate(0,337)" fill="none" font-size="10" font-family="sans-serif" text-anchor="middle"><path class="domain" stroke="currentColor" d="M0,6V0H550V6"/><g class="tick" opacity="1" transform="translate(0,0)"><line stroke="currentColor" y2="6"/><text fill="currentColor" y="9" dy="0.71em">15</text></g><g class="tick" opacity="1" transform="translate(68.75,0)"><line stroke="currentColor" y2="6"/><text fill="currentColor" y="9" dy="0.71em">16</text></g><g class="tick" opacity="1" transform="translate(137.5,0)"><line stroke="currentColor" y2="6"/><text fill="currentColor" y="9" dy="0.71em">17</text></g><g class="tick" opacity="1" transform="translate(206.25,0)"><line stroke="currentColor" y2="6"/><text fill="currentColor" y="9" dy="0.71em">18</text></g><g class="tick" opacity="1" transform="translate(275,0)"><line stroke="currentColor" y2="6"/><text fill="currentColor" y="9" dy="0.71em">19</text></g><g class="tick" opacity="1" transform="translate(343.75,0)"><line stroke="currentColor" y2="6"/><text fill="currentColor" y="9" dy="0.71em">20</text></g><g class="tick" opacity="1" transform="translate(412.5,0)"><line stroke="currentColor" y2="6"/><text fill="currentColor" y="9" dy="0.71em">21</text></g><g class="tick" opacity="1" transform="translate(481.25,0)"><line stroke="currentColor" y2="6"/><text fill="currentColor" y="9" dy="0.71em">22</text></g><g class="tick" opacity="1" transform="translate(550,0)"><line stroke="currentColor" y2="6"/><text fill="currentColor" y="9" dy="0.71em">23</text></g><text x="550" dy="-5" text-anchor="end" style="font-family: Arial, sans-serif; font-size: 12px; fill: rgb(123, 123, 123); font-weight: bold;">stumps</text></g><g fill="none" font-size="10" font-family="sans-serif" text-anchor="end"><path class="domain" stroke="currentColor" d="M0,0V337"/><g class="tick" opacity="1" transform="translate(0,169)"><line stroke="currentColor" x2="550" style="stroke: rgb(204, 204, 204);"/><text fill="currentColor" x="-3" dy="0.32em"/></g><text x="4" text-anchor="start" dominant-baseline="hanging" style="font-family: Arial, sans-serif; font-size: 12px; fill: rgb(123, 123, 123); font-weight: bold;"/></g></g><g id="visualization"><g><g id="circles"><circle id="" cx="60.27863519196297" cy="201.7573642711244" r="5.25" style="fill: rgb(31, 119, 180);"/><circle id="" cx="-25.536021657348257" cy="131.2930341994108" r="5.25" style="fill: rgb(31, 119, 180);"/><circle id="" cx="-29.944638686253516" cy="211.70144969870347" r="5.25" style="fill: rgb(31, 119, 180);"/><circle id="" cx="-45.71835670618326" cy="191.3582982673154" r="5.25" style="fill: rgb(31, 119, 180);"/><circle id="" cx="-47.04580748287646" cy="176.91486727910907" r="5.25" style="fill: rgb(31, 119, 180);"/><circle id="" cx="-22.050063974807838" cy="174.6510272240289" r="5.25" style="fill: rgb(31, 119, 180);"/><circle id="" cx="556.9625420624876" cy="170.52126396793946" r="5.25" style="fill: rgb(31, 119, 180);"/><circle id="" cx="203.79719712015293" cy="189.57266095134847" r="5.25" style="fill: rgb(31, 119, 180);"/><circle id="" cx="71.05259275605" cy="211.46192654261026" r="5.25" style="fill: rgb(31, 119, 180);"/><circle id="" cx="-48.3560558537998" cy="162.47329848120472" r="5.25" style="fill: rgb(31, 119, 180);"/><circle id="" cx="49.510747859560674" cy="192.04830643916122" r="5.25" style="fill: rgb(31, 119, 180);"/><circle id="" cx="8.16235276540511" cy="215.56490983638986" r="5.25" style="fill: rgb(31, 119, 180);"/><circle id="" cx="121.01487835584646" cy="138.26670426781834" r="5.25" style="fill: rgb(31, 119, 180);"/><circle id="" cx="168.93775535587167" cy="159.14128555474602" r="5.25" style="fill: rgb(31, 119, 180);"/><circle id="" cx="85.06458653585297" cy="165.35304630344046" r="5.25" style="fill: rgb(31, 119, 180);"/><circle id="" cx="60.35862249453541" cy="160.06340099812047" r="5.25" style="fill: rgb(31, 119, 180);"/><circle id="" cx="-43.103026383681986" cy="205.61991957654098" r="5.25" style="fill: rgb(31, 119, 180);"/><circle id="" cx="117.26364175374736" cy="167.01867061192866" r="5.25" style="fill: rgb(31, 119, 180);"/><circle id="" cx="229.03095542338144" cy="175.27980201728315" r="5.25" style="fill: rgb(31, 119, 180);"/><circle id="" cx="57.54891411709624" cy="174.27270794469058" r="5.25" style="fill: rgb(31, 119, 180);"/><circle id="" cx="-33.88944200829182" cy="182.99223442101868" r="5.25" style="fill: rgb(31, 119, 180);"/><circle id="" cx="101.65311283402558" cy="188.32782361257716" r="5.25" style="fill: rgb(31, 119, 180);"/><circle id="" cx="-31.275053188057832" cy="197.2517958106862" r="5.25" style="fill: rgb(31, 119, 180);"/><circle id="" cx="4.272483329838135" cy="172.21837179353352" r="5.25" style="fill: rgb(31, 119, 180);"/><circle id="" cx="40.11439673887669" cy="139.3908128016636" r="5.25" style="fill: rgb(31, 119, 180);"/><circle id="" cx="116.1416203256993" cy="182.94933136938442" r="5.25" style="fill: rgb(31, 119, 180);"/><circle id="" cx="216.65695448224974" cy="153.42972582338504" r="5.25" style="fill: rgb(31, 119, 180);"/><circle id="" cx="216.413563642728" cy="182.42759611949407" r="5.25" style="fill: rgb(31, 119, 180);"/><circle id="" cx="5.575993608124456" cy="186.63871372405086" r="5.25" style="fill: rgb(31, 119, 180);"/><circle id="" cx="18.686352725625543" cy="192.7965548112484" r="5.25" style="fill: rgb(31, 119, 180);"/><circle id="" cx="-12.38631470465823" cy="137.39503516611614" r="5.25" style="fill: rgb(31, 119, 180);"/><circle id="" cx="46.55663366907684" cy="164.50898764933967" r="5.25" style="fill: rgb(31, 119, 180);"/><circle id="" cx="63.298180198920974" cy="187.57939191499366" r="5.25" style="fill: rgb(31, 119, 180);"/><circle id="" cx="283.7018543294551" cy="182.79346450274357" r="5.25" style="fill: rgb(31, 119, 180);"/><circle id="" cx="-49.65895628413572" cy="148.03164021947188" r="5.25" style="fill: rgb(31, 119, 180);"/><circle id="" cx="74.07097124074188" cy="197.28815575392963" r="5.25" style="fill: rgb(31, 119, 180);"/><circle id="" cx="-16.81253538984939" cy="217.84361383212268" r="5.25" style="fill: rgb(31, 119, 180);"/><circle id="" cx="-6.261555003233914" cy="194.98723070849925" r="5.25" style="fill: rgb(31, 119, 180);"/><circle id="" cx="12.506873387571188" cy="121.31323767923615" r="5.25" style="fill: rgb(31, 119, 180);"/><circle id="" cx="90.87050059934501" cy="178.6253782731212" r="5.25" style="fill: rgb(31, 119, 180);"/><circle id="" cx="0.17996691065713888" cy="129.05449299809013" r="5.25" style="fill: rgb(31, 119, 180);"/><circle id="" cx="74.15951034823448" cy="155.61637086299186" r="5.25" style="fill: rgb(31, 119, 180);"/><circle id="" cx="77.19090672444413" cy="141.44759506977513" r="5.25" style="fill: rgb(31, 119, 180);"/><circle id="" cx="-35.19872195651757" cy="168.56140548331183" r="5.25" style="fill: rgb(31, 119, 180);"/><circle id="" cx="18.813983279758936" cy="163.87338859660582" r="5.25" style="fill: rgb(31, 119, 180);"/><circle id="" cx="145.91352470769993" cy="141.51406259816238" r="5.25" style="fill: rgb(31, 119, 180);"/><circle id="" cx="43.80831779408432" cy="178.7201865637659" r="5.25" style="fill: rgb(31, 119, 180);"/><circle id="" cx="90.97432180486143" cy="136.9808724790278" r="5.25" style="fill: rgb(31, 119, 180);"/><circle id="" cx="87.95419210786656" cy="151.15969607919087" r="5.25" style="fill: rgb(31, 119, 180);"/><circle id="" cx="0.749827719110145" cy="143.52721651156767" r="5.25" style="fill: rgb(31, 119, 180);"/><circle id="" cx="49.60077466775859" cy="150.34196513554707" r="5.25" style="fill: rgb(31, 119, 180);"/><circle id="" cx="167.06090566633935" cy="173.5173593669461" r="5.25" style="fill: rgb(31, 119, 180);"/><circle id="" cx="17.416271995726884" cy="178.2964066733081" r="5.25" style="fill: rgb(31, 119, 180);"/><circle id="" cx="-19.42839047559363" cy="188.89857346608707" r="5.25" style="fill: rgb(31, 119, 180);"/><circle id="" cx="128.76981109047964" cy="175.83448305637376" r="5.25" style="fill: rgb(31, 119, 180);"/><circle id="" cx="270.634348164188" cy="161.3447306067317" r="5.25" style="fill: rgb(31, 119, 180);"/><circle id="" cx="140.2832891272351" cy="184.64754174009178" r="5.25" style="fill: rgb(31, 119, 180);"/><circle id="" cx="157.4256144387276" cy="150.32919585098998" r="5.25" style="fill: rgb(31, 119, 180);"/><circle id="" cx="84.84737561972179" cy="206.98930951184738" r="5.25" style="fill: rgb(31, 119, 180);"/><circle id="" cx="283.35955272254034" cy="168.297991977871" r="5.25" style="fill: rgb(31, 119, 180);"/><circle id="" cx="216.53568167889463" cy="167.92843694296755" r="5.25" style="fill: rgb(31, 119, 180);"/><circle id="" cx="-0.32748907681757244" cy="114.57164826230552" r="5.25" style="fill: rgb(31, 119, 180);"/><circle id="" cx="101.75725290483659" cy="146.66902448138583" r="5.25" style="fill: rgb(31, 119, 180);"/><circle id="" cx="-37.80702553772516" cy="139.67608968005015" r="5.25" style="fill: rgb(31, 119, 180);"/><circle id="" cx="191.30030653899658" cy="182.21962379223262" r="5.25" style="fill: rgb(31, 119, 180);"/><circle id="" cx="-24.653290260795696" cy="145.76325397921494" r="5.25" style="fill: rgb(31, 119, 180);"/><circle id="" cx="-4.988441543525792" cy="209.46715621669927" r="5.25" style="fill: rgb(31, 119, 180);"/><circle id="" cx="151.79783876641486" cy="193.46028548262487" r="5.25" style="fill: rgb(31, 119, 180);"/><circle id="" cx="153.67349398661258" cy="179.08511101254916" r="5.25" style="fill: rgb(31, 119, 180);"/><circle id="" cx="142.16069581194574" cy="170.27438600480627" r="5.25" style="fill: rgb(31, 119, 180);"/><circle id="" cx="543.0374579375124" cy="166.47873603206054" r="5.25" style="fill: rgb(31, 119, 180);"/><circle id="" cx="127.64834797811201" cy="191.75549452475397" r="5.25" style="fill: rgb(31, 119, 180);"/><circle id="" cx="-12.95014342963691" cy="122.9117079460913" r="5.25" style="fill: rgb(31, 119, 180);"/><circle id="" cx="283.01768946289326" cy="153.80227612793277" r="5.25" style="fill: rgb(31, 119, 180);"/><circle id="" cx="31.9140814275713" cy="170.08139489572437" r="5.25" style="fill: rgb(31, 119, 180);"/><circle id="" cx="67.67705248607244" cy="130.51160147681827" r="5.25" style="fill: rgb(31, 119, 180);"/><circle id="" cx="345.9259781933579" cy="176.58422969533652" r="5.25" style="fill: rgb(31, 119, 180);"/><circle id="" cx="104.76264844208255" cy="132.4941129338312" r="5.25" style="fill: rgb(31, 119, 180);"/><circle id="" cx="119.1362519757465" cy="152.64328623894443" r="5.25" style="fill: rgb(31, 119, 180);"/><circle id="" cx="165.18582766178992" cy="187.89482560137415" r="5.25" style="fill: rgb(31, 119, 180);"/><circle id="" cx="270.9775316356961" cy="175.84165692395842" r="5.25" style="fill: rgb(31, 119, 180);"/><circle id="" cx="258.2526461556413" cy="168.88987373405033" r="5.25" style="fill: rgb(31, 119, 180);"/><circle id="" cx="-10.230267560224325" cy="166.3235862038255" r="5.25" style="fill: rgb(31, 119, 180);"/><circle id="" cx="33.15272114881179" cy="213.3783356645183" r="5.25" style="fill: rgb(31, 119, 180);"/><circle id="" cx="132.52569334909884" cy="147.0782465292629" r="5.25" style="fill: rgb(31, 119, 180);"/><circle id="" cx="6.867616523715877" cy="201.12574054140333" r="5.25" style="fill: rgb(255, 127, 14);"/><circle id="" cx="349.6628436581047" cy="162.57351768828727" r="5.25" style="fill: rgb(255, 127, 14);"/><circle id="" cx="13.011267070321182" cy="135.7959095812707" r="5.25" style="fill: rgb(255, 127, 14);"/><circle id="" cx="87.8656259612958" cy="192.80779003981235" r="5.25" style="fill: rgb(255, 127, 14);"/><circle id="" cx="-23.351962676916322" cy="160.21058617857318" r="5.25" style="fill: rgb(255, 127, 14);"/><circle id="" cx="30.51914665340335" cy="184.50350243788105" r="5.25" style="fill: rgb(255, 127, 14);"/><circle id="" cx="25.431777922684464" cy="127.8783279443994" r="5.25" style="fill: rgb(255, 127, 14);"/><circle id="" cx="-18.11992685464427" cy="203.33274627506478" r="5.25" style="fill: rgb(255, 127, 14);"/><circle id="" cx="1.6023032043117598" cy="158.0082402210788" r="5.25" style="fill: rgb(255, 127, 14);"/><circle id="" cx="104.649028854917" cy="174.1403870063731" r="5.25" style="fill: rgb(255, 127, 14);"/><circle id="" cx="204.0396870764907" cy="160.57597201147286" r="5.25" style="fill: rgb(255, 127, 14);"/><circle id="" cx="415.99767481101065" cy="162.1495062462497" r="5.25" style="fill: rgb(255, 127, 14);"/><circle id="" cx="155.55019234641708" cy="164.706553341119" r="5.25" style="fill: rgb(255, 127, 14);"/><circle id="" cx="31.91325074735568" cy="198.93574326401657" r="5.25" style="fill: rgb(255, 127, 14);"/><circle id="" cx="335.66117814853754" cy="166.34225261637621" r="5.25" style="fill: rgb(255, 127, 14);"/><circle id="" cx="98.82892249514721" cy="160.8597115181956" r="5.25" style="fill: rgb(255, 127, 14);"/><circle id="" cx="71.30926978650484" cy="169.8186387951253" r="5.25" style="fill: rgb(255, 127, 14);"/><circle id="" cx="20.019570087667923" cy="207.22973831544968" r="5.25" style="fill: rgb(255, 127, 14);"/><circle id="" cx="130.64934731333588" cy="161.459102056422" r="5.25" style="fill: rgb(255, 127, 14);"/><circle id="" cx="204.1587980206053" cy="146.077935028634" r="5.25" style="fill: rgb(255, 127, 14);"/><circle id="" cx="25.968063324643634" cy="142.35057586350914" r="5.25" style="fill: rgb(255, 127, 14);"/><circle id="" cx="-7.572912680997384" cy="180.5593045489417" r="5.25" style="fill: rgb(255, 127, 14);"/><circle id="" cx="191.42063458857592" cy="167.7211094142766" r="5.25" style="fill: rgb(255, 127, 14);"/><circle id="" cx="409.00232518898935" cy="174.8504937537503" r="5.25" style="fill: rgb(255, 127, 14);"/><circle id="" cx="139.16411802565685" cy="200.56668287827205" r="5.25" style="fill: rgb(255, 127, 14);"/><circle id="" cx="31.89404958448188" cy="155.58949685124125" r="5.25" style="fill: rgb(255, 127, 14);"/><circle id="" cx="191.54143413010374" cy="153.22189888795344" r="5.25" style="fill: rgb(255, 127, 14);"/><circle id="" cx="13.822841694376727" cy="150.2723334234337" r="5.25" style="fill: rgb(255, 127, 14);"/><circle id="" cx="77.09072583892844" cy="183.1161856983169" r="5.25" style="fill: rgb(255, 127, 14);"/><circle id="" cx="-11.508757568548868" cy="151.86110472182474" r="5.25" style="fill: rgb(255, 127, 14);"/><circle id="" cx="81.46148129090017" cy="126.05332422588832" r="5.25" style="fill: rgb(255, 127, 14);"/><circle id="" cx="63.4052160541995" cy="145.89871447876916" r="5.25" style="fill: rgb(255, 127, 14);"/><circle id="" cx="53.88292710727755" cy="134.96363281485773" r="5.25" style="fill: rgb(255, 127, 14);"/><circle id="" cx="144.03822604724812" cy="155.892422055632" r="5.25" style="fill: rgb(255, 127, 14);"/><circle id="" cx="-36.506451472787404" cy="154.11665878807335" r="5.25" style="fill: rgb(255, 127, 14);"/><circle id="" cx="203.91745952494858" cy="175.07389505692134" r="5.25" style="fill: rgb(255, 127, 14);"/></g><g id="labels"><g id="" transform="translate(60.27863519196297,201.7573642711244)"><text x="0" y="0" text-anchor="middle" dominant-baseline="text-before-edge" transform="translate(0,0)"/></g><g id="" transform="translate(-25.536021657348257,131.2930341994108)"><text x="0" y="0" text-anchor="middle" dominant-baseline="text-before-edge" transform="translate(0,0)"/></g><g id="" transform="translate(-29.944638686253516,211.70144969870347)"><text x="0" y="0" text-anchor="middle" dominant-baseline="text-before-edge" transform="translate(0,0)"/></g><g id="" transform="translate(-45.71835670618326,191.3582982673154)"><text x="0" y="0" text-anchor="middle" dominant-baseline="text-before-edge" transform="translate(0,0)"/></g><g id="" transform="translate(-47.04580748287646,176.91486727910907)"><text x="0" y="0" text-anchor="middle" dominant-baseline="text-before-edge" transform="translate(0,0)"/></g><g id="" transform="translate(-22.050063974807838,174.6510272240289)"><text x="0" y="0" text-anchor="middle" dominant-baseline="text-before-edge" transform="translate(0,0)"/></g><g id="" transform="translate(556.9625420624876,170.52126396793946)"><text x="0" y="0" text-anchor="middle" dominant-baseline="text-before-edge" transform="translate(0,0)"/></g><g id="" transform="translate(203.79719712015293,189.57266095134847)"><text x="0" y="0" text-anchor="middle" dominant-baseline="text-before-edge" transform="translate(0,0)"/></g><g id="" transform="translate(71.05259275605,211.46192654261026)"><text x="0" y="0" text-anchor="middle" dominant-baseline="text-before-edge" transform="translate(0,0)"/></g><g id="" transform="translate(-48.3560558537998,162.47329848120472)"><text x="0" y="0" text-anchor="middle" dominant-baseline="text-before-edge" transform="translate(0,0)"/></g><g id="" transform="translate(49.510747859560674,192.04830643916122)"><text x="0" y="0" text-anchor="middle" dominant-baseline="text-before-edge" transform="translate(0,0)"/></g><g id="" transform="translate(8.16235276540511,215.56490983638986)"><text x="0" y="0" text-anchor="middle" dominant-baseline="text-before-edge" transform="translate(0,0)"/></g><g id="" transform="translate(121.01487835584646,138.26670426781834)"><text x="0" y="0" text-anchor="middle" dominant-baseline="text-before-edge" transform="translate(0,0)"/></g><g id="" transform="translate(168.93775535587167,159.14128555474602)"><text x="0" y="0" text-anchor="middle" dominant-baseline="text-before-edge" transform="translate(0,0)"/></g><g id="" transform="translate(85.06458653585297,165.35304630344046)"><text x="0" y="0" text-anchor="middle" dominant-baseline="text-before-edge" transform="translate(0,0)"/></g><g id="" transform="translate(60.35862249453541,160.06340099812047)"><text x="0" y="0" text-anchor="middle" dominant-baseline="text-before-edge" transform="translate(0,0)"/></g><g id="" transform="translate(-43.103026383681986,205.61991957654098)"><text x="0" y="0" text-anchor="middle" dominant-baseline="text-before-edge" transform="translate(0,0)"/></g><g id="" transform="translate(117.26364175374736,167.01867061192866)"><text x="0" y="0" text-anchor="middle" dominant-baseline="text-before-edge" transform="translate(0,0)"/></g><g id="" transform="translate(229.03095542338144,175.27980201728315)"><text x="0" y="0" text-anchor="middle" dominant-baseline="text-before-edge" transform="translate(0,0)"/></g><g id="" transform="translate(57.54891411709624,174.27270794469058)"><text x="0" y="0" text-anchor="middle" dominant-baseline="text-before-edge" transform="translate(0,0)"/></g><g id="" transform="translate(-33.88944200829182,182.99223442101868)"><text x="0" y="0" text-anchor="middle" dominant-baseline="text-before-edge" transform="translate(0,0)"/></g><g id="" transform="translate(101.65311283402558,188.32782361257716)"><text x="0" y="0" text-anchor="middle" dominant-baseline="text-before-edge" transform="translate(0,0)"/></g><g id="" transform="translate(-31.275053188057832,197.2517958106862)"><text x="0" y="0" text-anchor="middle" dominant-baseline="text-before-edge" transform="translate(0,0)"/></g><g id="" transform="translate(4.272483329838135,172.21837179353352)"><text x="0" y="0" text-anchor="middle" dominant-baseline="text-before-edge" transform="translate(0,0)"/></g><g id="" transform="translate(40.11439673887669,139.3908128016636)"><text x="0" y="0" text-anchor="middle" dominant-baseline="text-before-edge" transform="translate(0,0)"/></g><g id="" transform="translate(116.1416203256993,182.94933136938442)"><text x="0" y="0" text-anchor="middle" dominant-baseline="text-before-edge" transform="translate(0,0)"/></g><g id="" transform="translate(216.65695448224974,153.42972582338504)"><text x="0" y="0" text-anchor="middle" dominant-baseline="text-before-edge" transform="translate(0,0)"/></g><g id="" transform="translate(216.413563642728,182.42759611949407)"><text x="0" y="0" text-anchor="middle" dominant-baseline="text-before-edge" transform="translate(0,0)"/></g><g id="" transform="translate(5.575993608124456,186.63871372405086)"><text x="0" y="0" text-anchor="middle" dominant-baseline="text-before-edge" transform="translate(0,0)"/></g><g id="" transform="translate(18.686352725625543,192.7965548112484)"><text x="0" y="0" text-anchor="middle" dominant-baseline="text-before-edge" transform="translate(0,0)"/></g><g id="" transform="translate(-12.38631470465823,137.39503516611614)"><text x="0" y="0" text-anchor="middle" dominant-baseline="text-before-edge" transform="translate(0,0)"/></g><g id="" transform="translate(46.55663366907684,164.50898764933967)"><text x="0" y="0" text-anchor="middle" dominant-baseline="text-before-edge" transform="translate(0,0)"/></g><g id="" transform="translate(63.298180198920974,187.57939191499366)"><text x="0" y="0" text-anchor="middle" dominant-baseline="text-before-edge" transform="translate(0,0)"/></g><g id="" transform="translate(283.7018543294551,182.79346450274357)"><text x="0" y="0" text-anchor="middle" dominant-baseline="text-before-edge" transform="translate(0,0)"/></g><g id="" transform="translate(-49.65895628413572,148.03164021947188)"><text x="0" y="0" text-anchor="middle" dominant-baseline="text-before-edge" transform="translate(0,0)"/></g><g id="" transform="translate(74.07097124074188,197.28815575392963)"><text x="0" y="0" text-anchor="middle" dominant-baseline="text-before-edge" transform="translate(0,0)"/></g><g id="" transform="translate(-16.81253538984939,217.84361383212268)"><text x="0" y="0" text-anchor="middle" dominant-baseline="text-before-edge" transform="translate(0,0)"/></g><g id="" transform="translate(-6.261555003233914,194.98723070849925)"><text x="0" y="0" text-anchor="middle" dominant-baseline="text-before-edge" transform="translate(0,0)"/></g><g id="" transform="translate(12.506873387571188,121.31323767923615)"><text x="0" y="0" text-anchor="middle" dominant-baseline="text-before-edge" transform="translate(0,0)"/></g><g id="" transform="translate(90.87050059934501,178.6253782731212)"><text x="0" y="0" text-anchor="middle" dominant-baseline="text-before-edge" transform="translate(0,0)"/></g><g id="" transform="translate(0.17996691065713888,129.05449299809013)"><text x="0" y="0" text-anchor="middle" dominant-baseline="text-before-edge" transform="translate(0,0)"/></g><g id="" transform="translate(74.15951034823448,155.61637086299186)"><text x="0" y="0" text-anchor="middle" dominant-baseline="text-before-edge" transform="translate(0,0)"/></g><g id="" transform="translate(77.19090672444413,141.44759506977513)"><text x="0" y="0" text-anchor="middle" dominant-baseline="text-before-edge" transform="translate(0,0)"/></g><g id="" transform="translate(-35.19872195651757,168.56140548331183)"><text x="0" y="0" text-anchor="middle" dominant-baseline="text-before-edge" transform="translate(0,0)"/></g><g id="" transform="translate(18.813983279758936,163.87338859660582)"><text x="0" y="0" text-anchor="middle" dominant-baseline="text-before-edge" transform="translate(0,0)"/></g><g id="" transform="translate(145.91352470769993,141.51406259816238)"><text x="0" y="0" text-anchor="middle" dominant-baseline="text-before-edge" transform="translate(0,0)"/></g><g id="" transform="translate(43.80831779408432,178.7201865637659)"><text x="0" y="0" text-anchor="middle" dominant-baseline="text-before-edge" transform="translate(0,0)"/></g><g id="" transform="translate(90.97432180486143,136.9808724790278)"><text x="0" y="0" text-anchor="middle" dominant-baseline="text-before-edge" transform="translate(0,0)"/></g><g id="" transform="translate(87.95419210786656,151.15969607919087)"><text x="0" y="0" text-anchor="middle" dominant-baseline="text-before-edge" transform="translate(0,0)"/></g><g id="" transform="translate(0.749827719110145,143.52721651156767)"><text x="0" y="0" text-anchor="middle" dominant-baseline="text-before-edge" transform="translate(0,0)"/></g><g id="" transform="translate(49.60077466775859,150.34196513554707)"><text x="0" y="0" text-anchor="middle" dominant-baseline="text-before-edge" transform="translate(0,0)"/></g><g id="" transform="translate(167.06090566633935,173.5173593669461)"><text x="0" y="0" text-anchor="middle" dominant-baseline="text-before-edge" transform="translate(0,0)"/></g><g id="" transform="translate(17.416271995726884,178.2964066733081)"><text x="0" y="0" text-anchor="middle" dominant-baseline="text-before-edge" transform="translate(0,0)"/></g><g id="" transform="translate(-19.42839047559363,188.89857346608707)"><text x="0" y="0" text-anchor="middle" dominant-baseline="text-before-edge" transform="translate(0,0)"/></g><g id="" transform="translate(128.76981109047964,175.83448305637376)"><text x="0" y="0" text-anchor="middle" dominant-baseline="text-before-edge" transform="translate(0,0)"/></g><g id="" transform="translate(270.634348164188,161.3447306067317)"><text x="0" y="0" text-anchor="middle" dominant-baseline="text-before-edge" transform="translate(0,0)"/></g><g id="" transform="translate(140.2832891272351,184.64754174009178)"><text x="0" y="0" text-anchor="middle" dominant-baseline="text-before-edge" transform="translate(0,0)"/></g><g id="" transform="translate(157.4256144387276,150.32919585098998)"><text x="0" y="0" text-anchor="middle" dominant-baseline="text-before-edge" transform="translate(0,0)"/></g><g id="" transform="translate(84.84737561972179,206.98930951184738)"><text x="0" y="0" text-anchor="middle" dominant-baseline="text-before-edge" transform="translate(0,0)"/></g><g id="" transform="translate(283.35955272254034,168.297991977871)"><text x="0" y="0" text-anchor="middle" dominant-baseline="text-before-edge" transform="translate(0,0)"/></g><g id="" transform="translate(216.53568167889463,167.92843694296755)"><text x="0" y="0" text-anchor="middle" dominant-baseline="text-before-edge" transform="translate(0,0)"/></g><g id="" transform="translate(-0.32748907681757244,114.57164826230552)"><text x="0" y="0" text-anchor="middle" dominant-baseline="text-before-edge" transform="translate(0,0)"/></g><g id="" transform="translate(101.75725290483659,146.66902448138583)"><text x="0" y="0" text-anchor="middle" dominant-baseline="text-before-edge" transform="translate(0,0)"/></g><g id="" transform="translate(-37.80702553772516,139.67608968005015)"><text x="0" y="0" text-anchor="middle" dominant-baseline="text-before-edge" transform="translate(0,0)"/></g><g id="" transform="translate(191.30030653899658,182.21962379223262)"><text x="0" y="0" text-anchor="middle" dominant-baseline="text-before-edge" transform="translate(0,0)"/></g><g id="" transform="translate(-24.653290260795696,145.76325397921494)"><text x="0" y="0" text-anchor="middle" dominant-baseline="text-before-edge" transform="translate(0,0)"/></g><g id="" transform="translate(-4.988441543525792,209.46715621669927)"><text x="0" y="0" text-anchor="middle" dominant-baseline="text-before-edge" transform="translate(0,0)"/></g><g id="" transform="translate(151.79783876641486,193.46028548262487)"><text x="0" y="0" text-anchor="middle" dominant-baseline="text-before-edge" transform="translate(0,0)"/></g><g id="" transform="translate(153.67349398661258,179.08511101254916)"><text x="0" y="0" text-anchor="middle" dominant-baseline="text-before-edge" transform="translate(0,0)"/></g><g id="" transform="translate(142.16069581194574,170.27438600480627)"><text x="0" y="0" text-anchor="middle" dominant-baseline="text-before-edge" transform="translate(0,0)"/></g><g id="" transform="translate(543.0374579375124,166.47873603206054)"><text x="0" y="0" text-anchor="middle" dominant-baseline="text-before-edge" transform="translate(0,0)"/></g><g id="" transform="translate(127.64834797811201,191.75549452475397)"><text x="0" y="0" text-anchor="middle" dominant-baseline="text-before-edge" transform="translate(0,0)"/></g><g id="" transform="translate(-12.95014342963691,122.9117079460913)"><text x="0" y="0" text-anchor="middle" dominant-baseline="text-before-edge" transform="translate(0,0)"/></g><g id="" transform="translate(283.01768946289326,153.80227612793277)"><text x="0" y="0" text-anchor="middle" dominant-baseline="text-before-edge" transform="translate(0,0)"/></g><g id="" transform="translate(31.9140814275713,170.08139489572437)"><text x="0" y="0" text-anchor="middle" dominant-baseline="text-before-edge" transform="translate(0,0)"/></g><g id="" transform="translate(67.67705248607244,130.51160147681827)"><text x="0" y="0" text-anchor="middle" dominant-baseline="text-before-edge" transform="translate(0,0)"/></g><g id="" transform="translate(345.9259781933579,176.58422969533652)"><text x="0" y="0" text-anchor="middle" dominant-baseline="text-before-edge" transform="translate(0,0)"/></g><g id="" transform="translate(104.76264844208255,132.4941129338312)"><text x="0" y="0" text-anchor="middle" dominant-baseline="text-before-edge" transform="translate(0,0)"/></g><g id="" transform="translate(119.1362519757465,152.64328623894443)"><text x="0" y="0" text-anchor="middle" dominant-baseline="text-before-edge" transform="translate(0,0)"/></g><g id="" transform="translate(165.18582766178992,187.89482560137415)"><text x="0" y="0" text-anchor="middle" dominant-baseline="text-before-edge" transform="translate(0,0)"/></g><g id="" transform="translate(270.9775316356961,175.84165692395842)"><text x="0" y="0" text-anchor="middle" dominant-baseline="text-before-edge" transform="translate(0,0)"/></g><g id="" transform="translate(258.2526461556413,168.88987373405033)"><text x="0" y="0" text-anchor="middle" dominant-baseline="text-before-edge" transform="translate(0,0)"/></g><g id="" transform="translate(-10.230267560224325,166.3235862038255)"><text x="0" y="0" text-anchor="middle" dominant-baseline="text-before-edge" transform="translate(0,0)"/></g><g id="" transform="translate(33.15272114881179,213.3783356645183)"><text x="0" y="0" text-anchor="middle" dominant-baseline="text-before-edge" transform="translate(0,0)"/></g><g id="" transform="translate(132.52569334909884,147.0782465292629)"><text x="0" y="0" text-anchor="middle" dominant-baseline="text-before-edge" transform="translate(0,0)"/></g><g id="" transform="translate(6.867616523715877,201.12574054140333)"><text x="0" y="0" text-anchor="middle" dominant-baseline="text-before-edge" transform="translate(0,0)"/></g><g id="" transform="translate(349.6628436581047,162.57351768828727)"><text x="0" y="0" text-anchor="middle" dominant-baseline="text-before-edge" transform="translate(0,0)"/></g><g id="" transform="translate(13.011267070321182,135.7959095812707)"><text x="0" y="0" text-anchor="middle" dominant-baseline="text-before-edge" transform="translate(0,0)"/></g><g id="" transform="translate(87.8656259612958,192.80779003981235)"><text x="0" y="0" text-anchor="middle" dominant-baseline="text-before-edge" transform="translate(0,0)"/></g><g id="" transform="translate(-23.351962676916322,160.21058617857318)"><text x="0" y="0" text-anchor="middle" dominant-baseline="text-before-edge" transform="translate(0,0)"/></g><g id="" transform="translate(30.51914665340335,184.50350243788105)"><text x="0" y="0" text-anchor="middle" dominant-baseline="text-before-edge" transform="translate(0,0)"/></g><g id="" transform="translate(25.431777922684464,127.8783279443994)"><text x="0" y="0" text-anchor="middle" dominant-baseline="text-before-edge" transform="translate(0,0)"/></g><g id="" transform="translate(-18.11992685464427,203.33274627506478)"><text x="0" y="0" text-anchor="middle" dominant-baseline="text-before-edge" transform="translate(0,0)"/></g><g id="" transform="translate(1.6023032043117598,158.0082402210788)"><text x="0" y="0" text-anchor="middle" dominant-baseline="text-before-edge" transform="translate(0,0)"/></g><g id="" transform="translate(104.649028854917,174.1403870063731)"><text x="0" y="0" text-anchor="middle" dominant-baseline="text-before-edge" transform="translate(0,0)"/></g><g id="" transform="translate(204.0396870764907,160.57597201147286)"><text x="0" y="0" text-anchor="middle" dominant-baseline="text-before-edge" transform="translate(0,0)"/></g><g id="" transform="translate(415.99767481101065,162.1495062462497)"><text x="0" y="0" text-anchor="middle" dominant-baseline="text-before-edge" transform="translate(0,0)"/></g><g id="" transform="translate(155.55019234641708,164.706553341119)"><text x="0" y="0" text-anchor="middle" dominant-baseline="text-before-edge" transform="translate(0,0)"/></g><g id="" transform="translate(31.91325074735568,198.93574326401657)"><text x="0" y="0" text-anchor="middle" dominant-baseline="text-before-edge" transform="translate(0,0)"/></g><g id="" transform="translate(335.66117814853754,166.34225261637621)"><text x="0" y="0" text-anchor="middle" dominant-baseline="text-before-edge" transform="translate(0,0)"/></g><g id="" transform="translate(98.82892249514721,160.8597115181956)"><text x="0" y="0" text-anchor="middle" dominant-baseline="text-before-edge" transform="translate(0,0)"/></g><g id="" transform="translate(71.30926978650484,169.8186387951253)"><text x="0" y="0" text-anchor="middle" dominant-baseline="text-before-edge" transform="translate(0,0)"/></g><g id="" transform="translate(20.019570087667923,207.22973831544968)"><text x="0" y="0" text-anchor="middle" dominant-baseline="text-before-edge" transform="translate(0,0)"/></g><g id="" transform="translate(130.64934731333588,161.459102056422)"><text x="0" y="0" text-anchor="middle" dominant-baseline="text-before-edge" transform="translate(0,0)"/></g><g id="" transform="translate(204.1587980206053,146.077935028634)"><text x="0" y="0" text-anchor="middle" dominant-baseline="text-before-edge" transform="translate(0,0)"/></g><g id="" transform="translate(25.968063324643634,142.35057586350914)"><text x="0" y="0" text-anchor="middle" dominant-baseline="text-before-edge" transform="translate(0,0)"/></g><g id="" transform="translate(-7.572912680997384,180.5593045489417)"><text x="0" y="0" text-anchor="middle" dominant-baseline="text-before-edge" transform="translate(0,0)"/></g><g id="" transform="translate(191.42063458857592,167.7211094142766)"><text x="0" y="0" text-anchor="middle" dominant-baseline="text-before-edge" transform="translate(0,0)"/></g><g id="" transform="translate(409.00232518898935,174.8504937537503)"><text x="0" y="0" text-anchor="middle" dominant-baseline="text-before-edge" transform="translate(0,0)"/></g><g id="" transform="translate(139.16411802565685,200.56668287827205)"><text x="0" y="0" text-anchor="middle" dominant-baseline="text-before-edge" transform="translate(0,0)"/></g><g id="" transform="translate(31.89404958448188,155.58949685124125)"><text x="0" y="0" text-anchor="middle" dominant-baseline="text-before-edge" transform="translate(0,0)"/></g><g id="" transform="translate(191.54143413010374,153.22189888795344)"><text x="0" y="0" text-anchor="middle" dominant-baseline="text-before-edge" transform="translate(0,0)"/></g><g id="" transform="translate(13.822841694376727,150.2723334234337)"><text x="0" y="0" text-anchor="middle" dominant-baseline="text-before-edge" transform="translate(0,0)"/></g><g id="" transform="translate(77.09072583892844,183.1161856983169)"><text x="0" y="0" text-anchor="middle" dominant-baseline="text-before-edge" transform="translate(0,0)"/></g><g id="" transform="translate(-11.508757568548868,151.86110472182474)"><text x="0" y="0" text-anchor="middle" dominant-baseline="text-before-edge" transform="translate(0,0)"/></g><g id="" transform="translate(81.46148129090017,126.05332422588832)"><text x="0" y="0" text-anchor="middle" dominant-baseline="text-before-edge" transform="translate(0,0)"/></g><g id="" transform="translate(63.4052160541995,145.89871447876916)"><text x="0" y="0" text-anchor="middle" dominant-baseline="text-before-edge" transform="translate(0,0)"/></g><g id="" transform="translate(53.88292710727755,134.96363281485773)"><text x="0" y="0" text-anchor="middle" dominant-baseline="text-before-edge" transform="translate(0,0)"/></g><g id="" transform="translate(144.03822604724812,155.892422055632)"><text x="0" y="0" text-anchor="middle" dominant-baseline="text-before-edge" transform="translate(0,0)"/></g><g id="" transform="translate(-36.506451472787404,154.11665878807335)"><text x="0" y="0" text-anchor="middle" dominant-baseline="text-before-edge" transform="translate(0,0)"/></g><g id="" transform="translate(203.91745952494858,175.07389505692134)"><text x="0" y="0" text-anchor="middle" dominant-baseline="text-before-edge" transform="translate(0,0)"/></g></g></g></g></g></svg>