<svg xmlns="http://www.w3.org/2000/svg" width="490" height="397"><rect width="490" height="397" x="0" y="0" fill="#FFFFFF" id="background"/><g transform="translate(100,10)" id="viz"><g id="axis"><g transform="translate(0,337)" fill="none" font-size="10" font-family="sans-serif" text-anchor="middle"><path class="domain" stroke="currentColor" d="M0,6V0H340V6"/><g class="tick" opacity="1" transform="translate(0,0)"><line stroke="currentColor" y2="6"/><text fill="currentColor" y="9" dy="0.71em">15</text></g><g class="tick" opacity="1" transform="translate(42.5,0)"><line stroke="currentColor" y2="6"/><text fill="currentColor" y="9" dy="0.71em">16</text></g><g class="tick" opacity="1" transform="translate(85,0)"><line stroke="currentColor" y2="6"/><text fill="currentColor" y="9" dy="0.71em">17</text></g><g class="tick" opacity="1" transform="translate(127.5,0)"><line stroke="currentColor" y2="6"/><text fill="currentColor" y="9" dy="0.71em">18</text></g><g class="tick" opacity="1" transform="translate(170,0)"><line stroke="currentColor" y2="6"/><text fill="currentColor" y="9" dy="0.71em">19</text></g><g class="tick" opacity="1" transform="translate(212.5,0)"><line stroke="currentColor" y2="6"/><text fill="currentColor" y="9" dy="0.71em">20</text></g><g class="tick" opacity="1" transform="translate(255,0)"><line stroke="currentColor" y2="6"/><text fill="currentColor" y="9" dy="0.71em">21</text></g><g class="tick" opacity="1" transform="translate(297.5,0)"><line stroke="currentColor" y2="6"/><text fill="currentColor" y="9" dy="0.71em">22</text></g><g class="tick" opacity="1" transform="translate(340,0)"><line stroke="currentColor" y2="6"/><text fill="currentColor" y="9" dy="0.71em">23</text></g><text x="340" dy="-5" text-anchor="end" style="font-family: Arial, sans-serif; font-size: 12px; fill: rgb(123, 123, 123); font-weight: bold;">stumps</text></g><g fill="none" font-size="10" font-family="sans-serif" text-anchor="end"><path class="domain" stroke="currentColor" d="M0,0V337"/><g class="tick" opacity="1" transform="translate(0,169)"><line stroke="currentColor" x2="340" style="stroke: rgb(204, 204, 204);"/><text fill="currentColor" x="-3" dy="0.32em"/></g><text x="4" text-anchor="start" dominant-baseline="hanging" style="font-family: Arial, sans-serif; font-size: 12px; fill: rgb(123, 123, 123); font-weight: bold;"/></g></g><g id="visualization"><g><g id="circles"><circle id="" cx="11.404903082753055" cy="207.98231177605334" r="5.25" style="fill: rgb(31, 119, 180);"/><circle id="" cx="40.07021472762077" cy="212.3370106678579" r="5.25" style="fill: rgb(31, 119, 180);"/><circle id="" cx="-41.91676429643236" cy="173.05402124118447" r="5.25" style="fill: rgb(31, 119, 180);"/><circle id="" cx="-39.054827007927756" cy="132.95107902438912" r="5.25" style="fill: rgb(31, 119, 180);"/><circle id="" cx="-29.361665078216976" cy="122.17100138433516" r="5.25" style="fill: rgb(31, 119, 180);"/><circle id="" cx="16.4754997515778" cy="221.56013873885087" r="5.25" style="fill: rgb(31, 119, 180);"/><circle id="" cx="346.96260687436757" cy="170.52104070048327" r="5.25" style="fill: rgb(31, 119, 180);"/><circle id="" cx="147.3401765056332" cy="195.92957523887912" r="5.25" style="fill: rgb(31, 119, 180);"/><circle id="" cx="35.295247923143016" cy="198.65285944597323" r="5.25" style="fill: rgb(31, 119, 180);"/><circle id="" cx="3.5382541999482786" cy="141.69263745088298" r="5.25" style="fill: rgb(31, 119, 180);"/><circle id="" cx="21.912445050782352" cy="144.2538617588073" r="5.25" style="fill: rgb(31, 119, 180);"/><circle id="" cx="-60.904827595079276" cy="155.09437766966826" r="5.25" style="fill: rgb(31, 119, 180);"/><circle id="" cx="79.41616250799733" cy="199.64891380441674" r="5.25" style="fill: rgb(31, 119, 180);"/><circle id="" cx="85.04699578170143" cy="123.40479162457106" r="5.25" style="fill: rgb(31, 119, 180);"/><circle id="" cx="71.53714467929044" cy="212.6571248222043" r="5.25" style="fill: rgb(31, 119, 180);"/><circle id="" cx="76.07889434700701" cy="134.78896047422143" r="5.25" style="fill: rgb(31, 119, 180);"/><circle id="" cx="-22.834488400480744" cy="189.6569420944144" r="5.25" style="fill: rgb(31, 119, 180);"/><circle id="" cx="86.02419723965421" cy="212.66778176003874" r="5.25" style="fill: rgb(31, 119, 180);"/><circle id="" cx="135.50591795903884" cy="187.57038228637487" r="5.25" style="fill: rgb(31, 119, 180);"/><circle id="" cx="101.95067219884925" cy="188.44815336267615" r="5.25" style="fill: rgb(31, 119, 180);"/><circle id="" cx="-4.753724132677859" cy="113.95167592030084" r="5.25" style="fill: rgb(31, 119, 180);"/><circle id="" cx="43.972849401785155" cy="187.04100209937883" r="5.25" style="fill: rgb(31, 119, 180);"/><circle id="" cx="-4.364183898850016" cy="167.45908006417977" r="5.25" style="fill: rgb(31, 119, 180);"/><circle id="" cx="2.1708532599609547" cy="219.20767195692406" r="5.25" style="fill: rgb(31, 119, 180);"/><circle id="" cx="-46.91614728908036" cy="158.8423486419189" r="5.25" style="fill: rgb(31, 119, 180);"/><circle id="" cx="93.8894602050658" cy="200.50075157665103" r="5.25" style="fill: rgb(31, 119, 180);"/><circle id="" cx="125.31417252706949" cy="177.27821140008479" r="5.25" style="fill: rgb(31, 119, 180);"/><circle id="" cx="148.6416965719382" cy="181.43798961349495" r="5.25" style="fill: rgb(31, 119, 180);"/><circle id="" cx="24.21998634381478" cy="171.86070640829038" r="5.25" style="fill: rgb(31, 119, 180);"/><circle id="" cx="-15.18200508317504" cy="125.17221716816543" r="5.25" style="fill: rgb(31, 119, 180);"/><circle id="" cx="-12.510518680409712" cy="216.74184149238513" r="5.25" style="fill: rgb(31, 119, 180);"/><circle id="" cx="67.5412029171198" cy="173.2362979385784" r="5.25" style="fill: rgb(31, 119, 180);"/><circle id="" cx="9.884787586725942" cy="169.75905604293519" r="5.25" style="fill: rgb(31, 119, 180);"/><circle id="" cx="164.52864285513763" cy="181.39231404334603" r="5.25" style="fill: rgb(31, 119, 180);"/><circle id="" cx="32.58786653491437" cy="134.48632936921942" r="5.25" style="fill: rgb(31, 119, 180);"/><circle id="" cx="25.72314292979307" cy="210.24882495320637" r="5.25" style="fill: rgb(31, 119, 180);"/><circle id="" cx="-51.99085738035351" cy="143.65886895972622" r="5.25" style="fill: rgb(31, 119, 180);"/><circle id="" cx="-27.14283298804914" cy="214.3092157295823" r="5.25" style="fill: rgb(31, 119, 180);"/><circle id="" cx="20.535162483108152" cy="196.7170078074003" r="5.25" style="fill: rgb(31, 119, 180);"/><circle id="" cx="48.20977921830002" cy="224.32872292998607" r="5.25" style="fill: rgb(31, 119, 180);"/><circle id="" cx="-13.493114165061879" cy="178.65070114169066" r="5.25" style="fill: rgb(31, 119, 180);"/><circle id="" cx="32.9464171982141" cy="160.28810611391805" r="5.25" style="fill: rgb(31, 119, 180);"/><circle id="" cx="58.46786424233729" cy="186.85154001275612" r="5.25" style="fill: rgb(31, 119, 180);"/><circle id="" cx="29.551677185029867" cy="185.34250716330203" r="5.25" style="fill: rgb(31, 119, 180);"/><circle id="" cx="-46.45050313676279" cy="198.1371364009779" r="5.25" style="fill: rgb(31, 119, 180);"/><circle id="" cx="81.97290912457095" cy="174.1023111444024" r="5.25" style="fill: rgb(31, 119, 180);"/><circle id="" cx="57.04754240277141" cy="212.83804482201543" r="5.25" style="fill: rgb(31, 119, 180);"/><circle id="" cx="68.90565669755003" cy="147.37436460914603" r="5.25" style="fill: rgb(31, 119, 180);"/><circle id="" cx="72.96603918550156" cy="186.67333362764208" r="5.25" style="fill: rgb(31, 119, 180);"/><circle id="" cx="-0.951553876749779" cy="127.9486615806853" r="5.25" style="fill: rgb(31, 119, 180);"/><circle id="" cx="53.08309143324686" cy="173.42583971331678" r="5.25" style="fill: rgb(31, 119, 180);"/><circle id="" cx="83.35547806309717" cy="148.38624388072495" r="5.25" style="fill: rgb(31, 119, 180);"/><circle id="" cx="15.208937537902639" cy="183.2268565174707" r="5.25" style="fill: rgb(31, 119, 180);"/><circle id="" cx="-32.16994083490391" cy="200.70124791000563" r="5.25" style="fill: rgb(31, 119, 180);"/><circle id="" cx="119.29106054191787" cy="164.09143394155717" r="5.25" style="fill: rgb(31, 119, 180);"/><circle id="" cx="178.90261028902043" cy="179.48775816216386" r="5.25" style="fill: rgb(31, 119, 180);"/><circle id="" cx="105.97306029490161" cy="137.4403548254288" r="5.25" style="fill: rgb(31, 119, 180);"/><circle id="" cx="76.06754178129077" cy="160.8993756318187" r="5.25" style="fill: rgb(31, 119, 180);"/><circle id="" cx="47.2394776936233" cy="160.11846318655262" r="5.25" style="fill: rgb(31, 119, 180);"/><circle id="" cx="184.42764262604464" cy="166.08244059121438" r="5.25" style="fill: rgb(31, 119, 180);"/><circle id="" cx="138.42981404700535" cy="171.1436127717168" r="5.25" style="fill: rgb(31, 119, 180);"/><circle id="" cx="-38.0096191183686" cy="147.40471589197008" r="5.25" style="fill: rgb(31, 119, 180);"/><circle id="" cx="54.40485091717648" cy="147.47369026095498" r="5.25" style="fill: rgb(31, 119, 180);"/><circle id="" cx="-32.757713332140035" cy="161.83446511613823" r="5.25" style="fill: rgb(31, 119, 180);"/><circle id="" cx="152.42725504215184" cy="167.36926397035066" r="5.25" style="fill: rgb(31, 119, 180);"/><circle id="" cx="-3.1060241539831352" cy="205.71291268773612" r="5.25" style="fill: rgb(31, 119, 180);"/><circle id="" cx="-23.857546360176404" cy="150.40488917002" r="5.25" style="fill: rgb(31, 119, 180);"/><circle id="" cx="108.35186225907034" cy="201.44510421897706" r="5.25" style="fill: rgb(31, 119, 180);"/><circle id="" cx="91.47812416067886" cy="136.39346520346487" r="5.25" style="fill: rgb(31, 119, 180);"/><circle id="" cx="90.40622900146575" cy="161.88245530750697" r="5.25" style="fill: rgb(31, 119, 180);"/><circle id="" cx="333.03739312563243" cy="166.47895929951673" r="5.25" style="fill: rgb(31, 119, 180);"/><circle id="" cx="112.2732068367741" cy="150.5009746988597" r="5.25" style="fill: rgb(31, 119, 180);"/><circle id="" cx="-41.52621360120661" cy="211.77870667389794" r="5.25" style="fill: rgb(31, 119, 180);"/><circle id="" cx="175.962668489214" cy="154.31095252929975" r="5.25" style="fill: rgb(31, 119, 180);"/><circle id="" cx="18.785748962592056" cy="158.36246901533306" r="5.25" style="fill: rgb(31, 119, 180);"/><circle id="" cx="47.07747589594219" cy="134.95685129512685" r="5.25" style="fill: rgb(31, 119, 180);"/><circle id="" cx="208.7315215573783" cy="154.499287465517" r="5.25" style="fill: rgb(31, 119, 180);"/><circle id="" cx="61.57750884785976" cy="134.8765481233355" r="5.25" style="fill: rgb(31, 119, 180);"/><circle id="" cx="104.87355495495592" cy="162.96027112986138" r="5.25" style="fill: rgb(31, 119, 180);"/><circle id="" cx="96.42775410981154" cy="175.07164054272423" r="5.25" style="fill: rgb(31, 119, 180);"/><circle id="" cx="170.05228909430923" cy="167.9852026979908" r="5.25" style="fill: rgb(31, 119, 180);"/><circle id="" cx="161.57619710543744" cy="156.12187508961804" r="5.25" style="fill: rgb(31, 119, 180);"/><circle id="" cx="-56.09136891612686" cy="170.05149639971222" r="5.25" style="fill: rgb(31, 119, 180);"/><circle id="" cx="-18.988944423435367" cy="111.19745608742929" r="5.25" style="fill: rgb(31, 119, 180);"/><circle id="" cx="87.4741789761251" cy="187.5122877357134" r="5.25" style="fill: rgb(31, 119, 180);"/><circle id="" cx="-51.27872796336855" cy="184.11291564641294" r="5.25" style="fill: rgb(255, 127, 14);"/><circle id="" cx="212.49987174472406" cy="168.4995235158339" r="5.25" style="fill: rgb(255, 127, 14);"/><circle id="" cx="-18.56177441304698" cy="164.81254505881176" r="5.25" style="fill: rgb(255, 127, 14);"/><circle id="" cx="38.57863970067258" cy="173.6213524718113" r="5.25" style="fill: rgb(255, 127, 14);"/><circle id="" cx="-9.718645971926344" cy="153.39223834360206" r="5.25" style="fill: rgb(255, 127, 14);"/><circle id="" cx="14.254843634415144" cy="131.96655199811426" r="5.25" style="fill: rgb(255, 127, 14);"/><circle id="" cx="24.94275044734501" cy="122.16401719571097" r="5.25" style="fill: rgb(255, 127, 14);"/><circle id="" cx="-17.79210091664809" cy="203.23896314385593" r="5.25" style="fill: rgb(255, 127, 14);"/><circle id="" cx="-27.738430916421887" cy="175.99662535601175" r="5.25" style="fill: rgb(255, 127, 14);"/><circle id="" cx="49.744413687895914" cy="200.31118616520985" r="5.25" style="fill: rgb(255, 127, 14);"/><circle id="" cx="117.047581224642" cy="189.27600450765357" r="5.25" style="fill: rgb(255, 127, 14);"/><circle id="" cx="258.49767207147215" cy="162.14950473738907" r="5.25" style="fill: rgb(255, 127, 14);"/><circle id="" cx="99.62729880335056" cy="124.4034976632894" r="5.25" style="fill: rgb(255, 127, 14);"/><circle id="" cx="-24.87223066568754" cy="135.95060827319622" r="5.25" style="fill: rgb(255, 127, 14);"/><circle id="" cx="216.2686066978974" cy="182.50118901864926" r="5.25" style="fill: rgb(255, 127, 14);"/><circle id="" cx="64.24337940033567" cy="200.13800081433587" r="5.25" style="fill: rgb(255, 127, 14);"/><circle id="" cx="68.75720165188179" cy="122.27592586273856" r="5.25" style="fill: rgb(255, 127, 14);"/><circle id="" cx="-37.09170712131791" cy="187.07661740775163" r="5.25" style="fill: rgb(255, 127, 14);"/><circle id="" cx="110.88285290887559" cy="176.15748679018316" r="5.25" style="fill: rgb(255, 127, 14);"/><circle id="" cx="139.70227979309192" cy="141.29718434257222" r="5.25" style="fill: rgb(255, 127, 14);"/><circle id="" cx="-10.683829751362206" cy="138.94047100385066" r="5.25" style="fill: rgb(255, 127, 14);"/><circle id="" cx="-8.396469801585862" cy="192.21258479783975" r="5.25" style="fill: rgb(255, 127, 14);"/><circle id="" cx="132.40265425314826" cy="157.95841685226938" r="5.25" style="fill: rgb(255, 127, 14);"/><circle id="" cx="251.50232792852793" cy="174.85049526261093" r="5.25" style="fill: rgb(255, 127, 14);"/><circle id="" cx="122.81041374156706" cy="202.5723917095282" r="5.25" style="fill: rgb(255, 127, 14);"/><circle id="" cx="9.763869081784247" cy="118.17623502911886" r="5.25" style="fill: rgb(255, 127, 14);"/><circle id="" cx="125.70871766627727" cy="145.09754408437493" r="5.25" style="fill: rgb(255, 127, 14);"/><circle id="" cx="0.8079783411986537" cy="181.00305405879357" r="5.25" style="fill: rgb(255, 127, 14);"/><circle id="" cx="39.78335782955087" cy="147.50062978673586" r="5.25" style="fill: rgb(255, 127, 14);"/><circle id="" cx="6.094244115479125" cy="194.5051051804451" r="5.25" style="fill: rgb(255, 127, 14);"/><circle id="" cx="39.76869501525044" cy="121.88693111618123" r="5.25" style="fill: rgb(255, 127, 14);"/><circle id="" cx="61.74672247027943" cy="159.96664452675387" r="5.25" style="fill: rgb(255, 127, 14);"/><circle id="" cx="54.261086124035195" cy="122.35660428594741" r="5.25" style="fill: rgb(255, 127, 14);"/><circle id="" cx="97.81723911370948" cy="149.41636602912297" r="5.25" style="fill: rgb(255, 127, 14);"/><circle id="" cx="4.525241510252243" cy="156.0849896186099" r="5.25" style="fill: rgb(255, 127, 14);"/><circle id="" cx="146.3957869686543" cy="154.16022454308566" r="5.25" style="fill: rgb(255, 127, 14);"/></g><g id="labels"><g id="" transform="translate(11.404903082753055,207.98231177605334)"><text x="0" y="0" text-anchor="middle" dominant-baseline="text-before-edge" transform="translate(0,0)"/></g><g id="" transform="translate(40.07021472762077,212.3370106678579)"><text x="0" y="0" text-anchor="middle" dominant-baseline="text-before-edge" transform="translate(0,0)"/></g><g id="" transform="translate(-41.91676429643236,173.05402124118447)"><text x="0" y="0" text-anchor="middle" dominant-baseline="text-before-edge" transform="translate(0,0)"/></g><g id="" transform="translate(-39.054827007927756,132.95107902438912)"><text x="0" y="0" text-anchor="middle" dominant-baseline="text-before-edge" transform="translate(0,0)"/></g><g id="" transform="translate(-29.361665078216976,122.17100138433516)"><text x="0" y="0" text-anchor="middle" dominant-baseline="text-before-edge" transform="translate(0,0)"/></g><g id="" transform="translate(16.4754997515778,221.56013873885087)"><text x="0" y="0" text-anchor="middle" dominant-baseline="text-before-edge" transform="translate(0,0)"/></g><g id="" transform="translate(346.96260687436757,170.52104070048327)"><text x="0" y="0" text-anchor="middle" dominant-baseline="text-before-edge" transform="translate(0,0)"/></g><g id="" transform="translate(147.3401765056332,195.92957523887912)"><text x="0" y="0" text-anchor="middle" dominant-baseline="text-before-edge" transform="translate(0,0)"/></g><g id="" transform="translate(35.295247923143016,198.65285944597323)"><text x="0" y="0" text-anchor="middle" dominant-baseline="text-before-edge" transform="translate(0,0)"/></g><g id="" transform="translate(3.5382541999482786,141.69263745088298)"><text x="0" y="0" text-anchor="middle" dominant-baseline="text-before-edge" transform="translate(0,0)"/></g><g id="" transform="translate(21.912445050782352,144.2538617588073)"><text x="0" y="0" text-anchor="middle" dominant-baseline="text-before-edge" transform="translate(0,0)"/></g><g id="" transform="translate(-60.904827595079276,155.09437766966826)"><text x="0" y="0" text-anchor="middle" dominant-baseline="text-before-edge" transform="translate(0,0)"/></g><g id="" transform="translate(79.41616250799733,199.64891380441674)"><text x="0" y="0" text-anchor="middle" dominant-baseline="text-before-edge" transform="translate(0,0)"/></g><g id="" transform="translate(85.04699578170143,123.40479162457106)"><text x="0" y="0" text-anchor="middle" dominant-baseline="text-before-edge" transform="translate(0,0)"/></g><g id="" transform="translate(71.53714467929044,212.6571248222043)"><text x="0" y="0" text-anchor="middle" dominant-baseline="text-before-edge" transform="translate(0,0)"/></g><g id="" transform="translate(76.07889434700701,134.78896047422143)"><text x="0" y="0" text-anchor="middle" dominant-baseline="text-before-edge" transform="translate(0,0)"/></g><g id="" transform="translate(-22.834488400480744,189.6569420944144)"><text x="0" y="0" text-anchor="middle" dominant-baseline="text-before-edge" transform="translate(0,0)"/></g><g id="" transform="translate(86.02419723965421,212.66778176003874)"><text x="0" y="0" text-anchor="middle" dominant-baseline="text-before-edge" transform="translate(0,0)"/></g><g id="" transform="translate(135.50591795903884,187.57038228637487)"><text x="0" y="0" text-anchor="middle" dominant-baseline="text-before-edge" transform="translate(0,0)"/></g><g id="" transform="translate(101.95067219884925,188.44815336267615)"><text x="0" y="0" text-anchor="middle" dominant-baseline="text-before-edge" transform="translate(0,0)"/></g><g id="" transform="translate(-4.753724132677859,113.95167592030084)"><text x="0" y="0" text-anchor="middle" dominant-baseline="text-before-edge" transform="translate(0,0)"/></g><g id="" transform="translate(43.972849401785155,187.04100209937883)"><text x="0" y="0" text-anchor="middle" dominant-baseline="text-before-edge" transform="translate(0,0)"/></g><g id="" transform="translate(-4.364183898850016,167.45908006417977)"><text x="0" y="0" text-anchor="middle" dominant-baseline="text-before-edge" transform="translate(0,0)"/></g><g id="" transform="translate(2.1708532599609547,219.20767195692406)"><text x="0" y="0" text-anchor="middle" dominant-baseline="text-before-edge" transform="translate(0,0)"/></g><g id="" transform="translate(-46.91614728908036,158.8423486419189)"><text x="0" y="0" text-anchor="middle" dominant-baseline="text-before-edge" transform="translate(0,0)"/></g><g id="" transform="translate(93.8894602050658,200.50075157665103)"><text x="0" y="0" text-anchor="middle" dominant-baseline="text-before-edge" transform="translate(0,0)"/></g><g id="" transform="translate(125.31417252706949,177.27821140008479)"><text x="0" y="0" text-anchor="middle" dominant-baseline="text-before-edge" transform="translate(0,0)"/></g><g id="" transform="translate(148.6416965719382,181.43798961349495)"><text x="0" y="0" text-anchor="middle" dominant-baseline="text-before-edge" transform="translate(0,0)"/></g><g id="" transform="translate(24.21998634381478,171.86070640829038)"><text x="0" y="0" text-anchor="middle" dominant-baseline="text-before-edge" transform="translate(0,0)"/></g><g id="" transform="translate(-15.18200508317504,125.17221716816543)"><text x="0" y="0" text-anchor="middle" dominant-baseline="text-before-edge" transform="translate(0,0)"/></g><g id="" transform="translate(-12.510518680409712,216.74184149238513)"><text x="0" y="0" text-anchor="middle" dominant-baseline="text-before-edge" transform="translate(0,0)"/></g><g id="" transform="translate(67.5412029171198,173.2362979385784)"><text x="0" y="0" text-anchor="middle" dominant-baseline="text-before-edge" transform="translate(0,0)"/></g><g id="" transform="translate(9.884787586725942,169.75905604293519)"><text x="0" y="0" text-anchor="middle" dominant-baseline="text-before-edge" transform="translate(0,0)"/></g><g id="" transform="translate(164.52864285513763,181.39231404334603)"><text x="0" y="0" text-anchor="middle" dominant-baseline="text-before-edge" transform="translate(0,0)"/></g><g id="" transform="translate(32.58786653491437,134.48632936921942)"><text x="0" y="0" text-anchor="middle" dominant-baseline="text-before-edge" transform="translate(0,0)"/></g><g id="" transform="translate(25.72314292979307,210.24882495320637)"><text x="0" y="0" text-anchor="middle" dominant-baseline="text-before-edge" transform="translate(0,0)"/></g><g id="" transform="translate(-51.99085738035351,143.65886895972622)"><text x="0" y="0" text-anchor="middle" dominant-baseline="text-before-edge" transform="translate(0,0)"/></g><g id="" transform="translate(-27.14283298804914,214.3092157295823)"><text x="0" y="0" text-anchor="middle" dominant-baseline="text-before-edge" transform="translate(0,0)"/></g><g id="" transform="translate(20.535162483108152,196.7170078074003)"><text x="0" y="0" text-anchor="middle" dominant-baseline="text-before-edge" transform="translate(0,0)"/></g><g id="" transform="translate(48.20977921830002,224.32872292998607)"><text x="0" y="0" text-anchor="middle" dominant-baseline="text-before-edge" transform="translate(0,0)"/></g><g id="" transform="translate(-13.493114165061879,178.65070114169066)"><text x="0" y="0" text-anchor="middle" dominant-baseline="text-before-edge" transform="translate(0,0)"/></g><g id="" transform="translate(32.9464171982141,160.28810611391805)"><text x="0" y="0" text-anchor="middle" dominant-baseline="text-before-edge" transform="translate(0,0)"/></g><g id="" transform="translate(58.46786424233729,186.85154001275612)"><text x="0" y="0" text-anchor="middle" dominant-baseline="text-before-edge" transform="translate(0,0)"/></g><g id="" transform="translate(29.551677185029867,185.34250716330203)"><text x="0" y="0" text-anchor="middle" dominant-baseline="text-before-edge" transform="translate(0,0)"/></g><g id="" transform="translate(-46.45050313676279,198.1371364009779)"><text x="0" y="0" text-anchor="middle" dominant-baseline="text-before-edge" transform="translate(0,0)"/></g><g id="" transform="translate(81.97290912457095,174.1023111444024)"><text x="0" y="0" text-anchor="middle" dominant-baseline="text-before-edge" transform="translate(0,0)"/></g><g id="" transform="translate(57.04754240277141,212.83804482201543)"><text x="0" y="0" text-anchor="middle" dominant-baseline="text-before-edge" transform="translate(0,0)"/></g><g id="" transform="translate(68.90565669755003,147.37436460914603)"><text x="0" y="0" text-anchor="middle" dominant-baseline="text-before-edge" transform="translate(0,0)"/></g><g id="" transform="translate(72.96603918550156,186.67333362764208)"><text x="0" y="0" text-anchor="middle" dominant-baseline="text-before-edge" transform="translate(0,0)"/></g><g id="" transform="translate(-0.951553876749779,127.9486615806853)"><text x="0" y="0" text-anchor="middle" dominant-baseline="text-before-edge" transform="translate(0,0)"/></g><g id="" transform="translate(53.08309143324686,173.42583971331678)"><text x="0" y="0" text-anchor="middle" dominant-baseline="text-before-edge" transform="translate(0,0)"/></g><g id="" transform="translate(83.35547806309717,148.38624388072495)"><text x="0" y="0" text-anchor="middle" dominant-baseline="text-before-edge" transform="translate(0,0)"/></g><g id="" transform="translate(15.208937537902639,183.2268565174707)"><text x="0" y="0" text-anchor="middle" dominant-baseline="text-before-edge" transform="translate(0,0)"/></g><g id="" transform="translate(-32.16994083490391,200.70124791000563)"><text x="0" y="0" text-anchor="middle" dominant-baseline="text-before-edge" transform="translate(0,0)"/></g><g id="" transform="translate(119.29106054191787,164.09143394155717)"><text x="0" y="0" text-anchor="middle" dominant-baseline="text-before-edge" transform="translate(0,0)"/></g><g id="" transform="translate(178.90261028902043,179.48775816216386)"><text x="0" y="0" text-anchor="middle" dominant-baseline="text-before-edge" transform="translate(0,0)"/></g><g id="" transform="translate(105.97306029490161,137.4403548254288)"><text x="0" y="0" text-anchor="middle" dominant-baseline="text-before-edge" transform="translate(0,0)"/></g><g id="" transform="translate(76.06754178129077,160.8993756318187)"><text x="0" y="0" text-anchor="middle" dominant-baseline="text-before-edge" transform="translate(0,0)"/></g><g id="" transform="translate(47.2394776936233,160.11846318655262)"><text x="0" y="0" text-anchor="middle" dominant-baseline="text-before-edge" transform="translate(0,0)"/></g><g id="" transform="translate(184.42764262604464,166.08244059121438)"><text x="0" y="0" text-anchor="middle" dominant-baseline="text-before-edge" transform="translate(0,0)"/></g><g id="" transform="translate(138.42981404700535,171.1436127717168)"><text x="0" y="0" text-anchor="middle" dominant-baseline="text-before-edge" transform="translate(0,0)"/></g><g id="" transform="translate(-38.0096191183686,147.40471589197008)"><text x="0" y="0" text-anchor="middle" dominant-baseline="text-before-edge" transform="translate(0,0)"/></g><g id="" transform="translate(54.40485091717648,147.47369026095498)"><text x="0" y="0" text-anchor="middle" dominant-baseline="text-before-edge" transform="translate(0,0)"/></g><g id="" transform="translate(-32.757713332140035,161.83446511613823)"><text x="0" y="0" text-anchor="middle" dominant-baseline="text-before-edge" transform="translate(0,0)"/></g><g id="" transform="translate(152.42725504215184,167.36926397035066)"><text x="0" y="0" text-anchor="middle" dominant-baseline="text-before-edge" transform="translate(0,0)"/></g><g id="" transform="translate(-3.1060241539831352,205.71291268773612)"><text x="0" y="0" text-anchor="middle" dominant-baseline="text-before-edge" transform="translate(0,0)"/></g><g id="" transform="translate(-23.857546360176404,150.40488917002)"><text x="0" y="0" text-anchor="middle" dominant-baseline="text-before-edge" transform="translate(0,0)"/></g><g id="" transform="translate(108.35186225907034,201.44510421897706)"><text x="0" y="0" text-anchor="middle" dominant-baseline="text-before-edge" transform="translate(0,0)"/></g><g id="" transform="translate(91.47812416067886,136.39346520346487)"><text x="0" y="0" text-anchor="middle" dominant-baseline="text-before-edge" transform="translate(0,0)"/></g><g id="" transform="translate(90.40622900146575,161.88245530750697)"><text x="0" y="0" text-anchor="middle" dominant-baseline="text-before-edge" transform="translate(0,0)"/></g><g id="" transform="translate(333.03739312563243,166.47895929951673)"><text x="0" y="0" text-anchor="middle" dominant-baseline="text-before-edge" transform="translate(0,0)"/></g><g id="" transform="translate(112.2732068367741,150.5009746988597)"><text x="0" y="0" text-anchor="middle" dominant-baseline="text-before-edge" transform="translate(0,0)"/></g><g id="" transform="translate(-41.52621360120661,211.77870667389794)"><text x="0" y="0" text-anchor="middle" dominant-baseline="text-before-edge" transform="translate(0,0)"/></g><g id="" transform="translate(175.962668489214,154.31095252929975)"><text x="0" y="0" text-anchor="middle" dominant-baseline="text-before-edge" transform="translate(0,0)"/></g><g id="" transform="translate(18.785748962592056,158.36246901533306)"><text x="0" y="0" text-anchor="middle" dominant-baseline="text-before-edge" transform="translate(0,0)"/></g><g id="" transform="translate(47.07747589594219,134.95685129512685)"><text x="0" y="0" text-anchor="middle" dominant-baseline="text-before-edge" transform="translate(0,0)"/></g><g id="" transform="translate(208.7315215573783,154.499287465517)"><text x="0" y="0" text-anchor="middle" dominant-baseline="text-before-edge" transform="translate(0,0)"/></g><g id="" transform="translate(61.57750884785976,134.8765481233355)"><text x="0" y="0" text-anchor="middle" dominant-baseline="text-before-edge" transform="translate(0,0)"/></g><g id="" transform="translate(104.87355495495592,162.96027112986138)"><text x="0" y="0" text-anchor="middle" dominant-baseline="text-before-edge" transform="translate(0,0)"/></g><g id="" transform="translate(96.42775410981154,175.07164054272423)"><text x="0" y="0" text-anchor="middle" dominant-baseline="text-before-edge" transform="translate(0,0)"/></g><g id="" transform="translate(170.05228909430923,167.9852026979908)"><text x="0" y="0" text-anchor="middle" dominant-baseline="text-before-edge" transform="translate(0,0)"/></g><g id="" transform="translate(161.57619710543744,156.12187508961804)"><text x="0" y="0" text-anchor="middle" dominant-baseline="text-before-edge" transform="translate(0,0)"/></g><g id="" transform="translate(-56.09136891612686,170.05149639971222)"><text x="0" y="0" text-anchor="middle" dominant-baseline="text-before-edge" transform="translate(0,0)"/></g><g id="" transform="translate(-18.988944423435367,111.19745608742929)"><text x="0" y="0" text-anchor="middle" dominant-baseline="text-before-edge" transform="translate(0,0)"/></g><g id="" transform="translate(87.4741789761251,187.5122877357134)"><text x="0" y="0" text-anchor="middle" dominant-baseline="text-before-edge" transform="translate(0,0)"/></g><g id="" transform="translate(-51.27872796336855,184.11291564641294)"><text x="0" y="0" text-anchor="middle" dominant-baseline="text-before-edge" transform="translate(0,0)"/></g><g id="" transform="translate(212.49987174472406,168.4995235158339)"><text x="0" y="0" text-anchor="middle" dominant-baseline="text-before-edge" transform="translate(0,0)"/></g><g id="" transform="translate(-18.56177441304698,164.81254505881176)"><text x="0" y="0" text-anchor="middle" dominant-baseline="text-before-edge" transform="translate(0,0)"/></g><g id="" transform="translate(38.57863970067258,173.6213524718113)"><text x="0" y="0" text-anchor="middle" dominant-baseline="text-before-edge" transform="translate(0,0)"/></g><g id="" transform="translate(-9.718645971926344,153.39223834360206)"><text x="0" y="0" text-anchor="middle" dominant-baseline="text-before-edge" transform="translate(0,0)"/></g><g id="" transform="translate(14.254843634415144,131.96655199811426)"><text x="0" y="0" text-anchor="middle" dominant-baseline="text-before-edge" transform="translate(0,0)"/></g><g id="" transform="translate(24.94275044734501,122.16401719571097)"><text x="0" y="0" text-anchor="middle" dominant-baseline="text-before-edge" transform="translate(0,0)"/></g><g id="" transform="translate(-17.79210091664809,203.23896314385593)"><text x="0" y="0" text-anchor="middle" dominant-baseline="text-before-edge" transform="translate(0,0)"/></g><g id="" transform="translate(-27.738430916421887,175.99662535601175)"><text x="0" y="0" text-anchor="middle" dominant-baseline="text-before-edge" transform="translate(0,0)"/></g><g id="" transform="translate(49.744413687895914,200.31118616520985)"><text x="0" y="0" text-anchor="middle" dominant-baseline="text-before-edge" transform="translate(0,0)"/></g><g id="" transform="translate(117.047581224642,189.27600450765357)"><text x="0" y="0" text-anchor="middle" dominant-baseline="text-before-edge" transform="translate(0,0)"/></g><g id="" transform="translate(258.49767207147215,162.14950473738907)"><text x="0" y="0" text-anchor="middle" dominant-baseline="text-before-edge" transform="translate(0,0)"/></g><g id="" transform="translate(99.62729880335056,124.4034976632894)"><text x="0" y="0" text-anchor="middle" dominant-baseline="text-before-edge" transform="translate(0,0)"/></g><g id="" transform="translate(-24.87223066568754,135.95060827319622)"><text x="0" y="0" text-anchor="middle" dominant-baseline="text-before-edge" transform="translate(0,0)"/></g><g id="" transform="translate(216.2686066978974,182.50118901864926)"><text x="0" y="0" text-anchor="middle" dominant-baseline="text-before-edge" transform="translate(0,0)"/></g><g id="" transform="translate(64.24337940033567,200.13800081433587)"><text x="0" y="0" text-anchor="middle" dominant-baseline="text-before-edge" transform="translate(0,0)"/></g><g id="" transform="translate(68.75720165188179,122.27592586273856)"><text x="0" y="0" text-anchor="middle" dominant-baseline="text-before-edge" transform="translate(0,0)"/></g><g id="" transform="translate(-37.09170712131791,187.07661740775163)"><text x="0" y="0" text-anchor="middle" dominant-baseline="text-before-edge" transform="translate(0,0)"/></g><g id="" transform="translate(110.88285290887559,176.15748679018316)"><text x="0" y="0" text-anchor="middle" dominant-baseline="text-before-edge" transform="translate(0,0)"/></g><g id="" transform="translate(139.70227979309192,141.29718434257222)"><text x="0" y="0" text-anchor="middle" dominant-baseline="text-before-edge" transform="translate(0,0)"/></g><g id="" transform="translate(-10.683829751362206,138.94047100385066)"><text x="0" y="0" text-anchor="middle" dominant-baseline="text-before-edge" transform="translate(0,0)"/></g><g id="" transform="translate(-8.396469801585862,192.21258479783975)"><text x="0" y="0" text-anchor="middle" dominant-baseline="text-before-edge" transform="translate(0,0)"/></g><g id="" transform="translate(132.40265425314826,157.95841685226938)"><text x="0" y="0" text-anchor="middle" dominant-baseline="text-before-edge" transform="translate(0,0)"/></g><g id="" transform="translate(251.50232792852793,174.85049526261093)"><text x="0" y="0" text-anchor="middle" dominant-baseline="text-before-edge" transform="translate(0,0)"/></g><g id="" transform="translate(122.81041374156706,202.5723917095282)"><text x="0" y="0" text-anchor="middle" dominant-baseline="text-before-edge" transform="translate(0,0)"/></g><g id="" transform="translate(9.763869081784247,118.17623502911886)"><text x="0" y="0" text-anchor="middle" dominant-baseline="text-before-edge" transform="translate(0,0)"/></g><g id="" transform="translate(125.70871766627727,145.09754408437493)"><text x="0" y="0" text-anchor="middle" dominant-baseline="text-before-edge" transform="translate(0,0)"/></g><g id="" transform="translate(0.8079783411986537,181.00305405879357)"><text x="0" y="0" text-anchor="middle" dominant-baseline="text-before-edge" transform="translate(0,0)"/></g><g id="" transform="translate(39.78335782955087,147.50062978673586)"><text x="0" y="0" text-anchor="middle" dominant-baseline="text-before-edge" transform="translate(0,0)"/></g><g id="" transform="translate(6.094244115479125,194.5051051804451)"><text x="0" y="0" text-anchor="middle" dominant-baseline="text-before-edge" transform="translate(0,0)"/></g><g id="" transform="translate(39.76869501525044,121.88693111618123)"><text x="0" y="0" text-anchor="middle" dominant-baseline="text-before-edge" transform="translate(0,0)"/></g><g id="" transform="translate(61.74672247027943,159.96664452675387)"><text x="0" y="0" text-anchor="middle" dominant-baseline="text-before-edge" transform="translate(0,0)"/></g><g id="" transform="translate(54.261086124035195,122.35660428594741)"><text x="0" y="0" text-anchor="middle" dominant-baseline="text-before-edge" transform="translate(0,0)"/></g><g id="" transform="translate(97.81723911370948,149.41636602912297)"><text x="0" y="0" text-anchor="middle" dominant-baseline="text-before-edge" transform="translate(0,0)"/></g><g id="" transform="translate(4.525241510252243,156.0849896186099)"><text x="0" y="0" text-anchor="middle" dominant-baseline="text-before-edge" transform="translate(0,0)"/></g><g id="" transform="translate(146.3957869686543,154.16022454308566)"><text x="0" y="0" text-anchor="middle" dominant-baseline="text-before-edge" transform="translate(0,0)"/></g></g></g></g></g></svg>